<?xml version="1.0" encoding="utf-8"?>
<!-- Generator: Adobe Illustrator 23.0.0, SVG Export Plug-In . SVG Version: 6.00 Build 0)  -->
<svg version="1.1" xmlns="http://www.w3.org/2000/svg" xmlns:xlink="http://www.w3.org/1999/xlink" x="0px" y="0px"
	 viewBox="0 0 160.44 157.93" style="enable-background:new 0 0 160.44 157.93;" xml:space="preserve">
<style type="text/css">
	.st0{fill:none;stroke:#EFEFEF;stroke-miterlimit:10;}
	.st1{fill:#F9DC79;}
	.st2{fill:#F7BD19;}
	.st3{opacity:0.8;}
	.st4{fill:url(#SVGID_1_);}
	.st5{fill:url(#SVGID_2_);}
	.st6{fill:url(#SVGID_3_);}
	.st7{fill:url(#SVGID_4_);}
	.st8{fill:url(#SVGID_5_);}
	.st9{fill:url(#SVGID_6_);}
	.st10{fill:url(#SVGID_7_);}
	.st11{fill:url(#SVGID_8_);}
	.st12{fill:url(#SVGID_9_);}
	.st13{fill:url(#SVGID_10_);}
	.st14{fill:#00A99D;}
	.st15{fill:#FBB03B;}
	.st16{fill:none;stroke:#29ABE2;stroke-width:4.5;stroke-miterlimit:10;}
	.st17{fill:none;stroke:#998675;stroke-width:4.5;stroke-miterlimit:10;}
	.st18{fill:url(#SVGID_13_);}
	.st19{fill:url(#SVGID_14_);}
	.st20{fill:url(#SVGID_15_);}
	.st21{fill:#FABF14;}
	.st22{fill:none;stroke:#FFF200;stroke-width:6;stroke-miterlimit:10;}
	.st23{fill:#E6E6E6;}
	.st24{fill:#CCCCCC;}
</style>
<g id="Layer_2">
</g>
<g id="Layer_1">
</g>
<g id="Layer_3">
</g>
<g id="Layer_4">
	<g>
		<g>
			<path class="st14" d="M82.64,63.66V44.15c4.56-1.17,7.95-5.32,7.95-10.25c0-5.83-4.75-10.58-10.58-10.58
				c-5.83,0-10.58,4.75-10.58,10.58c0,4.93,3.38,9.07,7.95,10.25v19.51c-5.54,0.83-10.24,4.25-12.83,8.98l-11.58-9
				c0.28-0.8,0.44-1.65,0.44-2.55c0-4.21-3.42-7.63-7.63-7.63s-7.63,3.42-7.63,7.63s3.42,7.63,7.63,7.63c1.39,0,2.7-0.38,3.83-1.03
				l13.08,10.17c-0.19,1.04-0.3,2.11-0.3,3.21c0,3.91,1.28,7.52,3.44,10.45l-14.79,14.79c-1.03,1.03-1.03,2.69,0,3.72
				c0.51,0.51,1.19,0.77,1.86,0.77c0.67,0,1.35-0.26,1.86-0.77l14.79-14.79c2.26,1.67,4.92,2.81,7.82,3.25v19.55
				c-2.91,1.07-5,3.88-5,7.16c0,4.21,3.42,7.63,7.63,7.63c4.21,0,7.63-3.42,7.63-7.63c0-3.28-2.08-6.09-5-7.16V98.5
				c8.47-1.27,14.98-8.6,14.98-17.42C97.62,72.26,91.11,64.93,82.64,63.66z M45.78,63.46c-1.31,0-2.37-1.06-2.37-2.37
				s1.06-2.37,2.37-2.37c1.31,0,2.37,1.06,2.37,2.37S47.09,63.46,45.78,63.46z M74.69,33.91c0-2.93,2.38-5.32,5.32-5.32
				c2.93,0,5.32,2.38,5.32,5.32s-2.38,5.32-5.32,5.32S74.69,36.84,74.69,33.91z M80.01,127.58c-1.31,0-2.37-1.06-2.37-2.37
				c0-1.14,0.81-2.1,1.89-2.32c0.15,0.03,0.31,0.05,0.48,0.05s0.32-0.02,0.48-0.05c1.08,0.22,1.89,1.18,1.89,2.32
				C82.38,126.51,81.31,127.58,80.01,127.58z M80.01,93.43c-6.81,0-12.35-5.54-12.35-12.35c0-1.2,0.18-2.36,0.5-3.46
				c0.02-0.05,0.03-0.11,0.05-0.16c1.55-5.05,6.26-8.73,11.81-8.73c6.81,0,12.35,5.54,12.35,12.35
				C92.36,87.89,86.82,93.43,80.01,93.43z"/>
			<path class="st14" d="M132.1,55.52c-5.83,0-10.58,4.75-10.58,10.58c0,0.27,0.01,0.54,0.03,0.81l-19.03,6.49
				c-1.38,0.47-2.11,1.96-1.64,3.34c0.37,1.09,1.4,1.78,2.49,1.78c0.28,0,0.57-0.05,0.85-0.14l19.03-6.49
				c1.89,2.88,5.15,4.79,8.85,4.79c5.83,0,10.58-4.75,10.58-10.58C142.68,60.26,137.93,55.52,132.1,55.52z M132.1,71.41
				c-2.93,0-5.32-2.38-5.32-5.32c0-2.93,2.38-5.32,5.32-5.32c2.93,0,5.32,2.38,5.32,5.32C137.41,69.03,135.03,71.41,132.1,71.41z"/>
			<path class="st14" d="M40.78,109.72c-5.83,0-10.58,4.75-10.58,10.58c0,5.83,4.75,10.58,10.58,10.58
				c5.83,0,10.58-4.75,10.58-10.58C51.36,114.47,46.62,109.72,40.78,109.72z M40.78,125.62c-2.93,0-5.32-2.38-5.32-5.32
				s2.38-5.32,5.32-5.32s5.32,2.38,5.32,5.32C46.1,123.23,43.71,125.62,40.78,125.62z"/>
		</g>
	</g>
</g>
</svg>
