<?xml version="1.0" encoding="utf-8"?>
<!-- Generator: Adobe Illustrator 23.0.0, SVG Export Plug-In . SVG Version: 6.00 Build 0)  -->
<svg version="1.1" xmlns="http://www.w3.org/2000/svg" xmlns:xlink="http://www.w3.org/1999/xlink" x="0px" y="0px"
	 viewBox="0 0 160.44 157.93" style="enable-background:new 0 0 160.44 157.93;" xml:space="preserve">
<style type="text/css">
	.st0{fill:none;stroke:#EFEFEF;stroke-miterlimit:10;}
	.st1{fill:#F9DC79;}
	.st2{fill:#F7BD19;}
	.st3{opacity:0.8;}
	.st4{fill:url(#SVGID_1_);}
	.st5{fill:url(#SVGID_2_);}
	.st6{fill:url(#SVGID_3_);}
	.st7{fill:url(#SVGID_4_);}
	.st8{fill:url(#SVGID_5_);}
	.st9{fill:url(#SVGID_6_);}
	.st10{fill:url(#SVGID_7_);}
	.st11{fill:url(#SVGID_8_);}
	.st12{fill:url(#SVGID_9_);}
	.st13{fill:url(#SVGID_10_);}
	.st14{fill:#00A99D;}
	.st15{fill:#FBB03B;}
	.st16{fill:none;stroke:#29ABE2;stroke-width:4.5;stroke-miterlimit:10;}
	.st17{fill:none;stroke:#998675;stroke-width:4.5;stroke-miterlimit:10;}
	.st18{fill:url(#SVGID_13_);}
	.st19{fill:url(#SVGID_14_);}
	.st20{fill:url(#SVGID_15_);}
	.st21{fill:#FABF14;}
	.st22{fill:none;stroke:#FFF200;stroke-width:6;stroke-miterlimit:10;}
	.st23{fill:#E6E6E6;}
	.st24{fill:#CCCCCC;}
</style>
<g id="Layer_2">
</g>
<g id="Layer_1">
</g>
<g id="Layer_3">
</g>
<g id="Layer_4">
	<g>
		<g>
			<path class="st16" d="M79.44,132.21c15.36,0,29.9-6.64,40.22-18.7c8.63-10.09,13.78-23.13,13.78-34.9c0-23.38-14.35-42.4-32-42.4
				h-22"/>
			<path class="st16" d="M79.44,48.22c0,0,11.6,0,22,0s20,13.6,20,30.4s-15.6,41.6-42,41.6"/>
			<circle class="st16" cx="79.44" cy="79.01" r="4.8"/>
			<circle class="st16" cx="104.24" cy="79.01" r="4.8"/>
			<circle class="st16" cx="54.64" cy="79.01" r="4.8"/>
			<circle class="st16" cx="67.44" cy="100.61" r="4.8"/>
			<circle class="st16" cx="92.24" cy="100.61" r="4.8"/>
			<circle class="st16" cx="67.44" cy="61.42" r="4"/>
			<circle class="st16" cx="92.24" cy="61.42" r="4"/>
			<path class="st16" d="M79.44,132.21c-15.36,0-29.9-6.64-40.22-18.7c-8.63-10.09-13.78-23.13-13.78-34.9
				c0-23.38,14.35-42.4,32-42.4h22"/>
			<path class="st16" d="M79.44,48.22c0,0-11.6,0-22,0s-20,13.6-20,30.4s15.6,41.6,42,41.6"/>
		</g>
	</g>
</g>
</svg>
