<?xml version="1.0" encoding="utf-8"?>
<!-- Generator: Adobe Illustrator 23.0.0, SVG Export Plug-In . SVG Version: 6.00 Build 0)  -->
<svg version="1.1" xmlns="http://www.w3.org/2000/svg" xmlns:xlink="http://www.w3.org/1999/xlink" x="0px" y="0px"
	 viewBox="0 0 160.44 157.93" style="enable-background:new 0 0 160.44 157.93;" xml:space="preserve">
<style type="text/css">
	.st0{fill:none;stroke:#EFEFEF;stroke-miterlimit:10;}
	.st1{fill:#F9DC79;}
	.st2{fill:#F7BD19;}
	.st3{opacity:0.8;}
	.st4{fill:url(#SVGID_1_);}
	.st5{fill:url(#SVGID_2_);}
	.st6{fill:url(#SVGID_3_);}
	.st7{fill:url(#SVGID_4_);}
	.st8{fill:url(#SVGID_5_);}
	.st9{fill:url(#SVGID_6_);}
	.st10{fill:url(#SVGID_7_);}
	.st11{fill:url(#SVGID_8_);}
	.st12{fill:url(#SVGID_9_);}
	.st13{fill:url(#SVGID_10_);}
	.st14{fill:#00A99D;}
	.st15{fill:#FBB03B;}
	.st16{fill:none;stroke:#29ABE2;stroke-width:4.5;stroke-miterlimit:10;}
	.st17{fill:none;stroke:#998675;stroke-width:4.5;stroke-miterlimit:10;}
	.st18{fill:url(#SVGID_13_);}
	.st19{fill:url(#SVGID_14_);}
	.st20{fill:url(#SVGID_15_);}
	.st21{fill:#FABF14;}
	.st22{fill:none;stroke:#FFF200;stroke-width:6;stroke-miterlimit:10;}
	.st23{fill:#E6E6E6;}
	.st24{fill:#CCCCCC;}
</style>
<g id="Layer_2">
</g>
<g id="Layer_1">
</g>
<g id="Layer_3">
</g>
<g id="Layer_4">
	<g>
		<g>
			<g>
				<g>
					<path class="st15" d="M124.66,46.58c-14.62-4.01-29.33-10.25-42.53-18.05c-0.7-0.41-1.57-0.41-2.27,0
						c-13.59,8.01-27.5,13.91-42.54,18.03c-0.97,0.27-1.65,1.15-1.65,2.16l-0.01,22.84c-0.01,23.52,10.84,39.09,19.94,48.02
						c9.8,9.61,21.21,14.92,25.36,14.92c4.14,0,15.56-5.31,25.37-14.9c9.11-8.92,19.96-24.48,19.97-48l0.01-22.84
						C126.31,47.73,125.64,46.85,124.66,46.58z M121.83,71.58c-0.01,21.97-10.13,36.49-18.63,44.81
						c-9.64,9.44-19.95,13.63-22.24,13.63c-2.29,0-12.59-4.2-22.23-13.64c-8.49-8.32-18.6-22.85-18.6-44.82l0.01-21.14
						C54.53,46.33,67.92,40.64,81,33.04c12.74,7.4,26.8,13.39,40.84,17.39L121.83,71.58z"/>
					<path class="st15" d="M65.75,76.79c-1.37-1.37-3.2-2.13-5.14-2.13c-1.94,0-3.77,0.75-5.14,2.13c-2.83,2.83-2.84,7.45,0,10.28
						l13.2,13.2c1.37,1.37,3.2,2.13,5.14,2.13c1.94,0,3.77-0.75,5.14-2.13l27.57-27.55c2.83-2.83,2.84-7.45,0-10.28
						c-1.37-1.37-3.2-2.13-5.14-2.13c-1.94,0-3.77,0.75-5.14,2.13L73.8,84.85L65.75,76.79z M99.39,65.6
						c0.53-0.53,1.23-0.82,1.98-0.82c0.75,0,1.45,0.29,1.98,0.82c1.09,1.09,1.09,2.87,0,3.96L75.78,97.11
						c-0.53,0.53-1.23,0.82-1.98,0.82s-1.45-0.29-1.98-0.82l-13.2-13.2c-1.09-1.09-1.09-2.87,0-3.96c0.53-0.53,1.23-0.82,1.98-0.82
						c0.75,0,1.45,0.29,1.98,0.82l9.64,9.64c0.42,0.42,0.99,0.65,1.58,0.66c0.59,0,1.16-0.23,1.58-0.65L99.39,65.6z"/>
				</g>
			</g>
		</g>
	</g>
</g>
</svg>
