<?xml version="1.0" encoding="utf-8"?>
<!-- Generator: Adobe Illustrator 23.0.0, SVG Export Plug-In . SVG Version: 6.00 Build 0)  -->
<svg version="1.1" id="Layer_1" xmlns="http://www.w3.org/2000/svg" xmlns:xlink="http://www.w3.org/1999/xlink" x="0px" y="0px"
	 viewBox="0 0 1000 1000" style="enable-background:new 0 0 1000 1000;" xml:space="preserve">
<style type="text/css">
	.st0{fill:#FBDD79;}
	.st1{fill:#FABF14;}
</style>
<g>
	<path class="st0" d="M500,142.2c-197,0-356.7,159.7-356.7,356.7S303,855.6,500,855.6s356.8-159.7,356.8-356.7S697,142.2,500,142.2z
		 M500,803.5c-168.2,0-304.6-136.4-304.6-304.6S331.8,194.3,500,194.3s304.6,136.4,304.6,304.6S668.3,803.5,500,803.5z"/>
</g>
<g>
	<path class="st1" d="M929.4,498.9H874c-6.4,0-9.7-7.7-5.2-12.3l59.3-60.6c3.2-3.3,4.5-7.9,3.7-12.4
		C892.1,211.5,713.9,58.9,500,58.9c-243,0-440,197-440,440c0,242.8,197.2,440,440,440c239.4,0,434.2-191.3,439.9-429.3
		C940,503.7,935.3,498.9,929.4,498.9z M500,855.7c-197,0-356.8-159.8-356.8-356.8S303,142.1,500,142.1s356.8,159.7,356.8,356.8
		S697.1,855.7,500,855.7z"/>
</g>
</svg>
