<svg id="Layer_1" data-name="Layer 1" xmlns="http://www.w3.org/2000/svg" viewBox="0 0 885.81 885.81"><defs><style>.cls-1{fill:#fbdd79;}.cls-2{fill:#fabf14;}</style></defs><title>sunfuel</title><path class="cls-1" d="M443.59,85.79c-197,0-356.7,159.7-356.7,356.7s159.7,356.7,356.7,356.7,356.8-159.7,356.8-356.7S640.59,85.79,443.59,85.79Zm0,661.3c-168.2,0-304.6-136.4-304.6-304.6s136.4-304.6,304.6-304.6,304.6,136.4,304.6,304.6S611.89,747.09,443.59,747.09Z"/><path class="cls-2" d="M873,442.49h-55.4a7.24,7.24,0,0,1-5.2-12.3l59.3-60.6a14.15,14.15,0,0,0,3.7-12.4c-39.7-202.1-217.9-354.7-431.8-354.7-243,0-440,197-440,440,0,242.8,197.2,440,440,440,239.4,0,434.2-191.3,439.9-429.3A10.48,10.48,0,0,0,873,442.49Zm-429.4,356.8c-197,0-356.8-159.8-356.8-356.8s159.8-356.8,356.8-356.8,356.8,159.7,356.8,356.8S640.69,799.29,443.59,799.29Z"/></svg>