<?xml version="1.0" encoding="utf-8"?>
<!-- Generator: Adobe Illustrator 23.0.0, SVG Export Plug-In . SVG Version: 6.00 Build 0)  -->
<svg version="1.1" xmlns="http://www.w3.org/2000/svg" xmlns:xlink="http://www.w3.org/1999/xlink" x="0px" y="0px"
	 viewBox="0 0 766.63 766.63" style="enable-background:new 0 0 766.63 766.63;" xml:space="preserve">
<style type="text/css">
	.st0{display:none;}
	.st1{display:inline;}
	.st2{fill:#3A3A3A;}
	.st3{fill:none;stroke:#3A3A3A;stroke-miterlimit:10;}
	.st4{fill:none;stroke:#1C1C1C;stroke-miterlimit:10;}
	.st5{display:inline;fill:none;stroke:#3A3A3A;stroke-miterlimit:10;}
	.st6{display:inline;fill:none;stroke:#1C1C1C;stroke-miterlimit:10;}
	.st7{opacity:0.9;fill:#F7BD19;}
	.st8{fill:#FFFFFF;}
	.st9{fill:#F7BD19;}
	.st10{fill:url(#SVGID_1_);}
	.st11{fill:url(#SVGID_2_);}
	.st12{fill:url(#SVGID_3_);}
	.st13{fill:url(#SVGID_4_);}
	.st14{fill:none;stroke:#EFEFEF;stroke-miterlimit:10;}
	.st15{fill:#F9DC79;}
	.st16{opacity:0.8;}
	.st17{fill:url(#SVGID_5_);}
	.st18{fill:url(#SVGID_6_);}
	.st19{fill:url(#SVGID_7_);}
	.st20{fill:url(#SVGID_8_);}
	.st21{fill:url(#SVGID_9_);}
	.st22{fill:url(#SVGID_10_);}
	.st23{fill:url(#SVGID_11_);}
	.st24{fill:url(#SVGID_12_);}
	.st25{fill:url(#SVGID_15_);}
	.st26{fill:#2F3948;}
	.st27{fill:none;stroke:#F7BD19;stroke-width:6;stroke-linecap:round;stroke-linejoin:round;stroke-miterlimit:10;}
	.st28{fill:url(#SVGID_16_);}
	.st29{fill:#191919;}
	.st30{fill:url(#SVGID_17_);}
	.st31{fill:url(#SVGID_18_);}
	.st32{fill:#4D4D4D;}
	.st33{fill:url(#SVGID_19_);}
	.st34{fill:url(#SVGID_20_);}
	.st35{fill:#CCCCCC;}
	.st36{fill:url(#SVGID_21_);}
	.st37{fill:#FABF14;}
	.st38{fill:url(#SVGID_22_);}
	.st39{fill:url(#SVGID_23_);}
	.st40{fill:url(#SVGID_24_);}
	.st41{fill:url(#SVGID_25_);}
	.st42{fill:url(#SVGID_26_);}
	.st43{fill:url(#SVGID_27_);}
	.st44{fill:url(#SVGID_28_);}
	.st45{fill:url(#SVGID_29_);}
	.st46{fill:url(#SVGID_30_);}
	.st47{fill:url(#SVGID_31_);}
	.st48{fill:url(#SVGID_32_);}
	.st49{fill:url(#SVGID_33_);}
	.st50{fill:#333333;}
	.st51{fill:url(#SVGID_34_);}
	.st52{fill:url(#SVGID_35_);}
	.st53{fill:url(#SVGID_36_);}
	.st54{opacity:0.7;fill:url(#SVGID_37_);}
	.st55{fill:url(#SVGID_38_);}
	.st56{fill:url(#SVGID_39_);}
	.st57{fill:url(#SVGID_40_);}
	.st58{fill:#999999;}
	.st59{fill:url(#SVGID_41_);}
	.st60{opacity:0.8;fill:url(#SVGID_42_);}
	.st61{fill:#29ABE2;}
	.st62{fill:url(#SVGID_43_);}
	.st63{fill:url(#SVGID_44_);}
	.st64{fill:url(#SVGID_45_);}
	.st65{fill:url(#SVGID_46_);}
	.st66{fill:url(#SVGID_47_);}
	.st67{fill:url(#SVGID_48_);}
	.st68{fill:url(#SVGID_49_);}
	.st69{fill:url(#SVGID_50_);}
	.st70{opacity:0.7;fill:url(#SVGID_51_);}
	.st71{fill:url(#SVGID_52_);}
	.st72{fill:url(#SVGID_53_);}
	.st73{fill:url(#SVGID_54_);}
	.st74{fill:url(#SVGID_55_);}
	.st75{opacity:0.8;fill:url(#SVGID_56_);}
	.st76{fill:url(#SVGID_57_);}
	.st77{fill:url(#SVGID_58_);}
	.st78{fill:url(#SVGID_59_);}
	.st79{fill:url(#SVGID_60_);}
	.st80{fill:url(#SVGID_61_);}
	.st81{fill:url(#SVGID_62_);}
	.st82{fill:url(#SVGID_63_);}
	.st83{fill:url(#SVGID_64_);}
	.st84{fill:#FFFFFF;stroke:#000000;stroke-miterlimit:10;}
	.st85{fill:#C1272D;}
	.st86{fill:url(#SVGID_65_);}
	.st87{fill:url(#SVGID_66_);}
	.st88{fill:url(#SVGID_67_);}
	.st89{fill:url(#SVGID_68_);}
	.st90{fill:url(#SVGID_69_);}
	.st91{fill:url(#SVGID_70_);}
	.st92{fill:url(#SVGID_71_);}
	.st93{fill:url(#SVGID_72_);}
	.st94{fill:url(#SVGID_73_);}
	.st95{fill:url(#SVGID_74_);}
	.st96{fill:url(#SVGID_75_);}
	.st97{fill:url(#SVGID_76_);}
	.st98{fill:url(#SVGID_77_);}
	.st99{fill:url(#SVGID_78_);}
	.st100{fill:url(#SVGID_79_);}
	.st101{fill:url(#SVGID_80_);}
	.st102{fill:url(#SVGID_81_);}
	.st103{fill:url(#SVGID_82_);}
	.st104{fill:url(#SVGID_83_);}
	.st105{fill:url(#SVGID_84_);}
	.st106{fill:url(#SVGID_85_);}
	.st107{fill:url(#SVGID_86_);}
	.st108{fill:url(#SVGID_87_);}
	.st109{fill:url(#SVGID_88_);}
	.st110{fill:url(#SVGID_89_);}
	.st111{fill:url(#SVGID_90_);}
	.st112{fill:url(#SVGID_91_);}
	.st113{fill:url(#SVGID_92_);}
	.st114{fill:url(#SVGID_93_);}
	.st115{fill:url(#SVGID_94_);}
	.st116{fill:url(#SVGID_95_);}
	.st117{fill:url(#SVGID_96_);}
	.st118{fill:url(#SVGID_97_);}
	.st119{fill:url(#SVGID_98_);}
	.st120{fill:url(#SVGID_99_);}
	.st121{fill:url(#SVGID_100_);}
	.st122{fill:#666666;}
	.st123{fill:none;}
	.st124{fill:url(#SVGID_101_);}
	.st125{fill:url(#SVGID_102_);}
	.st126{fill:url(#SVGID_103_);}
	.st127{fill:url(#SVGID_104_);}
	.st128{fill:url(#SVGID_105_);}
	.st129{fill:url(#SVGID_106_);}
	.st130{fill:url(#SVGID_107_);}
	.st131{fill:url(#SVGID_108_);}
	.st132{fill:url(#SVGID_109_);}
	.st133{opacity:0.7;fill:url(#SVGID_110_);}
	.st134{fill:url(#SVGID_111_);}
	.st135{fill:url(#SVGID_112_);}
	.st136{fill:url(#SVGID_113_);}
	.st137{fill:url(#SVGID_114_);}
	.st138{opacity:0.8;fill:url(#SVGID_115_);}
	.st139{fill:url(#SVGID_116_);}
	.st140{fill:none;stroke:#E6E6E6;stroke-width:0.75;stroke-miterlimit:10;}
	.st141{opacity:0.2;}
	.st142{fill:#232323;}
	.st143{fill:none;stroke:#9CA3AC;stroke-width:2;stroke-miterlimit:10;}
	.st144{fill:#E6E6E6;}
	.st145{fill:url(#SVGID_121_);}
	.st146{opacity:0.5;fill:url(#SVGID_122_);}
	.st147{opacity:0.5;fill:url(#SVGID_123_);}
	.st148{opacity:0.5;fill:url(#SVGID_124_);}
	.st149{opacity:0.5;}
	.st150{fill:url(#SVGID_125_);}
	.st151{fill:url(#SVGID_126_);}
	.st152{fill:url(#SVGID_127_);}
	.st153{fill:url(#SVGID_128_);}
	.st154{fill:url(#SVGID_129_);}
	.st155{fill:url(#SVGID_130_);}
	.st156{fill:url(#SVGID_131_);}
	.st157{fill:url(#SVGID_132_);}
	.st158{fill:url(#SVGID_133_);}
	.st159{fill:url(#SVGID_134_);}
	.st160{fill:url(#SVGID_135_);}
	.st161{fill:url(#SVGID_136_);}
	.st162{fill:url(#SVGID_137_);}
	.st163{fill:url(#SVGID_138_);}
	.st164{fill:url(#SVGID_139_);}
	.st165{fill:url(#SVGID_140_);}
	.st166{fill:url(#SVGID_141_);}
	.st167{fill:url(#SVGID_142_);}
	.st168{fill:url(#SVGID_143_);}
	.st169{fill:url(#SVGID_144_);}
	.st170{fill:url(#SVGID_145_);}
	.st171{fill:url(#SVGID_146_);}
	.st172{fill:url(#SVGID_147_);}
	.st173{fill:url(#SVGID_148_);}
	.st174{fill:url(#SVGID_149_);}
	.st175{fill:url(#SVGID_150_);}
	.st176{fill:url(#SVGID_151_);}
	.st177{fill:url(#SVGID_152_);}
	.st178{fill:url(#SVGID_153_);}
	.st179{fill:url(#SVGID_154_);}
	.st180{fill:none;stroke:#2D2D2D;stroke-width:2;stroke-miterlimit:10;}
	.st181{clip-path:url(#SVGID_162_);}
	.st182{fill:#FBDD79;}
	.st183{fill:#736357;}
	.st184{fill:#534741;}
	.st185{fill:url(#SVGID_163_);}
	.st186{fill:#F2F2F2;}
	.st187{fill:#00B5E4;}
	.st188{fill:url(#SVGID_164_);}
	.st189{fill:url(#SVGID_165_);}
	.st190{fill:url(#SVGID_166_);}
	.st191{fill:url(#SVGID_167_);}
	.st192{fill:url(#SVGID_168_);}
	.st193{fill:url(#SVGID_169_);}
	.st194{fill:url(#SVGID_170_);}
	.st195{fill:url(#SVGID_171_);}
	.st196{fill:url(#SVGID_172_);}
	.st197{fill:url(#SVGID_173_);}
	.st198{fill:url(#SVGID_174_);}
	.st199{fill:url(#SVGID_175_);}
	.st200{fill:url(#SVGID_176_);}
	.st201{fill:url(#SVGID_177_);}
	.st202{fill:url(#SVGID_178_);}
	.st203{fill:url(#SVGID_179_);}
	.st204{fill:url(#SVGID_180_);}
	.st205{fill:url(#SVGID_181_);}
	.st206{fill:url(#SVGID_182_);}
	.st207{fill:url(#SVGID_183_);}
	.st208{fill:url(#SVGID_184_);}
	.st209{fill:url(#SVGID_185_);}
	.st210{fill:url(#SVGID_186_);}
	.st211{fill:url(#SVGID_187_);}
	.st212{fill:url(#SVGID_188_);}
	.st213{fill:url(#SVGID_189_);}
	.st214{fill:url(#SVGID_190_);}
	.st215{fill:url(#SVGID_191_);}
	.st216{fill:url(#SVGID_192_);}
	.st217{fill:url(#SVGID_193_);}
	.st218{fill:url(#SVGID_194_);}
	.st219{fill:url(#SVGID_195_);}
	.st220{fill:url(#SVGID_196_);}
	.st221{fill:url(#SVGID_197_);}
	.st222{fill:url(#SVGID_198_);}
	.st223{fill:url(#SVGID_199_);}
	.st224{fill:url(#SVGID_200_);}
	.st225{fill:url(#SVGID_201_);}
	.st226{fill:url(#SVGID_202_);}
	.st227{fill:url(#SVGID_203_);}
	.st228{fill:url(#SVGID_204_);}
	.st229{fill:url(#SVGID_205_);}
	.st230{fill:url(#XMLID_2_);}
	.st231{fill:url(#XMLID_3_);}
	.st232{fill:url(#XMLID_4_);}
	.st233{fill:url(#XMLID_5_);}
	.st234{fill:url(#XMLID_6_);}
	.st235{fill:url(#XMLID_7_);}
	.st236{fill:url(#XMLID_8_);}
	.st237{fill:url(#XMLID_9_);}
	.st238{fill:url(#XMLID_10_);}
	.st239{fill:url(#XMLID_11_);}
	.st240{fill:url(#XMLID_12_);}
	.st241{fill:url(#XMLID_13_);}
	.st242{fill:url(#SVGID_206_);}
	.st243{fill:url(#SVGID_207_);}
	.st244{fill:url(#SVGID_208_);}
	.st245{fill:url(#SVGID_209_);}
	.st246{fill:url(#SVGID_210_);}
	.st247{fill:url(#SVGID_211_);}
	.st248{fill:url(#SVGID_212_);}
	.st249{fill:url(#SVGID_213_);}
	.st250{fill:url(#SVGID_214_);}
	.st251{fill:url(#SVGID_216_);}
	.st252{fill:url(#SVGID_218_);}
	.st253{fill:url(#SVGID_219_);}
	.st254{fill:#333333;stroke:#999999;stroke-width:2;stroke-linecap:round;stroke-linejoin:round;stroke-miterlimit:10;}
	.st255{fill:#6B6B6B;}
	.st256{fill:#494949;}
	.st257{opacity:0.5;clip-path:url(#SVGID_222_);fill:url(#SVGID_224_);}
	.st258{fill:#565656;}
	.st259{fill:#353535;}
	.st260{fill:#727272;}
	.st261{fill:#282828;}
	.st262{fill:#606060;}
	.st263{fill:#848484;}
	.st264{fill:url(#SVGID_227_);}
	.st265{fill:none;stroke:#CCCCCC;stroke-width:0.75;stroke-linecap:round;stroke-linejoin:round;stroke-miterlimit:10;}
	.st266{fill:none;stroke:#999999;stroke-linecap:round;stroke-linejoin:round;stroke-miterlimit:10;}
	.st267{opacity:0.5;clip-path:url(#SVGID_230_);fill:url(#SVGID_231_);}
	.st268{fill:url(#SVGID_233_);}
	.st269{fill:url(#SVGID_234_);}
	.st270{fill:url(#SVGID_235_);}
	.st271{fill:url(#SVGID_236_);}
	.st272{fill:url(#SVGID_237_);}
	.st273{fill:url(#SVGID_238_);}
	.st274{fill:url(#SVGID_239_);}
	.st275{fill:url(#SVGID_240_);}
	.st276{fill:url(#SVGID_241_);}
	.st277{fill:url(#SVGID_242_);}
	.st278{fill:url(#SVGID_243_);}
	.st279{fill:url(#SVGID_244_);}
	.st280{fill:url(#SVGID_245_);}
	.st281{fill:url(#SVGID_246_);}
	.st282{fill:url(#SVGID_247_);}
	.st283{fill:url(#SVGID_248_);}
	.st284{fill:url(#SVGID_249_);}
	.st285{fill:url(#SVGID_250_);}
	.st286{fill:url(#SVGID_251_);}
	.st287{fill:url(#SVGID_252_);}
	.st288{fill:url(#SVGID_253_);}
	.st289{fill:url(#SVGID_254_);}
	.st290{fill:url(#SVGID_255_);}
	.st291{fill:url(#SVGID_256_);}
	.st292{fill:url(#SVGID_257_);}
	.st293{fill:none;stroke:#52489D;stroke-width:90;stroke-miterlimit:10;}
	.st294{fill:url(#SVGID_260_);}
	.st295{fill:url(#SVGID_261_);}
	.st296{fill:url(#SVGID_262_);}
	.st297{fill:url(#SVGID_263_);}
	.st298{fill:url(#SVGID_264_);}
	.st299{fill:url(#SVGID_265_);}
</style>
<g id="Layer_2">
</g>
<g id="Layer_6" class="st0">
</g>
<g id="Layer_7" class="st0">
</g>
<g id="Layer_5">
</g>
<g id="Layer_1">
</g>
<g id="Layer_3">
</g>
<g id="Layer_4">
	<g>
		<linearGradient id="SVGID_1_" gradientUnits="userSpaceOnUse" x1="677.5298" y1="739.1735" x2="68.6479" y2="412.6223">
			<stop  offset="0" style="stop-color:#29ABE2"/>
			<stop  offset="0.1591" style="stop-color:#29A7DF"/>
			<stop  offset="0.333" style="stop-color:#2A99D6"/>
			<stop  offset="0.5139" style="stop-color:#2B84C8"/>
			<stop  offset="0.6997" style="stop-color:#2C65B4"/>
			<stop  offset="0.8875" style="stop-color:#2D3E9B"/>
			<stop  offset="0.943" style="stop-color:#2E3192"/>
		</linearGradient>
		<path class="st10" d="M679.41,553.64c-14.92,25.93-33.2,49.77-54.62,71.19c-31.35,31.35-67.87,55.96-108.54,73.17
			c-42.13,17.82-86.86,26.85-132.94,26.85c-46.08,0-90.81-9.03-132.94-26.85c-40.67-17.21-77.19-41.82-108.54-73.17
			c-21.42-21.42-39.7-45.26-54.62-71.19l16.67-69.82l61.46,24.89c43.49,75.33,124.91,126.14,217.97,126.14
			s174.48-50.81,217.97-126.14l9.4,65.64L679.41,553.64z"/>
		<linearGradient id="SVGID_2_" gradientUnits="userSpaceOnUse" x1="500.787" y1="78.7375" x2="677.6689" y2="576.5012">
			<stop  offset="0.3349" style="stop-color:#8964AB"/>
			<stop  offset="0.601" style="stop-color:#744AA2"/>
			<stop  offset="1" style="stop-color:#4E1D92"/>
		</linearGradient>
		<path class="st11" d="M382.74,41.78c29.92-0.04,59.7,3.87,88.96,11.71c42.82,11.47,82.4,30.8,117.64,57.41
			c36.5,27.58,66.68,61.8,89.72,101.7c23.04,39.91,37.58,83.16,43.22,128.55c5.43,43.83,2.38,87.76-9.1,130.58
			c-7.84,29.26-19.35,57.01-34.34,82.9l-68.8,20.47l-9.17-65.67c43.49-75.33,46.79-171.25,0.26-251.84
			c-46.53-80.59-131.24-125.7-218.23-125.7l52.15-40.96L382.74,41.78z"/>
		<linearGradient id="SVGID_3_" gradientUnits="userSpaceOnUse" x1="-26.3478" y1="492.7135" x2="404.4088" y2="92.7252">
			<stop  offset="0" style="stop-color:#00AFA6"/>
			<stop  offset="0.1711" style="stop-color:#08A093"/>
			<stop  offset="0.7306" style="stop-color:#1F745A"/>
			<stop  offset="1" style="stop-color:#286344"/>
		</linearGradient>
		<path class="st12" d="M87.79,554.64c-15-25.89-26.5-53.64-34.34-82.9c-11.47-42.82-14.53-86.76-9.1-130.58
			c5.63-45.4,20.18-88.65,43.22-128.55c23.04-39.91,53.23-74.13,89.72-101.7c35.24-26.62,74.81-45.94,117.64-57.41
			c29.26-7.84,59.05-11.75,88.96-11.71l52.13,49.35l-52.29,40.78c-86.98,0-171.7,45.11-218.23,125.7s-43.24,176.51,0.26,251.84
			l-61.55-24.68L87.79,554.64z"/>
		<g>
			<path class="st144" d="M256.47,667.27l5.12-10.73l-13.73-6.55l-5.12,10.73l-4.37-2.08l12.36-25.9l4.37,2.08l-5.37,11.25
				l13.73,6.55l5.37-11.25l4.37,2.08l-12.36,25.9L256.47,667.27z"/>
			<path class="st144" d="M278.55,669.25l-4.68,5.25l-4.77-1.62l21.21-23.1l4.7,1.59l2.66,31.2l-4.89-1.66l-0.52-7.02L278.55,669.25
				z M290.86,655.42l-9.22,10.33l10.25,3.48L290.86,655.42z"/>
			<path class="st144" d="M320.78,678.98c-0.41-0.05-0.85-0.14-1.29-0.24l-6.65-1.44l-1.84,8.45l-4.73-1.03l6.09-28.05l11.38,2.47
				c7.17,1.56,10.54,5.94,9.22,12.03c-0.97,4.49-3.75,7.2-7.78,7.83l4.26,10.74l-5.37-1.17L320.78,678.98z M320.41,674.5
				c4.33,0.94,7.21-0.37,8.04-4.17c0.8-3.69-1.3-5.99-5.63-6.93l-6.65-1.44l-2.41,11.1L320.41,674.5z"/>
			<path class="st144" d="M354.86,664.03c8.57,0.85,14.18,7.46,13.36,15.74c-0.81,8.24-7.65,13.67-16.3,12.81l-11.59-1.14
				l2.82-28.56L354.86,664.03z M345.58,687.59l7.02,0.69c5.55,0.55,10.2-3.15,10.77-8.95c0.58-5.83-3.38-10.43-9.01-10.98
				l-6.81-0.67L345.58,687.59z"/>
			<path class="st144" d="M401.44,693.71l-7.58-22.13l-6.1,22.61l-5,0.17l-10.51-28.35l5.2-0.18l7.78,23.07l6.11-23.51l4.75-0.21
				l7.78,23.07l6.11-23.55l5-0.18l-8.58,29.01L401.44,693.71z"/>
			<path class="st144" d="M425.55,684.85l-1.67,6.84l-4.98,0.81l7.88-30.37l4.9-0.8l17.01,26.3l-5.1,0.83l-3.76-5.95L425.55,684.85z
				 M429.92,666.86l-3.29,13.46l10.68-1.74L429.92,666.86z"/>
			<path class="st144" d="M467.38,673.61c-0.38,0.15-0.82,0.27-1.25,0.4l-6.55,1.85l2.35,8.33l-4.66,1.31l-7.8-27.62l11.21-3.16
				c7.06-1.99,12.1,0.29,13.79,6.29c1.25,4.42,0.08,8.12-3.19,10.57l8.8,7.48l-5.29,1.49L467.38,673.61z M464.95,669.82
				c4.26-1.2,6.2-3.71,5.14-7.46c-1.02-3.63-3.96-4.68-8.22-3.47l-6.55,1.85l3.09,10.93L464.95,669.82z"/>
			<path class="st144" d="M485.75,650.98l2.9,7.19l13.01-5.24l1.62,4.03l-13.01,5.24l2.96,7.34l14.99-6.04l1.62,4.03l-19.48,7.84
				l-10.72-26.63l19.02-7.66l1.62,4.03L485.75,650.98z"/>
		</g>
		<g>
			<path class="st144" d="M591.15,163.47l-4.45,0.81c-0.1-3.07-1.45-6.09-3.65-8c-4.34-3.76-10.65-3.37-14.35,0.91
				c-3.71,4.28-3.22,10.61,1.11,14.37c2.17,1.88,5.26,2.82,8.27,2.66l0.07,4.3c-4.08,0.26-8.42-1.06-11.49-3.71
				c-6.35-5.51-7.12-14.58-1.72-20.81c5.34-6.17,14.44-6.58,20.86-1.03C588.88,155.64,590.85,159.57,591.15,163.47z"/>
			<path class="st144" d="M607.08,194.83c-5.99,5.6-15.17,5.08-21.02-1.18c-5.85-6.26-5.74-15.46,0.26-21.05
				c6.02-5.63,15.11-5.02,20.96,1.24S613.07,189.23,607.08,194.83z M589.67,176.19c-4.17,3.89-4.24,10.42-0.41,14.52
				s10.26,4.38,14.43,0.49c4.17-3.89,4.27-10.27,0.43-14.38C600.27,172.69,593.84,172.3,589.67,176.19z"/>
			<path class="st144" d="M613.96,228.13l17.31-12.66l-20.25,3.54l-1.86-2.55l9.58-18.19l-17.33,12.63l-2.68-3.68l23.2-16.9
				l3.38,4.64l-9.83,18.88l20.96-3.6l3.35,4.61l-23.2,16.9L613.96,228.13z"/>
			<path class="st144" d="M632.01,259.1l18.77-10.35l-20.53,0.94l-1.52-2.77l11.81-16.82l-18.79,10.32l-2.19-3.99l25.15-13.81
				l2.76,5.03l-12.15,17.47l21.25-0.91l2.74,5l-25.15,13.81L632.01,259.1z"/>
			<path class="st144" d="M656.72,286.61c-6.96,2.81-12.98,0.17-15.89-7.02c-2.91-7.18-0.43-13.32,6.52-16.13l15.58-6.31l1.81,4.49
				l-15.58,6.31c-4.49,1.82-6.06,5.68-4.29,10.05c1.75,4.33,5.51,5.96,10.03,4.13l15.58-6.31l1.81,4.48L656.72,286.61z"/>
			<path class="st144" d="M652.94,315.73l15.68-20.29L648.8,301l-1.31-4.66l27.63-7.77l1.29,4.58l-15.7,20.38l19.86-5.58l1.29,4.58
				l-27.63,7.77L652.94,315.73z"/>
			<path class="st144" d="M655.56,327.6l28.17-5.51l0.93,4.75l-28.17,5.51L655.56,327.6z"/>
			<path class="st144" d="M683.42,347.47l-24.16,3.07l-0.61-4.8l24.16-3.07l-1.14-8.99l4.31-0.55l2.9,22.82l-4.31,0.55
				L683.42,347.47z"/>
			<path class="st144" d="M661.05,374.98l-0.18-4.79l9.38-0.36l18.89-11.43l0.19,4.88L675.67,372l14.28,7.5l0.19,4.92l-19.53-9.8
				L661.05,374.98z"/>
		</g>
		<g>
			<path class="st144" d="M85.26,323.46l3.88,2.68c-2.37,2.77-3.65,5.71-4,7.86c-0.46,2.79,0.29,4.79,2.19,5.1
				c6.19,1.02,5.4-14.82,15.59-13.09c5.06,0.83,7.44,5.8,6.41,12.03c-0.74,4.45-3.25,8.36-6.4,10.83l-3.79-2.75
				c3.15-2.47,5.21-5.87,5.71-8.91c0.55-3.32-0.38-5.51-2.56-5.87c-6.31-1.04-5.32,14.83-15.39,13.17c-4.85-0.8-7.2-5.47-6.18-11.62
				C81.32,329.21,83.09,325.8,85.26,323.46z"/>
			<path class="st144" d="M105.34,291.98c7.91,2.16,12.29,10.24,10.04,18.5c-2.25,8.27-10.13,13-18.04,10.84
				c-7.95-2.17-12.21-10.22-9.96-18.48C89.63,294.58,97.43,289.82,105.34,291.98z M98.63,316.58c5.5,1.5,11.09-1.86,12.57-7.28
				c1.48-5.42-1.66-11.03-7.16-12.53c-5.5-1.5-10.98,1.77-12.46,7.18C90.09,309.41,93.13,315.08,98.63,316.58z"/>
			<path class="st144" d="M99.83,278.61l7.73,2.96l4.66-12.17l4.02,1.54l-4.66,12.17l10.99,4.21l-1.73,4.52l-26.8-10.26l6.89-17.99
				l4.04,1.59L99.83,278.61z"/>
			<path class="st144" d="M112.07,250.19L134,260.77l-2.1,4.36l-21.93-10.59l-3.94,8.16l-3.91-1.89l10-20.72l3.91,1.89
				L112.07,250.19z"/>
			<path class="st144" d="M152.07,229.25l-22.57-6.16l15.28,17.75l-2.66,4.23l-29.35-7.23l2.77-4.41l23.46,6.53l-16.02-18.27
				l2.5-4.05l23.46,6.53l-16.05-18.29l2.66-4.23l19.18,23.4L152.07,229.25z"/>
			<path class="st144" d="M157.66,210.25l3.32,6.21l-3.17,3.93l-14.39-27.88l3.11-3.86l30.22,8.25l-3.24,4.02l-6.77-1.93
				L157.66,210.25z M148.91,193.92l6.53,12.22l6.8-8.43L148.91,193.92z"/>
			<path class="st144" d="M181.68,179.71c-0.26,0.32-0.58,0.64-0.9,0.96l-4.8,4.83l6.13,6.1l-3.41,3.43l-20.35-20.24l8.21-8.25
				c5.18-5.2,10.68-5.68,15.1-1.29c3.26,3.24,4.05,7.03,2.41,10.78l11.34,2.2l-3.88,3.9L181.68,179.71z M177.7,177.61
				c3.12-3.14,3.58-6.27,0.82-9.02c-2.67-2.66-5.75-2.13-8.87,1.01l-4.8,4.83l8.05,8.01L177.7,177.61z"/>
			<path class="st144" d="M187.5,153.08l4.92,5.98l10.83-8.91l2.76,3.36l-10.83,8.91l5.03,6.11l12.47-10.26l2.76,3.36l-16.21,13.34
				L181,152.8l15.83-13.02l2.76,3.36L187.5,153.08z"/>
		</g>
	</g>
</g>
<g id="Layer_8" class="st0">
</g>
</svg>
