<?xml version="1.0" encoding="utf-8"?>
<!-- Generator: Adobe Illustrator 23.0.0, SVG Export Plug-In . SVG Version: 6.00 Build 0)  -->
<svg version="1.1" xmlns="http://www.w3.org/2000/svg" xmlns:xlink="http://www.w3.org/1999/xlink" x="0px" y="0px"
	 viewBox="0 0 766.63 766.63" style="enable-background:new 0 0 766.63 766.63;" xml:space="preserve">
<style type="text/css">
	.st0{display:none;}
	.st1{display:inline;}
	.st2{fill:#3A3A3A;}
	.st3{fill:none;stroke:#3A3A3A;stroke-miterlimit:10;}
	.st4{fill:none;stroke:#1C1C1C;stroke-miterlimit:10;}
	.st5{display:inline;fill:none;stroke:#3A3A3A;stroke-miterlimit:10;}
	.st6{display:inline;fill:none;stroke:#1C1C1C;stroke-miterlimit:10;}
	.st7{opacity:0.9;fill:#F7BD19;}
	.st8{fill:#FFFFFF;}
	.st9{fill:#F7BD19;}
	.st10{fill:url(#SVGID_1_);}
	.st11{fill:url(#SVGID_2_);}
	.st12{fill:url(#SVGID_3_);}
	.st13{fill:url(#SVGID_4_);}
	.st14{fill:none;stroke:#EFEFEF;stroke-miterlimit:10;}
	.st15{fill:#F9DC79;}
	.st16{opacity:0.8;}
	.st17{fill:url(#SVGID_5_);}
	.st18{fill:url(#SVGID_6_);}
	.st19{fill:url(#SVGID_7_);}
	.st20{fill:url(#SVGID_8_);}
	.st21{fill:url(#SVGID_9_);}
	.st22{fill:url(#SVGID_10_);}
	.st23{fill:url(#SVGID_11_);}
	.st24{fill:url(#SVGID_12_);}
	.st25{fill:url(#SVGID_15_);}
	.st26{fill:#2F3948;}
	.st27{fill:none;stroke:#F7BD19;stroke-width:6;stroke-linecap:round;stroke-linejoin:round;stroke-miterlimit:10;}
	.st28{fill:url(#SVGID_16_);}
	.st29{fill:#191919;}
	.st30{fill:url(#SVGID_17_);}
	.st31{fill:url(#SVGID_18_);}
	.st32{fill:#4D4D4D;}
	.st33{fill:url(#SVGID_19_);}
	.st34{fill:url(#SVGID_20_);}
	.st35{fill:#CCCCCC;}
	.st36{fill:url(#SVGID_21_);}
	.st37{fill:#FABF14;}
	.st38{fill:url(#SVGID_22_);}
	.st39{fill:url(#SVGID_23_);}
	.st40{fill:url(#SVGID_24_);}
	.st41{fill:url(#SVGID_25_);}
	.st42{fill:url(#SVGID_26_);}
	.st43{fill:url(#SVGID_27_);}
	.st44{fill:url(#SVGID_28_);}
	.st45{fill:url(#SVGID_29_);}
	.st46{fill:url(#SVGID_30_);}
	.st47{fill:url(#SVGID_31_);}
	.st48{fill:url(#SVGID_32_);}
	.st49{fill:url(#SVGID_33_);}
	.st50{fill:#333333;}
	.st51{fill:url(#SVGID_34_);}
	.st52{fill:url(#SVGID_35_);}
	.st53{fill:url(#SVGID_36_);}
	.st54{opacity:0.7;fill:url(#SVGID_37_);}
	.st55{fill:url(#SVGID_38_);}
	.st56{fill:url(#SVGID_39_);}
	.st57{fill:url(#SVGID_40_);}
	.st58{fill:#999999;}
	.st59{fill:url(#SVGID_41_);}
	.st60{opacity:0.8;fill:url(#SVGID_42_);}
	.st61{fill:#29ABE2;}
	.st62{fill:url(#SVGID_43_);}
	.st63{fill:url(#SVGID_44_);}
	.st64{fill:url(#SVGID_45_);}
	.st65{fill:url(#SVGID_46_);}
	.st66{fill:url(#SVGID_47_);}
	.st67{fill:url(#SVGID_48_);}
	.st68{fill:url(#SVGID_49_);}
	.st69{fill:url(#SVGID_50_);}
	.st70{opacity:0.7;fill:url(#SVGID_51_);}
	.st71{fill:url(#SVGID_52_);}
	.st72{fill:url(#SVGID_53_);}
	.st73{fill:url(#SVGID_54_);}
	.st74{fill:url(#SVGID_55_);}
	.st75{opacity:0.8;fill:url(#SVGID_56_);}
	.st76{fill:url(#SVGID_57_);}
	.st77{fill:url(#SVGID_58_);}
	.st78{fill:url(#SVGID_59_);}
	.st79{fill:url(#SVGID_60_);}
	.st80{fill:url(#SVGID_61_);}
	.st81{fill:url(#SVGID_62_);}
	.st82{fill:url(#SVGID_63_);}
	.st83{fill:url(#SVGID_64_);}
	.st84{fill:#FFFFFF;stroke:#000000;stroke-miterlimit:10;}
	.st85{fill:#C1272D;}
	.st86{fill:url(#SVGID_65_);}
	.st87{fill:url(#SVGID_66_);}
	.st88{fill:url(#SVGID_67_);}
	.st89{fill:url(#SVGID_68_);}
	.st90{fill:url(#SVGID_69_);}
	.st91{fill:url(#SVGID_70_);}
	.st92{fill:url(#SVGID_71_);}
	.st93{fill:url(#SVGID_72_);}
	.st94{fill:url(#SVGID_73_);}
	.st95{fill:url(#SVGID_74_);}
	.st96{fill:url(#SVGID_75_);}
	.st97{fill:url(#SVGID_76_);}
	.st98{fill:url(#SVGID_77_);}
	.st99{fill:url(#SVGID_78_);}
	.st100{fill:url(#SVGID_79_);}
	.st101{fill:url(#SVGID_80_);}
	.st102{fill:url(#SVGID_81_);}
	.st103{fill:url(#SVGID_82_);}
	.st104{fill:url(#SVGID_83_);}
	.st105{fill:url(#SVGID_84_);}
	.st106{fill:url(#SVGID_85_);}
	.st107{fill:url(#SVGID_86_);}
	.st108{fill:url(#SVGID_87_);}
	.st109{fill:url(#SVGID_88_);}
	.st110{fill:url(#SVGID_89_);}
	.st111{fill:url(#SVGID_90_);}
	.st112{fill:url(#SVGID_91_);}
	.st113{fill:url(#SVGID_92_);}
	.st114{fill:url(#SVGID_93_);}
	.st115{fill:url(#SVGID_94_);}
	.st116{fill:url(#SVGID_95_);}
	.st117{fill:url(#SVGID_96_);}
	.st118{fill:url(#SVGID_97_);}
	.st119{fill:url(#SVGID_98_);}
	.st120{fill:url(#SVGID_99_);}
	.st121{fill:url(#SVGID_100_);}
	.st122{fill:#666666;}
	.st123{fill:none;}
	.st124{fill:url(#SVGID_101_);}
	.st125{fill:url(#SVGID_102_);}
	.st126{fill:url(#SVGID_103_);}
	.st127{fill:url(#SVGID_104_);}
	.st128{fill:url(#SVGID_105_);}
	.st129{fill:url(#SVGID_106_);}
	.st130{fill:url(#SVGID_107_);}
	.st131{fill:url(#SVGID_108_);}
	.st132{fill:url(#SVGID_109_);}
	.st133{opacity:0.7;fill:url(#SVGID_110_);}
	.st134{fill:url(#SVGID_111_);}
	.st135{fill:url(#SVGID_112_);}
	.st136{fill:url(#SVGID_113_);}
	.st137{fill:url(#SVGID_114_);}
	.st138{opacity:0.8;fill:url(#SVGID_115_);}
	.st139{fill:url(#SVGID_116_);}
	.st140{fill:none;stroke:#E6E6E6;stroke-width:0.75;stroke-miterlimit:10;}
	.st141{opacity:0.2;}
	.st142{fill:#232323;}
	.st143{fill:none;stroke:#9CA3AC;stroke-width:2;stroke-miterlimit:10;}
	.st144{fill:#E6E6E6;}
	.st145{fill:url(#SVGID_121_);}
	.st146{opacity:0.5;fill:url(#SVGID_122_);}
	.st147{opacity:0.5;fill:url(#SVGID_123_);}
	.st148{opacity:0.5;fill:url(#SVGID_124_);}
	.st149{opacity:0.5;}
	.st150{fill:url(#SVGID_125_);}
	.st151{fill:url(#SVGID_126_);}
	.st152{fill:url(#SVGID_127_);}
	.st153{fill:url(#SVGID_128_);}
	.st154{fill:url(#SVGID_129_);}
	.st155{fill:url(#SVGID_130_);}
	.st156{fill:url(#SVGID_131_);}
	.st157{fill:url(#SVGID_132_);}
	.st158{fill:url(#SVGID_133_);}
	.st159{fill:url(#SVGID_134_);}
	.st160{fill:url(#SVGID_135_);}
	.st161{fill:url(#SVGID_136_);}
	.st162{fill:url(#SVGID_137_);}
	.st163{fill:url(#SVGID_138_);}
	.st164{fill:url(#SVGID_139_);}
	.st165{fill:url(#SVGID_140_);}
	.st166{fill:url(#SVGID_141_);}
	.st167{fill:url(#SVGID_142_);}
	.st168{fill:url(#SVGID_143_);}
	.st169{fill:url(#SVGID_144_);}
	.st170{fill:url(#SVGID_145_);}
	.st171{fill:url(#SVGID_146_);}
	.st172{fill:url(#SVGID_147_);}
	.st173{fill:url(#SVGID_148_);}
	.st174{fill:url(#SVGID_149_);}
	.st175{fill:url(#SVGID_150_);}
	.st176{fill:url(#SVGID_151_);}
	.st177{fill:url(#SVGID_152_);}
	.st178{fill:url(#SVGID_153_);}
	.st179{fill:url(#SVGID_154_);}
	.st180{fill:none;stroke:#2D2D2D;stroke-width:2;stroke-miterlimit:10;}
	.st181{clip-path:url(#SVGID_162_);}
	.st182{fill:#FBDD79;}
	.st183{fill:#736357;}
	.st184{fill:#534741;}
	.st185{fill:url(#SVGID_163_);}
	.st186{fill:#F2F2F2;}
	.st187{fill:#00B5E4;}
	.st188{fill:url(#SVGID_164_);}
	.st189{fill:url(#SVGID_165_);}
	.st190{fill:url(#SVGID_166_);}
	.st191{fill:url(#SVGID_167_);}
	.st192{fill:url(#SVGID_168_);}
	.st193{fill:url(#SVGID_169_);}
	.st194{fill:url(#SVGID_170_);}
	.st195{fill:url(#SVGID_171_);}
	.st196{fill:url(#SVGID_172_);}
	.st197{fill:url(#SVGID_173_);}
	.st198{fill:url(#SVGID_174_);}
	.st199{fill:url(#SVGID_175_);}
	.st200{fill:url(#SVGID_176_);}
	.st201{fill:url(#SVGID_177_);}
	.st202{fill:url(#SVGID_178_);}
	.st203{fill:url(#SVGID_179_);}
	.st204{fill:url(#SVGID_180_);}
	.st205{fill:url(#SVGID_181_);}
	.st206{fill:url(#SVGID_182_);}
	.st207{fill:url(#SVGID_183_);}
	.st208{fill:url(#SVGID_184_);}
	.st209{fill:url(#SVGID_185_);}
	.st210{fill:url(#SVGID_186_);}
	.st211{fill:url(#SVGID_187_);}
	.st212{fill:url(#SVGID_188_);}
	.st213{fill:url(#SVGID_189_);}
	.st214{fill:url(#SVGID_190_);}
	.st215{fill:url(#SVGID_191_);}
	.st216{fill:url(#SVGID_192_);}
	.st217{fill:url(#SVGID_193_);}
	.st218{fill:url(#SVGID_194_);}
	.st219{fill:url(#SVGID_195_);}
	.st220{fill:url(#SVGID_196_);}
	.st221{fill:url(#SVGID_197_);}
	.st222{fill:url(#SVGID_198_);}
	.st223{fill:url(#SVGID_199_);}
	.st224{fill:url(#SVGID_200_);}
	.st225{fill:url(#SVGID_201_);}
	.st226{fill:url(#SVGID_202_);}
	.st227{fill:url(#SVGID_203_);}
	.st228{fill:url(#SVGID_204_);}
	.st229{fill:url(#SVGID_205_);}
	.st230{fill:url(#XMLID_2_);}
	.st231{fill:url(#XMLID_3_);}
	.st232{fill:url(#XMLID_4_);}
	.st233{fill:url(#XMLID_5_);}
	.st234{fill:url(#XMLID_6_);}
	.st235{fill:url(#XMLID_7_);}
	.st236{fill:url(#XMLID_8_);}
	.st237{fill:url(#XMLID_9_);}
	.st238{fill:url(#XMLID_10_);}
	.st239{fill:url(#XMLID_11_);}
	.st240{fill:url(#XMLID_12_);}
	.st241{fill:url(#XMLID_13_);}
	.st242{fill:url(#SVGID_206_);}
	.st243{fill:url(#SVGID_207_);}
	.st244{fill:url(#SVGID_208_);}
	.st245{fill:url(#SVGID_209_);}
	.st246{fill:url(#SVGID_210_);}
	.st247{fill:url(#SVGID_211_);}
	.st248{fill:url(#SVGID_212_);}
	.st249{fill:url(#SVGID_213_);}
	.st250{fill:url(#SVGID_214_);}
	.st251{fill:url(#SVGID_216_);}
	.st252{fill:url(#SVGID_218_);}
	.st253{fill:url(#SVGID_219_);}
	.st254{fill:#333333;stroke:#999999;stroke-width:2;stroke-linecap:round;stroke-linejoin:round;stroke-miterlimit:10;}
	.st255{fill:#6B6B6B;}
	.st256{fill:#494949;}
	.st257{opacity:0.5;clip-path:url(#SVGID_222_);fill:url(#SVGID_224_);}
	.st258{fill:#565656;}
	.st259{fill:#353535;}
	.st260{fill:#727272;}
	.st261{fill:#282828;}
	.st262{fill:#606060;}
	.st263{fill:#848484;}
	.st264{fill:url(#SVGID_227_);}
	.st265{fill:none;stroke:#CCCCCC;stroke-width:0.75;stroke-linecap:round;stroke-linejoin:round;stroke-miterlimit:10;}
	.st266{fill:none;stroke:#999999;stroke-linecap:round;stroke-linejoin:round;stroke-miterlimit:10;}
	.st267{opacity:0.5;clip-path:url(#SVGID_230_);fill:url(#SVGID_231_);}
	.st268{fill:url(#SVGID_233_);}
	.st269{fill:url(#SVGID_234_);}
	.st270{fill:url(#SVGID_235_);}
	.st271{fill:url(#SVGID_236_);}
	.st272{fill:url(#SVGID_237_);}
	.st273{fill:url(#SVGID_238_);}
	.st274{fill:url(#SVGID_239_);}
	.st275{fill:url(#SVGID_240_);}
	.st276{fill:url(#SVGID_241_);}
	.st277{fill:url(#SVGID_242_);}
	.st278{fill:url(#SVGID_243_);}
	.st279{fill:url(#SVGID_244_);}
	.st280{fill:url(#SVGID_245_);}
	.st281{fill:url(#SVGID_246_);}
	.st282{fill:url(#SVGID_247_);}
	.st283{fill:url(#SVGID_248_);}
	.st284{fill:url(#SVGID_249_);}
	.st285{fill:url(#SVGID_250_);}
	.st286{fill:url(#SVGID_251_);}
	.st287{fill:url(#SVGID_252_);}
	.st288{fill:url(#SVGID_253_);}
	.st289{fill:url(#SVGID_254_);}
	.st290{fill:url(#SVGID_255_);}
	.st291{fill:url(#SVGID_256_);}
	.st292{fill:url(#SVGID_257_);}
	.st293{fill:none;stroke:#52489D;stroke-width:90;stroke-miterlimit:10;}
	.st294{fill:url(#SVGID_260_);}
	.st295{fill:url(#SVGID_261_);}
	.st296{fill:url(#SVGID_262_);}
	.st297{fill:url(#SVGID_263_);}
	.st298{fill:url(#SVGID_264_);}
	.st299{fill:url(#SVGID_265_);}
</style>
<g id="Layer_2">
</g>
<g id="Layer_6" class="st0">
</g>
<g id="Layer_7" class="st0">
</g>
<g id="Layer_5">
</g>
<g id="Layer_1">
</g>
<g id="Layer_3">
</g>
<g id="Layer_4">
	<g>
		<path class="st144" d="M157.95,384.34c3.75,0.32,6.31,2.5,6.31,6.02c0,4.2-3.17,7.11-8.17,7.11c-2.75,0-5.64-0.96-7.56-2.43
			l1.57-3.07c1.6,1.5,3.68,2.34,5.73,2.34c2.98,0,4.71-1.54,4.71-3.84c0-2.43-1.76-3.68-4.74-3.68h-3.11v-2.21l5.83-6.28h-8.97
			v-3.36h13.64v2.37l-6.41,6.92L157.95,384.34z"/>
		<path class="st144" d="M183.57,376.42l-1.47,2.85c-1.38-0.9-3.27-1.41-4.96-1.41c-4.36,0-6.37,3.27-6.25,8.1
			c1.19-2.08,3.3-3.17,6.12-3.17c4.48,0,7.21,2.79,7.21,7.14c0,4.64-3.11,7.53-7.88,7.53c-5.67,0-9.13-4.04-9.13-10.92
			c0-7.14,3.75-11.82,9.67-11.82C179.09,374.73,181.75,375.4,183.57,376.42z M171.5,390.04c-0.03,1.95,1.41,4.16,4.64,4.16
			c2.72,0,4.55-1.57,4.55-4.29c0-2.56-1.67-4.13-4.39-4.13C173.26,385.78,171.47,387.73,171.5,390.04z"/>
		<path class="st144" d="M205.96,386.1c0,7.27-3.4,11.31-9.51,11.31c-6.15,0-9.54-4.04-9.54-11.31s3.4-11.31,9.54-11.31
			C202.57,374.79,205.96,378.83,205.96,386.1z M190.78,386.1c0,5.67,1.89,8.33,5.67,8.33c3.75,0,5.64-2.66,5.64-8.33
			c0-5.7-1.89-8.33-5.64-8.33C192.67,377.77,190.78,380.4,190.78,386.1z"/>
		<path class="st144" d="M217.52,375.05c0,2.02-1.67,3.68-3.72,3.68c-2.02,0-3.72-1.67-3.72-3.68s1.67-3.68,3.72-3.68
			S217.52,373.03,217.52,375.05z M211.66,375.05c0,1.09,0.96,2.02,2.15,2.02s2.15-0.93,2.15-2.02s-0.96-2.05-2.15-2.05
			S211.66,373.96,211.66,375.05z"/>
		<path class="st144" d="M248.23,378.25l-2.21,2.75c-1.63-1.76-3.97-2.85-6.25-2.85c-4.48,0-8.01,3.46-8.01,7.88
			c0,4.42,3.52,7.91,8.01,7.91c2.24,0,4.55-1.02,6.25-2.66l2.24,2.5c-2.27,2.24-5.51,3.68-8.68,3.68c-6.57,0-11.66-4.96-11.66-11.4
			c0-6.37,5.16-11.27,11.79-11.27C242.89,374.79,246.06,376.1,248.23,378.25z"/>
		<path class="st144" d="M267.77,397.31v-9.29h-11.88v9.29h-3.78v-22.42h3.78v9.74h11.88v-9.74h3.78v22.42H267.77z"/>
		<path class="st144" d="M280.61,392.25l-2.15,5.06h-3.94l9.9-22.42h3.88l9.8,22.42h-4.04l-2.15-5.06H280.61z M286.25,378.92
			l-4.23,9.96h8.46L286.25,378.92z"/>
		<path class="st144" d="M311.2,390.52c-0.32,0.03-0.67,0.03-1.02,0.03h-5.32v6.76h-3.78v-22.42h9.1c5.73,0,9.03,2.79,9.03,7.66
			c0,3.59-1.67,6.12-4.64,7.27l5.03,7.49h-4.29L311.2,390.52z M310.17,387.15c3.46,0,5.44-1.47,5.44-4.52
			c0-2.95-1.99-4.36-5.44-4.36h-5.32v8.87H310.17z"/>
		<path class="st144" d="M342.87,386.29v8.26c-2.27,1.73-5.64,2.92-8.71,2.92c-6.63,0-11.79-4.96-11.79-11.37
			s5.22-11.31,12.01-11.31c3.2,0,6.41,1.22,8.62,3.14l-2.15,2.79c-1.73-1.6-4.13-2.56-6.47-2.56c-4.58,0-8.17,3.49-8.17,7.94
			c0,4.48,3.62,7.98,8.2,7.98c1.67,0,3.56-0.58,5.16-1.54v-6.25H342.87z"/>
		<path class="st144" d="M348.22,397.31v-22.42H352v22.42H348.22z"/>
		<path class="st144" d="M373.61,397.31l-11.95-16.08v16.08h-3.78v-22.42h3.72L373.61,391v-16.11h3.72v22.42H373.61z"/>
		<path class="st144" d="M401.89,386.29v8.26c-2.27,1.73-5.64,2.92-8.71,2.92c-6.63,0-11.79-4.96-11.79-11.37
			s5.22-11.31,12.01-11.31c3.2,0,6.41,1.22,8.62,3.14l-2.15,2.79c-1.73-1.6-4.13-2.56-6.47-2.56c-4.58,0-8.17,3.49-8.17,7.94
			c0,4.48,3.62,7.98,8.2,7.98c1.67,0,3.56-0.58,5.16-1.54v-6.25H401.89z"/>
		<path class="st144" d="M419.28,378.28v6.05h10.95v3.4h-10.95v6.18h12.62v3.39h-16.4v-22.42h16.01v3.4H419.28z"/>
		<path class="st144" d="M455.06,397.31h-4.52l-6.05-8.46l-6.02,8.46h-4.42l8.17-11.5l-7.59-10.92h4.39l5.48,7.78l5.51-7.78h4.42
			l-7.53,10.76L455.06,397.31z"/>
		<path class="st144" d="M467.61,374.89c5.64,0,8.87,2.79,8.87,7.66c0,5.06-3.23,8.01-8.87,8.01h-5.16v6.76h-3.78v-22.42H467.61z
			 M462.45,387.15h5c3.46,0,5.41-1.47,5.41-4.52c0-2.95-1.95-4.36-5.41-4.36h-5V387.15z"/>
		<path class="st144" d="M484.01,378.28v6.05h10.95v3.4h-10.95v6.18h12.62v3.39h-16.4v-22.42h16.01v3.4H484.01z"/>
		<path class="st144" d="M511.36,390.52c-0.32,0.03-0.67,0.03-1.02,0.03h-5.32v6.76h-3.78v-22.42h9.1c5.73,0,9.03,2.79,9.03,7.66
			c0,3.59-1.67,6.12-4.64,7.27l5.03,7.49h-4.29L511.36,390.52z M510.33,387.15c3.46,0,5.44-1.47,5.44-4.52
			c0-2.95-1.99-4.36-5.44-4.36h-5.32v8.87H510.33z"/>
		<path class="st144" d="M524.39,397.31v-22.42h3.78v22.42H524.39z"/>
		<path class="st144" d="M537.84,378.28v6.05h10.95v3.4h-10.95v6.18h12.62v3.39h-16.4v-22.42h16.01v3.4H537.84z"/>
		<path class="st144" d="M570.8,397.31l-11.95-16.08v16.08h-3.78v-22.42h3.72L570.8,391v-16.11h3.71v22.42H570.8z"/>
		<path class="st144" d="M598.88,378.25l-2.21,2.75c-1.63-1.76-3.97-2.85-6.25-2.85c-4.48,0-8.01,3.46-8.01,7.88
			c0,4.42,3.52,7.91,8.01,7.91c2.24,0,4.55-1.02,6.25-2.66l2.24,2.5c-2.27,2.24-5.51,3.68-8.68,3.68c-6.57,0-11.66-4.96-11.66-11.4
			c0-6.37,5.16-11.27,11.79-11.27C593.53,374.79,596.7,376.1,598.88,378.25z"/>
		<path class="st144" d="M606.54,378.28v6.05h10.95v3.4h-10.95v6.18h12.62v3.39h-16.4v-22.42h16.01v3.4H606.54z"/>
	</g>
</g>
<g id="Layer_8" class="st0">
</g>
</svg>
