<svg xmlns="http://www.w3.org/2000/svg" xmlns:xlink="http://www.w3.org/1999/xlink" viewBox="0 0 114.93 114.95"><defs><style>.cls-1{fill:url(#linear-gradient);}.cls-2{fill:url(#linear-gradient-2);}</style><linearGradient id="linear-gradient" x1="36.52" y1="-13.47" x2="79.99" y2="135.82" gradientTransform="matrix(1, 0, 0, -1, 0, 115.92)" gradientUnits="userSpaceOnUse"><stop offset="0" stop-color="#2e3192"/><stop offset="0.11" stop-color="#2d4ca4"/><stop offset="0.28" stop-color="#2b6eba"/><stop offset="0.45" stop-color="#2a89cc"/><stop offset="0.63" stop-color="#2a9cd8"/><stop offset="0.8" stop-color="#29a7e0"/><stop offset="0.99" stop-color="#29abe2"/></linearGradient><linearGradient id="linear-gradient-2" x1="36.52" y1="-13.47" x2="79.98" y2="135.82" xlink:href="#linear-gradient"/></defs><title>Asset 1</title><g id="Layer_2" data-name="Layer 2"><g id="Layer_1-2" data-name="Layer 1"><g id="Layer_4" data-name="Layer 4"><path class="cls-1" d="M90.36,99.55c-2.28-1.31-3.7.46-5.28,2.24-15.75,17.8-40.41,17.52-55.92-.64-1.17-1.37-2.1-2-4.14-1.71a8.31,8.31,0,0,1-9.31-9.68,3.33,3.33,0,0,0-1.4-3.54C5.48,78.51-.13,69.17,0,57.05.13,45.47,5.53,36.49,13.93,29c1.18-1.05,1.82-1.86,1.56-3.68a8.28,8.28,0,0,1,9.86-9.54c1.79.31,2.52-.56,3.48-1.65C36.93,5,46.79-.63,59.41.06,69.75.62,78.05,5.49,85,13c1.58,1.71,2.77,3.24,5.87,2.75,5-.79,9.52,4.57,8.58,9.62a3.28,3.28,0,0,0,1.35,3.56c7.32,6.3,12.41,14,13.79,23.71,1.81,12.8-3.08,23.16-12,31.85-2.06,2-3.69,3.54-3.38,7C99.52,95.91,95.32,99.53,90.36,99.55ZM57.6,17.5a76,76,0,0,0-23.23,3.86c-1.43.49-2,1.05-2,2.77a8.16,8.16,0,0,1-8.45,8.56,2.31,2.31,0,0,0-2.62,1.86,70.9,70.9,0,0,0,.17,46.25,2.13,2.13,0,0,0,2.41,1.76c5.26,0,8.7,3.28,8.8,8.47a2.34,2.34,0,0,0,1.91,2.6,71,71,0,0,0,45.74,0A2.32,2.32,0,0,0,82.2,91,8.21,8.21,0,0,1,91,82.51c1.3,0,1.88-.23,2.3-1.45a71.11,71.11,0,0,0,.15-46.71,2.05,2.05,0,0,0-2.24-1.65c-5.38-.21-8.65-3.33-8.8-8.56a2.55,2.55,0,0,0-2-2.79A74.45,74.45,0,0,0,57.6,17.5Zm-27.14,1a85.39,85.39,0,0,1,27-4.54,87.33,87.33,0,0,1,26.91,4.5c-6-8.31-13.78-13.86-24.12-14.76C47.47,2.6,38,8.56,30.46,18.52Zm27.71,92.89c10.08-.22,18.45-5.2,25.3-13.17.38-.44,1.08-.93.65-1.57s-1.12-.25-1.7-.07-1,.35-1.5.52a71,71,0,0,1-24.41,3.82,70.54,70.54,0,0,1-24.07-4.31c-.55-.2-1.24-.62-1.67.06s.2,1.15.59,1.6C38.3,106.17,46.62,111.27,58.17,111.41Zm42.64-53.95a71.86,71.86,0,0,1-4.28,25.15c-.2.57-1,1.33,0,1.85.66.37,1.06-.42,1.5-.78,17.49-13.91,17.76-37.9.6-51.93-.57-.47-1.15-1.49-2-.89s-.07,1.46.18,2.18A72.26,72.26,0,0,1,100.81,57.46ZM18.36,84.57a1.89,1.89,0,0,0,0-1.93,74.35,74.35,0,0,1-.15-50c.21-.62.82-1.36,0-1.85-.65-.37-1.15.29-1.59.68A40.72,40.72,0,0,0,7.09,43.08C-.95,58.39,5.27,75.51,18.36,84.57ZM90.82,19.13a5.23,5.23,0,0,0-4.93,5.22,5.08,5.08,0,0,0,5.28,4.81,5,5,0,0,0,4.77-5A5.12,5.12,0,0,0,90.82,19.13ZM24,96a5,5,0,0,0,5.12-5,5.15,5.15,0,0,0-5-5.09,5.27,5.27,0,0,0-5,4.88A5,5,0,0,0,24,96Zm61.73-5a4.94,4.94,0,0,0,5,5,5.1,5.1,0,0,0,5-4.8,5.24,5.24,0,0,0-4.92-5.23A5.06,5.06,0,0,0,85.75,90.93ZM28.81,24.53a5,5,0,0,0-4.61-5.39,5.08,5.08,0,0,0-5.26,4.8,5,5,0,0,0,4.79,5.23A4.9,4.9,0,0,0,28.81,24.53Z"/><path class="cls-2" d="M34.9,80.11c0-2.85,0-5.21,0-7.57a10.71,10.71,0,0,1,10.54-11c.7,0,1.43.08,2.12,0,1.14-.19,3,.75,3.3-.64.4-1.73,1-3.79-.81-5.43a10.63,10.63,0,0,1-3.42-8.56c.1-2.73,0-5.48,0-8.21a10.55,10.55,0,0,1,.39-2.86c1.52-4.83,6.26-6.87,13.51-5.88a8.58,8.58,0,0,1,7.74,8.64c.09,3,.07,6,0,9a9.85,9.85,0,0,1-3.26,7.57c-2,1.67-1.24,3.68-1.24,5.61,0,1,1,.74,1.67.77a48.47,48.47,0,0,1,5.54.29,10.68,10.68,0,0,1,9,10.79c0,2.35,0,4.7,0,7.67,5-5.08,8-10.56,9-17,2.19-13.94-2.53-25.26-14.35-32.84s-24.21-7-36,.88c-.81.54-1.54,1.22-2.63,1a1.56,1.56,0,0,1-1.22-1.25c-.24-1,.42-1.63,1.15-2.18a33.84,33.84,0,0,1,14.87-6.58C70.43,18.88,88.34,31,92.54,50.56,95.68,65.14,88.44,81,75.28,88.48,61.63,96.19,44.5,94.35,33.45,84,20.38,71.71,17.91,53.05,27.39,38.12a24.57,24.57,0,0,1,2.22-3A1.57,1.57,0,0,1,32,35a1.68,1.68,0,0,1,.35,2.37c-.46.75-1,1.43-1.54,2.15C22.17,52,23.86,70.31,34.9,80.11Zm22.5-15H46.54c-5.12,0-8.09,2.81-8.26,7.91-.1,2.91-.05,5.83,0,8.74,0,1.44,3.54,4.53,4.95,4.44,1-.07.66-.88.67-1.39,0-2.3,0-4.59,0-6.89,0-1.25-.09-2.68,1.7-2.7s1.86,1.38,1.88,2.64c0,2.56.14,5.13,0,7.68-.12,1.94.52,2.88,2.47,3.26a35.67,35.67,0,0,0,15.22-.11c1.71-.4,2.34-1.07,2.26-2.83-.13-2.73,0-5.47,0-8.21,0-1.24.24-2.4,1.77-2.44S71,76.36,71,77.62c0,1.5-.08,3,0,4.5s-.68,3.52.4,3.89c1.49.5,2.92-1.24,4.32-2.1,1.14-.7.66-1.91.68-2.91.06-2.82,0-5.65,0-8.48A7.11,7.11,0,0,0,69,65.16C65.17,65.13,61.29,65.16,57.4,65.16ZM64.67,47c-.32-.63.58-2.07-.51-2.38-1.8-.51-3.44-1.83-5.55-1.21a25.35,25.35,0,0,1-6.76,1.1c-1,0-1.57.24-1.71,1.44-.53,4.55,2.45,8.46,6.77,8.73S64.6,51.81,64.67,47ZM57.44,33.35c-4.76,0-6.87,1.38-7.24,4.74C49.88,41,50,41.2,53,40.85a32.18,32.18,0,0,0,3.91-.64c2.12-.5,4.15-1.37,6.23.3,1,.76,1.45.13,1.53-1.09C65,35.27,62.71,33.36,57.44,33.35Zm0,24.89c-1,.39-2.92-1-2.88,1.65,0,2.36,1.63,1.61,2.73,1.59s3,.86,3-1.67S58.52,58.53,57.44,58.24Z"/></g></g></g></svg>