<svg xmlns="http://www.w3.org/2000/svg" xmlns:xlink="http://www.w3.org/1999/xlink" viewBox="0 0 118.98 83.31"><defs><style>.cls-1{fill:url(#linear-gradient);}</style><linearGradient id="linear-gradient" x1="58.4" y1="86.19" x2="60.85" y2="-39.4" gradientTransform="matrix(1, 0, 0, -1, 0, 84.3)" gradientUnits="userSpaceOnUse"><stop offset="0.13" stop-color="#9468ac"/><stop offset="0.44" stop-color="#8e66ab"/><stop offset="0.58" stop-color="#8964ab"/><stop offset="0.75" stop-color="#744aa2"/><stop offset="1" stop-color="#4e1d92"/></linearGradient></defs><title>Asset 1</title><g id="Layer_2" data-name="Layer 2"><g id="Layer_1-2" data-name="Layer 1"><g id="Layer_4" data-name="Layer 4"><path class="cls-1" d="M12.05,26.8c-7.42-2.57-7.39-2.57-6.86-10.13.14-2,1-2.87,3-2.82,2.38.06,4.77,0,7.16,0a5.43,5.43,0,0,1,5.34,2.87c1.08-2.22,2-4.08,2.9-6C26.64,4.13,31.68.41,39.07.24c13.69-.3,27.38-.33,41.07,0C87.4.43,92.43,4.06,95.4,10.65c.87,1.92,1.86,3.77,3,6,1.57-2.52,3.79-2.9,6.25-2.8,2.12.09,4.24.05,6.36,0s2.91,1,2.89,2.91c0,.35,0,.71,0,1.06.05,6.75.05,6.75-6.5,8.8.72,1.6,2.17,2.47,3.36,3.55a35.79,35.79,0,0,1,5.48,5.73A14.3,14.3,0,0,1,119,44.55c-.09,10.25,0,20.5,0,30.75,0,5.68-2.34,8-8.06,8-3.71,0-7.42,0-11.13,0-5.15-.07-7.28-2.08-7.37-7.19,0-1.91-.72-2.37-2.5-2.37q-30.48.07-61,0c-1.85,0-2.16.68-2.17,2.3-.05,5.1-2.19,7.21-7.29,7.27q-6.23.07-12.46,0C2.94,83.22.44,81.05.3,77c-.39-11.48-.42-23,0-34.44.18-5,3.62-8.27,7-11.43C8.77,29.72,10.29,28.39,12.05,26.8ZM47.41,45.47c-5,.41-10.06,0-15.09.14-1.91,0-2.92-1.12-4.33-2s-2.25,2.05-4.16,1.93c-6.39-.42-12.86.86-19.41-1.07,0,1.72.06,3.39,0,5-.06,1.28.45,1.7,1.7,1.67,2.82-.06,5.65,0,8.48,0a8.61,8.61,0,0,1,6.15,2.65,2.17,2.17,0,0,1,.35,3.1,1.91,1.91,0,0,1-3,.22,6.61,6.61,0,0,0-5.63-1.68c-.87.1-2.15-.61-2.53.6a3.6,3.6,0,0,0,.92,2.94,3.05,3.05,0,0,0,2.79,1.2c1.5,0,3,0,4.5,0,1.32,0,2.28.43,2.34,1.9s-.87,2.26-2.29,2.33-3,0-4.5,0c-4.22,0-6.44-1.76-7.76-5.81-.32-1,0-2.25-1.34-3.47,0,4.15-.17,7.8.07,11.43.12,1.86,1.52,2.81,3.55,2.78,4.5-.07,9-.06,13.51,0a2.8,2.8,0,0,0,2.59-1.38,15,15,0,0,1,13.15-6.52q22,.16,44,0c5.65,0,10.15,1.91,13.39,6.56a2.62,2.62,0,0,0,2.37,1.33c4.68-.06,9.36,0,14,0a2.83,2.83,0,0,0,3.1-2.33c.71-3.78.22-7.58.36-12.13-.7.88-.92,1-1,1.24-2.18,7.74-4.91,9.5-12.88,8.3-1.41-.21-2.35-.91-2.24-2.41s1.11-1.87,2.43-1.84,2.83-.06,4.24,0c2.3.13,3.32-1.11,3.86-3.17.3-1.16.14-1.65-1.13-1.61-2.44.08-4.94-.41-6.94,1.7A1.93,1.93,0,0,1,98,57a2.06,2.06,0,0,1,.3-3.07,12.56,12.56,0,0,1,2.8-1.95c2.49-1.25,5.21-.69,7.83-.72,6.1-.07,6.1,0,5.69-6.16a2.34,2.34,0,0,0-.26-.62c-3,1.47-6.33,1.06-9.56,1.1-1,0-2,.07-2.91,0-2.78-.23-6.25,1.24-8.21-.7-3.27-3.26-4.7,1.43-7.52.94-4.71-.82-9.7.07-14.53-.32Zm36.69-4.1a5.19,5.19,0,0,0,5.1-2.45c1.41-2.2,3.52-3.29,5.92-4.13,3.22-1.12,6.36-2.48,9.46-3.7-2.21-2.32-4.39-4.48-6.42-6.77a3.57,3.57,0,0,0-3-1.32Q59.58,23,24,23c-.86,0-1.74-.15-2.45.64-2.24,2.49-4.52,4.93-6.88,7.48,1.54.61,3.41,1.4,5.31,2.09,4.31,1.56,8.74,2.9,11.28,7.23.6,1,1.67.81,2.62.81,5.65,0,11.31.13,17-.05ZM59.63,18.63H87.71c6.88,0,6.77.05,3.79-6.13C89,7.27,85.1,4.55,79.21,4.57c-11.65,0-23.33.35-35-.22-9.34-.45-15.38,3-18.52,11.8-.71,2-.76,2.54,1.57,2.52C38.08,18.58,48.86,18.63,59.63,18.63ZM29,69.22H90a8.88,8.88,0,0,0-7.22-3.35q-23.18,0-46.36,0A9,9,0,0,0,29,69.22ZM13.39,79v0c2.3,0,4.6.07,6.89,0s2.12-1.82,2.25-3.46c.15-2-1.09-1.76-2.35-1.79-4.94-.11-9.89.32-14.82-.25-.35,0-.79-.2-.84.24a7.8,7.8,0,0,0,.33,4.17C5.33,78.9,6.29,79,7.3,79,9.33,78.94,11.36,79,13.39,79Zm101.26-5.53c-1.58.09-2.89.23-4.2.24-4,0-7.93,0-11.89,0-.64,0-1.4-.28-1.82.63a3.11,3.11,0,0,0,2.75,4.62c4.05.06,8.11-.07,12.16,0,2.11.06,2.84-1,3-2.82C114.7,75.3,114.65,74.42,114.65,73.42Zm-90-33.7C20.74,38.22,17,37,13.43,35.28c-2.63-1.29-4.29-.69-5.75,1.5-.59.89-1.88,1.52-1.24,2.92s1.84,1.55,3.1,1.56c4.14,0,8.27,0,12.41.06A3,3,0,0,0,24.61,39.72Zm70,0a2.69,2.69,0,0,0,2.69,1.63c4.06,0,8.11,0,12.17-.07,1.61,0,3.4-.26,3.2-2.54-.13-1.57-3.68-4.62-4.8-4.2C103.44,36.19,99.05,38,94.6,39.69Zm8.2-18.93c.66.41-1,2.26,1.13,2.25,2.87,0,5.48-1.58,5.61-3.07.2-2.25-1.4-2-2.59-1.75C105.39,18.5,102.46,16.58,102.8,20.76Zm-86.67-.22c.76-2.3-.65-2.58-2.54-2.42-.87.07-1.75,0-2.63,0s-1.47.14-1.45,1.09-.44,2,.87,2.45c1.08.35,2.22.56,3.27,1C15.68,23.44,16.7,23.08,16.13,20.54Z"/></g></g></g></svg>