<svg xmlns="http://www.w3.org/2000/svg" xmlns:xlink="http://www.w3.org/1999/xlink" viewBox="0 0 118.93 111.82"><defs><style>.cls-1{fill:url(#linear-gradient);}.cls-2{fill:url(#linear-gradient-2);}.cls-3{fill:url(#linear-gradient-3);}</style><linearGradient id="linear-gradient" x1="29" y1="-4.89" x2="143.81" y2="210.26" gradientTransform="matrix(1, 0, 0, -1, 0, 112.79)" gradientUnits="userSpaceOnUse"><stop offset="0" stop-color="#fbb03b"/><stop offset="0.07" stop-color="#f9b641"/><stop offset="0.37" stop-color="#f3c952"/><stop offset="0.68" stop-color="#efd45d"/><stop offset="1" stop-color="#eed860"/></linearGradient><linearGradient id="linear-gradient-2" x1="45.91" y1="-13.92" x2="160.72" y2="201.23" xlink:href="#linear-gradient"/><linearGradient id="linear-gradient-3" x1="52.22" y1="-17.28" x2="167.03" y2="197.87" xlink:href="#linear-gradient"/></defs><title>Asset 1</title><g id="Layer_2" data-name="Layer 2"><g id="Layer_1-2" data-name="Layer 1"><g id="Layer_4" data-name="Layer 4"><path class="cls-1" d="M59.32,111.81H4.45c-.71,0-1.42,0-2.12,0C.9,111.73,0,111.09,0,109.53s1-2,2.28-2c.62,0,1.24,0,1.85,0,5.57,0,11.14-.13,16.7.06,2.62.09,3.49-.57,3.45-3.34-.16-11.66-.07-23.32-.07-35,0-4.08.25-4.32,4.39-4.32,5.3,0,10.6-.06,15.9,0,1.74,0,2.29-.5,2.25-2.24-.11-4.5-.12-9,0-13.52.05-1.63-.59-2.13-2-2.37-7.21-1.23-12-5.34-14-12.41a2.23,2.23,0,0,0-2.62-1.89,37.37,37.37,0,0,1-10-1.05C6.84,28.58,1.21,20.28,2.82,8.76,3.76,2,4.56,1.21,11.38.48c7.47-.81,14.22.79,19.69,6.27.74.74,1.14.69,1.88,0,6.93-6.84,15.21-7.9,24.27-5.63a4.35,4.35,0,0,1,3.45,3.5c3.5,13.11-2,23.49-14.31,26.57a40,40,0,0,1-8.65,1.14c-3.21.08-3.4.33-2,3.21a11.87,11.87,0,0,0,9.12,6.92c6.31,1,12.7.34,19,.54,1.62,0,1.31-1.05,1.31-2,0-5.12,0-10.25,0-15.37,0-1.93.33-3.4,2.65-3.34,1.24,0,1.16-.78,1.16-1.59,0-2.83,0-5.65,0-8.48,0-2.11.89-3.14,3-3,.44,0,.88,0,1.32,0,2.29-.05,5.14.71,6.72-.37s.4-4.11.58-6.27c.11-1.39.61-2.47,2.14-2.51s2.14,1,2.2,2.41c0,.26,0,.53,0,.8.14,6,.14,6,6.21,6,5.45,0,5.45,0,5.45,5.34,0,1.59,0,3.18,0,4.77s-.34,3.21,2.24,3.1c1.19-.05,1.64,1.17,1.64,2.34,0,1.77.08,3.54,0,5.3-.08,1.52.53,2,2,2,4.33-.07,8.66.05,13-.05,2.53-.06,3.44,1,3.44,3.48q-.06,36.45,0,72.89c0,3-.56,3.45-3.66,3.46ZM38.12,27.55c1.38.6,2.79.14,4.15,0C53.37,26.18,58.84,18.74,57,8c-.43-2.51-1.64-3.08-3.76-3.45a20.65,20.65,0,0,0-10.91,1c-3.47,1.28-6.85,3.09-7.75,7s-.27,7.77.06,11.84a65.92,65.92,0,0,0,5.58-5.32c1-1,2.29-1.57,3.46-.29s.59,2.37-.46,3.47c-1.69,1.77-3.69,3.25-5,5.34l-.27.28.21,0C38.12,27.78,38.12,27.66,38.12,27.55Zm58,39.57c0-12.72,0-25.43,0-38.15,0-2-.54-2.53-2.51-2.49q-10.86.18-21.72,0c-1.87,0-2.56.3-2.55,2.41q.12,38.14,0,76.29c0,1.79.4,2.43,2.31,2.4q11-.17,22,0c2.08,0,2.48-.69,2.47-2.59C96.1,92.38,96.14,79.75,96.14,67.12Zm18.43,5c0-11-.06-22.09.05-33.13,0-2.11-.59-2.76-2.67-2.63a68.55,68.55,0,0,1-8.48,0c-2.27-.15-3,.46-3,2.88.16,8,.06,16.08.06,24.12,0,13.78,0,27.57,0,41.35,0,2.24.66,2.92,2.85,2.79a75,75,0,0,1,8.74,0c2,.11,2.56-.52,2.54-2.51C114.52,94,114.57,83.09,114.57,72.13ZM65.19,77.4c0-9.27-.07-18.54,0-27.8,0-2.05-.59-2.54-2.52-2.44-3.17.16-6.36.13-9.53,0-1.71-.07-2.3.41-2.26,2.19.11,4.94,0,9.88,0,14.83,0,13.5.06,27-.06,40.51,0,2.4.69,3,3,2.89a79.47,79.47,0,0,1,9,0c1.89.1,2.36-.56,2.34-2.38C65.15,95.94,65.19,86.67,65.19,77.4ZM28.55,88.28c0,5.73.05,11.47,0,17.2,0,1.61.47,2.13,2.09,2.1q7-.15,14,0c1.61,0,2.11-.46,2.11-2.09q-.09-17.07,0-34.13c0-1.61-.47-2.14-2.09-2.11q-7,.14-14,0c-1.61,0-2.13.48-2.11,2.1C28.61,77,28.55,82.63,28.55,88.28Zm.53-63.81.79-.37c0-2.88-.13-5.78,0-8.65a8,8,0,0,0-3.8-7.39C21,4.55,15.36,3.9,9.39,5.19A2.18,2.18,0,0,0,7.52,6.76c-3.85,11.76,6.62,23.5,19.81,20.8-2.36-2-4.29-3.71-6.21-5.39-1.2-1.05-1.85-2.35-.51-3.62s2.57-.46,3.63.69C25.84,21,27.47,22.73,29.08,24.47ZM82.8,13.61H79.62c-6.53,0-6.45,0-6.42,6.54,0,1.82.63,2.21,2.3,2.16,3.44-.11,6.89,0,10.33,0,6.91,0,6.87,0,6.52-6.88-.07-1.39-.51-1.85-1.86-1.81C87.92,13.66,85.36,13.61,82.8,13.61Z"/><path class="cls-2" d="M79.07,68.38v26c0,1.51.22,3.26-2,3.25-2.09,0-2.23-1.63-2.23-3.21q0-26,0-51.91c0-1.46.06-3,1.93-3.24,2.16-.26,2.34,1.27,2.34,2.93C79.06,50.91,79.07,59.65,79.07,68.38Z"/><path class="cls-3" d="M90.2,63q0,10.07,0,20.13c0,1.65,0,3.49-2.21,3.45-2,0-2.06-1.74-2.06-3.32q0-20.39,0-40.78c0-1.55-.06-3.25,2.07-3.29,2.37,0,2.18,1.83,2.18,3.43C90.21,49.45,90.2,56.24,90.2,63Z"/></g></g></g></svg>