<?xml version="1.0" encoding="utf-8"?>
<!-- Generator: Adobe Illustrator 23.0.0, SVG Export Plug-In . SVG Version: 6.00 Build 0)  -->
<svg version="1.1" xmlns="http://www.w3.org/2000/svg" xmlns:xlink="http://www.w3.org/1999/xlink" x="0px" y="0px"
	 viewBox="0 0 718.87 668.12" style="enable-background:new 0 0 718.87 668.12;" xml:space="preserve">
<style type="text/css">
	.st0{display:none;}
	.st1{display:inline;}
	.st2{fill:#3A3A3A;}
	.st3{fill:none;stroke:#3A3A3A;stroke-miterlimit:10;}
	.st4{fill:none;stroke:#1C1C1C;stroke-miterlimit:10;}
	.st5{display:inline;fill:none;stroke:#3A3A3A;stroke-miterlimit:10;}
	.st6{display:inline;fill:none;stroke:#1C1C1C;stroke-miterlimit:10;}
	.st7{opacity:0.9;fill:#F7BD19;}
	.st8{fill:#FFFFFF;}
	.st9{fill:#6B6B6B;}
	.st10{fill:#494949;}
	.st11{opacity:0.5;clip-path:url(#SVGID_4_);fill:url(#SVGID_5_);}
	.st12{fill:#565656;}
	.st13{fill:#353535;}
	.st14{fill:#727272;}
	.st15{fill:#282828;}
	.st16{fill:#606060;}
	.st17{fill:#29ABE2;}
	.st18{fill:#848484;}
	.st19{fill:url(#SVGID_8_);}
	.st20{fill:none;stroke:#CCCCCC;stroke-width:0.75;stroke-linecap:round;stroke-linejoin:round;stroke-miterlimit:10;}
	.st21{fill:none;stroke:#999999;stroke-linecap:round;stroke-linejoin:round;stroke-miterlimit:10;}
	.st22{fill:url(#SVGID_9_);}
	.st23{fill:url(#SVGID_10_);}
	.st24{fill:url(#SVGID_11_);}
	.st25{fill:url(#SVGID_12_);}
	.st26{fill:url(#SVGID_13_);}
	.st27{fill:url(#SVGID_14_);}
	.st28{fill:none;stroke:#EFEFEF;stroke-miterlimit:10;}
	.st29{fill:#F9DC79;}
	.st30{fill:#F7BD19;}
	.st31{opacity:0.8;}
	.st32{fill:url(#SVGID_15_);}
	.st33{fill:url(#SVGID_16_);}
	.st34{fill:url(#SVGID_17_);}
	.st35{fill:url(#SVGID_18_);}
	.st36{fill:url(#SVGID_19_);}
	.st37{fill:url(#SVGID_20_);}
	.st38{fill:url(#SVGID_21_);}
	.st39{fill:url(#SVGID_22_);}
	.st40{fill:url(#SVGID_25_);}
	.st41{fill:#2F3948;}
	.st42{fill:none;stroke:#F7BD19;stroke-width:6;stroke-linecap:round;stroke-linejoin:round;stroke-miterlimit:10;}
	.st43{fill:url(#SVGID_26_);}
	.st44{fill:#191919;}
	.st45{fill:url(#SVGID_27_);}
	.st46{fill:url(#SVGID_28_);}
	.st47{fill:#4D4D4D;}
	.st48{fill:url(#SVGID_29_);}
	.st49{fill:url(#SVGID_30_);}
	.st50{fill:#CCCCCC;}
	.st51{fill:url(#SVGID_31_);}
	.st52{fill:#FABF14;}
	.st53{fill:url(#SVGID_32_);}
	.st54{fill:url(#SVGID_33_);}
	.st55{fill:url(#SVGID_34_);}
	.st56{fill:url(#SVGID_35_);}
	.st57{fill:url(#SVGID_36_);}
	.st58{fill:url(#SVGID_37_);}
	.st59{fill:url(#SVGID_38_);}
	.st60{fill:url(#SVGID_39_);}
	.st61{fill:url(#SVGID_40_);}
	.st62{fill:url(#SVGID_41_);}
	.st63{fill:url(#SVGID_42_);}
	.st64{fill:#333333;}
	.st65{fill:url(#SVGID_43_);}
	.st66{fill:url(#SVGID_44_);}
	.st67{fill:url(#SVGID_45_);}
	.st68{opacity:0.7;fill:url(#SVGID_46_);}
	.st69{fill:url(#SVGID_47_);}
	.st70{fill:url(#SVGID_48_);}
	.st71{fill:url(#SVGID_49_);}
	.st72{fill:#999999;}
	.st73{fill:url(#SVGID_50_);}
	.st74{opacity:0.8;fill:url(#SVGID_51_);}
	.st75{fill:url(#SVGID_52_);}
	.st76{fill:url(#SVGID_53_);}
	.st77{fill:url(#SVGID_54_);}
	.st78{fill:url(#SVGID_55_);}
	.st79{fill:url(#SVGID_56_);}
	.st80{fill:url(#SVGID_57_);}
	.st81{fill:url(#SVGID_58_);}
	.st82{fill:url(#SVGID_59_);}
	.st83{opacity:0.7;fill:url(#SVGID_60_);}
	.st84{fill:url(#SVGID_61_);}
	.st85{fill:url(#SVGID_62_);}
	.st86{fill:url(#SVGID_63_);}
	.st87{fill:url(#SVGID_64_);}
	.st88{opacity:0.8;fill:url(#SVGID_65_);}
	.st89{fill:url(#SVGID_66_);}
	.st90{fill:url(#SVGID_67_);}
	.st91{fill:url(#SVGID_68_);}
	.st92{fill:url(#SVGID_69_);}
	.st93{fill:url(#SVGID_70_);}
	.st94{fill:url(#SVGID_71_);}
	.st95{fill:url(#SVGID_72_);}
	.st96{fill:url(#SVGID_73_);}
	.st97{fill:#FFFFFF;stroke:#000000;stroke-miterlimit:10;}
	.st98{fill:#C1272D;}
	.st99{fill:url(#SVGID_74_);}
	.st100{fill:url(#SVGID_75_);}
	.st101{fill:url(#SVGID_76_);}
	.st102{fill:url(#SVGID_77_);}
	.st103{fill:url(#SVGID_78_);}
	.st104{fill:url(#SVGID_79_);}
	.st105{fill:url(#SVGID_80_);}
	.st106{fill:url(#SVGID_81_);}
	.st107{fill:url(#SVGID_82_);}
	.st108{fill:url(#SVGID_83_);}
	.st109{fill:url(#SVGID_84_);}
	.st110{fill:url(#SVGID_85_);}
	.st111{fill:url(#SVGID_86_);}
	.st112{fill:url(#SVGID_87_);}
	.st113{fill:url(#SVGID_88_);}
	.st114{fill:url(#SVGID_89_);}
	.st115{fill:url(#SVGID_90_);}
	.st116{fill:url(#SVGID_91_);}
	.st117{fill:url(#SVGID_92_);}
	.st118{fill:url(#SVGID_93_);}
	.st119{fill:url(#SVGID_94_);}
	.st120{fill:url(#SVGID_95_);}
	.st121{fill:url(#SVGID_96_);}
	.st122{fill:url(#SVGID_97_);}
	.st123{fill:url(#SVGID_98_);}
	.st124{fill:url(#SVGID_99_);}
	.st125{fill:url(#SVGID_100_);}
	.st126{fill:url(#SVGID_101_);}
	.st127{fill:url(#SVGID_102_);}
	.st128{fill:url(#SVGID_103_);}
	.st129{fill:url(#SVGID_104_);}
	.st130{fill:url(#SVGID_105_);}
	.st131{fill:url(#SVGID_106_);}
	.st132{fill:url(#SVGID_107_);}
	.st133{fill:url(#SVGID_108_);}
	.st134{fill:url(#SVGID_109_);}
	.st135{fill:#666666;}
	.st136{fill:none;}
	.st137{fill:url(#SVGID_110_);}
	.st138{opacity:0.5;}
	.st139{fill:url(#SVGID_111_);}
	.st140{fill:url(#SVGID_112_);}
	.st141{fill:url(#SVGID_113_);}
	.st142{fill:url(#SVGID_114_);}
	.st143{fill:url(#SVGID_115_);}
	.st144{fill:url(#SVGID_116_);}
	.st145{fill:url(#SVGID_117_);}
	.st146{fill:url(#SVGID_118_);}
	.st147{fill:url(#SVGID_119_);}
	.st148{fill:url(#SVGID_120_);}
	.st149{fill:url(#SVGID_121_);}
	.st150{fill:url(#SVGID_122_);}
	.st151{fill:url(#SVGID_123_);}
	.st152{fill:url(#SVGID_124_);}
	.st153{fill:url(#SVGID_125_);}
	.st154{fill:url(#SVGID_126_);}
	.st155{fill:url(#SVGID_127_);}
	.st156{fill:url(#SVGID_128_);}
	.st157{fill:url(#SVGID_129_);}
	.st158{fill:url(#SVGID_130_);}
	.st159{fill:url(#SVGID_131_);}
	.st160{fill:url(#SVGID_132_);}
	.st161{fill:url(#SVGID_133_);}
	.st162{fill:url(#SVGID_134_);}
	.st163{fill:url(#SVGID_135_);}
	.st164{fill:url(#SVGID_136_);}
	.st165{fill:url(#SVGID_137_);}
	.st166{fill:url(#SVGID_138_);}
	.st167{fill:url(#SVGID_139_);}
	.st168{fill:url(#SVGID_140_);}
	.st169{fill:none;stroke:#2D2D2D;stroke-width:2;stroke-miterlimit:10;}
	.st170{fill:url(#SVGID_147_);}
	.st171{fill:url(#SVGID_148_);}
	.st172{fill:url(#SVGID_149_);}
	.st173{clip-path:url(#SVGID_151_);}
	.st174{fill:#FBDD79;}
	.st175{fill:#736357;}
	.st176{fill:#534741;}
	.st177{fill:url(#SVGID_152_);}
	.st178{fill:#F2F2F2;}
	.st179{fill:#00B5E4;}
</style>
<g id="Layer_2">
</g>
<g id="Layer_6" class="st0">
	<g class="st1">
		<g>
			<g>
				<path class="st2" d="M98.65,4.05c1.93,0,1.93-3,0-3C96.72,1.05,96.71,4.05,98.65,4.05L98.65,4.05z"/>
			</g>
		</g>
		<g>
			<g>
				<path class="st2" d="M256.25,4.05c1.93,0,1.93-3,0-3C254.32,1.05,254.32,4.05,256.25,4.05L256.25,4.05z"/>
			</g>
		</g>
		<g>
			<g>
				<path class="st2" d="M413.86,4.05c1.93,0,1.93-3,0-3C411.93,1.05,411.92,4.05,413.86,4.05L413.86,4.05z"/>
			</g>
		</g>
		<g>
			<g>
				<path class="st2" d="M571.46,4.05c1.93,0,1.93-3,0-3C569.53,1.05,569.53,4.05,571.46,4.05L571.46,4.05z"/>
			</g>
		</g>
		<g>
			<g>
				<path class="st2" d="M19.84,85.69c1.93,0,1.93-3,0-3C17.91,82.69,17.91,85.69,19.84,85.69L19.84,85.69z"/>
			</g>
		</g>
		<g>
			<g>
				<path class="st2" d="M177.45,85.69c1.93,0,1.93-3,0-3C175.52,82.69,175.52,85.69,177.45,85.69L177.45,85.69z"/>
			</g>
		</g>
		<g>
			<g>
				<path class="st2" d="M335.06,85.69c1.93,0,1.93-3,0-3C333.12,82.69,333.12,85.69,335.06,85.69L335.06,85.69z"/>
			</g>
		</g>
		<g>
			<g>
				<path class="st2" d="M492.66,85.69c1.93,0,1.93-3,0-3C490.73,82.69,490.73,85.69,492.66,85.69L492.66,85.69z"/>
			</g>
		</g>
		<g>
			<g>
				<path class="st2" d="M650.27,85.69c1.93,0,1.93-3,0-3C648.34,82.69,648.33,85.69,650.27,85.69L650.27,85.69z"/>
			</g>
		</g>
		<g>
			<g>
				<path class="st2" d="M98.65,161.66c1.93,0,1.93-3,0-3C96.72,158.66,96.71,161.66,98.65,161.66L98.65,161.66z"/>
			</g>
		</g>
		<g>
			<g>
				<path class="st2" d="M256.25,161.66c1.93,0,1.93-3,0-3C254.32,158.66,254.32,161.66,256.25,161.66L256.25,161.66z"/>
			</g>
		</g>
		<g>
			<g>
				<path class="st2" d="M413.86,161.66c1.93,0,1.93-3,0-3C411.93,158.66,411.92,161.66,413.86,161.66L413.86,161.66z"/>
			</g>
		</g>
		<g>
			<g>
				<path class="st2" d="M571.46,161.66c1.93,0,1.93-3,0-3C569.53,158.66,569.53,161.66,571.46,161.66L571.46,161.66z"/>
			</g>
		</g>
		<g>
			<g>
				<path class="st2" d="M19.84,243.3c1.93,0,1.93-3,0-3C17.91,240.3,17.91,243.3,19.84,243.3L19.84,243.3z"/>
			</g>
		</g>
		<g>
			<g>
				<path class="st2" d="M177.45,243.3c1.93,0,1.93-3,0-3C175.52,240.3,175.52,243.3,177.45,243.3L177.45,243.3z"/>
			</g>
		</g>
		<g>
			<g>
				<path class="st2" d="M335.06,243.3c1.93,0,1.93-3,0-3C333.12,240.3,333.12,243.3,335.06,243.3L335.06,243.3z"/>
			</g>
		</g>
		<g>
			<g>
				<path class="st2" d="M492.66,243.3c1.93,0,1.93-3,0-3C490.73,240.3,490.73,243.3,492.66,243.3L492.66,243.3z"/>
			</g>
		</g>
		<g>
			<g>
				<path class="st2" d="M650.27,243.3c1.93,0,1.93-3,0-3C648.34,240.3,648.33,243.3,650.27,243.3L650.27,243.3z"/>
			</g>
		</g>
		<g>
			<g>
				<path class="st2" d="M98.65,319.26c1.93,0,1.93-3,0-3C96.72,316.26,96.71,319.26,98.65,319.26L98.65,319.26z"/>
			</g>
		</g>
		<g>
			<g>
				<path class="st2" d="M256.25,319.26c1.93,0,1.93-3,0-3C254.32,316.26,254.32,319.26,256.25,319.26L256.25,319.26z"/>
			</g>
		</g>
		<g>
			<g>
				<path class="st2" d="M413.86,319.26c1.93,0,1.93-3,0-3C411.93,316.26,411.92,319.26,413.86,319.26L413.86,319.26z"/>
			</g>
		</g>
		<g>
			<g>
				<path class="st2" d="M571.46,319.26c1.93,0,1.93-3,0-3C569.53,316.26,569.53,319.26,571.46,319.26L571.46,319.26z"/>
			</g>
		</g>
	</g>
</g>
<g id="Layer_7" class="st0">
	<g class="st1">
		<line class="st3" x1="-57.64" y1="9.31" x2="8.12" y2="77.43"/>
		<line class="st3" x1="-57.64" y1="153.87" x2="8.12" y2="90.47"/>
		<line class="st4" x1="8.12" y1="84.19" x2="-136.45" y2="84.19"/>
	</g>
	<g class="st1">
		<line class="st3" x1="-57.64" y1="166.91" x2="8.12" y2="235.04"/>
		<line class="st3" x1="-57.64" y1="311.48" x2="8.12" y2="248.08"/>
		<line class="st4" x1="8.12" y1="241.8" x2="-136.45" y2="241.8"/>
	</g>
	<g class="st1">
		<line class="st3" x1="-57.64" y1="324.52" x2="8.12" y2="392.65"/>
		<line class="st3" x1="-57.64" y1="469.08" x2="8.12" y2="405.69"/>
		<line class="st4" x1="8.12" y1="399.4" x2="-136.45" y2="399.4"/>
	</g>
	<g class="st1">
		<line class="st3" x1="-57.64" y1="482.12" x2="8.12" y2="550.25"/>
		<line class="st3" x1="-57.64" y1="626.69" x2="8.12" y2="563.29"/>
		<line class="st4" x1="8.12" y1="557.01" x2="-136.45" y2="557.01"/>
	</g>
</g>
<g id="Layer_5">
</g>
<g id="Layer_1">
	
		<radialGradient id="SVGID_2_" cx="342.5694" cy="264.5013" r="198.7834" fx="430.813" fy="393.6935" gradientUnits="userSpaceOnUse">
		<stop  offset="0.1306" style="stop-color:#8558D2"/>
		<stop  offset="0.3246" style="stop-color:#8052CC"/>
		<stop  offset="0.5905" style="stop-color:#7142BA"/>
		<stop  offset="0.8966" style="stop-color:#58289D"/>
		<stop  offset="1" style="stop-color:#4E1D92"/>
	</radialGradient>
	<path style="fill:url(#SVGID_2_);" d="M545.96,276.62c0,101.55-82.32,183.87-183.87,183.87c-11.63,0-23.02-1.08-34.05-3.15
		l1.44-0.08l44.18-30.64l23.16-101.48l2.35-228.64C482.95,113.65,545.96,187.77,545.96,276.62z"/>
	<g>
		<g>
			<radialGradient id="SVGID_4_" cx="388.4683" cy="349.5878" r="309.7608" gradientUnits="userSpaceOnUse">
				<stop  offset="0.6695" style="stop-color:#191919"/>
				<stop  offset="1" style="stop-color:#191919;stop-opacity:0"/>
			</radialGradient>
			<polyline style="fill:url(#SVGID_4_);" points="374.33,30.41 374.33,363.69 396.32,374.71 399.85,30.41 374.33,28.84 			"/>
			<polygon class="st44" points="329.48,457.26 396.71,410.64 399.85,374.12 369.62,361.76 276.58,397.09 			"/>
			<linearGradient id="SVGID_5_" gradientUnits="userSpaceOnUse" x1="308.8834" y1="37.8661" x2="304.4214" y2="571.0764">
				<stop  offset="0.0264" style="stop-color:#333333;stop-opacity:0"/>
				<stop  offset="0.1718" style="stop-color:#333333"/>
				<stop  offset="0.7712" style="stop-color:#333333"/>
				<stop  offset="1" style="stop-color:#333333;stop-opacity:0"/>
			</linearGradient>
			<polygon style="fill:url(#SVGID_5_);" points="374.33,23.73 374.33,360.19 276.58,397.09 259.7,397.09 259.7,579 240.85,579 
				240.85,23.73 			"/>
			<polygon class="st44" points="362.1,172.92 289.53,194.51 289.53,378.52 362.1,355.48 			"/>
			<radialGradient id="SVGID_7_" cx="354.34" cy="331.723" r="200.5574" gradientUnits="userSpaceOnUse">
				<stop  offset="0.7369" style="stop-color:#999999"/>
				<stop  offset="1" style="stop-color:#999999;stop-opacity:0"/>
			</radialGradient>
			<path style="fill:url(#SVGID_7_);" d="M357.31,314.46c0,0,25.66,4.11,28.8,5.29c3.14,1.18,44.36,23.16,44.36,23.16
				s7.46,4.12,9.23,11.58s14.72,41.03,14.72,41.03l15.7,25.32l53.98,44.36c0,0,9.42,21.4-8.44,33.76
				c-17.86,12.37-46.72,10.4-46.72,10.4s-54.77-43.38-58.1-44.76c-3.34-1.37-11.19-5.5-15.9-12.56
				c-4.71-7.07-12.48-16.49-14.58-19.24s-14.76-12.56-15.45-14.43c0,0-17.96-8.34-20.32-10.4c-2.36-2.06-6.09-9.81-6.09-9.81
				l2.26-7.75c0,0-2.75-3.63-3.14-6.58c-0.39-2.94,0-6.39,0-6.39l8.83-9.41l15.31-1.18l23.65,9.91l-1.08-2.85l-29.84-14.13
				L357.31,314.46z"/>
			<path class="st47" d="M304.85,267.67c0,0-1.18-7.85,3.53-8.9c4.71-1.05,38.21-3.14,38.21-3.14s5.1-0.65,5.63,6.02
				s9.68,99.46,9.68,99.46s1.05,6.8-1.7,7.46c-2.75,0.65-31.41,7.46-34.94,8.38s-8.51,1.57-9.55-7.07
				C314.66,361.23,304.85,267.67,304.85,267.67z"/>
			
				<radialGradient id="SVGID_8_" cx="203.5209" cy="296.1967" r="671.3032" gradientTransform="matrix(-1 -9.067069e-03 3.005520e-03 -0.3315 406.1432 396.2203)" gradientUnits="userSpaceOnUse">
				<stop  offset="0.6695" style="stop-color:#191919"/>
				<stop  offset="1" style="stop-color:#191919;stop-opacity:0"/>
			</radialGradient>
			<polygon class="st19" points="165.47,58.09 165.47,547.46 240.85,550.6 240.85,55.73 			"/>
			<radialGradient id="SVGID_9_" cx="296.4194" cy="419.1909" r="222.2311" gradientUnits="userSpaceOnUse">
				<stop  offset="0.2435" style="stop-color:#666666"/>
				<stop  offset="0.7461" style="stop-color:#666666;stop-opacity:0"/>
			</radialGradient>
			<polygon class="st22" points="259.7,397.09 317.41,457.94 317.41,636.46 259.7,644.39 			"/>
			<polygon class="st50" points="259.7,397.09 276.58,397.09 329.48,457.26 317.41,457.94 			"/>
			<radialGradient id="SVGID_10_" cx="346.363" cy="354.0666" r="83.8253" gradientUnits="userSpaceOnUse">
				<stop  offset="0.3728" style="stop-color:#666666"/>
				<stop  offset="1" style="stop-color:#666666;stop-opacity:0"/>
			</radialGradient>
			<path class="st23" d="M408.49,429.09c-24.14-25.52-26.04-63.14-26.04-63.14c-2.36-1.05-6.94-5.89-9.29-10.08
				c-2.36-4.19-6.15-3.14-19.11-7.2c-12.96-4.06-10.73-15.97-7.2-19.89c0,0,0.79-1.31,3.93-0.65s11.65,3.53,11.65,3.53
				s8.9-0.13,11.78-0.65c2.88-0.52,6.94-1.96,10.47,2.36c3.53,4.32,37.1,29.84,44.96,38.13L408.49,429.09z"/>
		</g>
		<g>
			<path class="st52" d="M349.4,290.25c-0.05-0.31-0.27-0.53-0.47-0.49l-2,0.36c-0.24,0.05-0.42-0.33-0.31-0.6l1.63-3.55
				c0.08-0.18,0.09-0.44,0.03-0.66c-3.2-10.26-10.97-17.03-18.7-15.61c-8.79,1.61-14.2,13.19-12.07,25.84
				c2.11,12.64,10.96,21.6,19.73,19.99C345.89,313.94,351.27,302.69,349.4,290.25z M336.05,308.48c-6.08,1.12-12.2-5.08-13.66-13.84
				c-1.46-8.76,2.28-16.77,8.37-17.89c6.08-1.12,12.21,5.08,13.66,13.84C345.88,299.36,342.14,307.36,336.05,308.48z"/>
		</g>
	</g>
</g>
<g id="Layer_3">
</g>
<g id="Layer_4">
</g>
</svg>
