<?xml version="1.0" encoding="utf-8"?>
<!-- Generator: Adobe Illustrator 23.0.0, SVG Export Plug-In . SVG Version: 6.00 Build 0)  -->
<svg version="1.1" xmlns="http://www.w3.org/2000/svg" xmlns:xlink="http://www.w3.org/1999/xlink" x="0px" y="0px"
	 viewBox="0 0 718.87 668.12" style="enable-background:new 0 0 718.87 668.12;" xml:space="preserve">
<style type="text/css">
	.st0{display:none;}
	.st1{display:inline;}
	.st2{fill:#3A3A3A;}
	.st3{fill:none;stroke:#3A3A3A;stroke-miterlimit:10;}
	.st4{fill:none;stroke:#1C1C1C;stroke-miterlimit:10;}
	.st5{display:inline;fill:none;stroke:#3A3A3A;stroke-miterlimit:10;}
	.st6{display:inline;fill:none;stroke:#1C1C1C;stroke-miterlimit:10;}
	.st7{opacity:0.9;fill:#F7BD19;}
	.st8{fill:#FFFFFF;}
	.st9{fill:#6B6B6B;}
	.st10{fill:#494949;}
	.st11{opacity:0.5;clip-path:url(#SVGID_4_);fill:url(#SVGID_5_);}
	.st12{fill:#565656;}
	.st13{fill:#353535;}
	.st14{fill:#727272;}
	.st15{fill:#282828;}
	.st16{fill:#606060;}
	.st17{fill:#29ABE2;}
	.st18{fill:#848484;}
	.st19{fill:url(#SVGID_8_);}
	.st20{fill:none;stroke:#CCCCCC;stroke-width:0.75;stroke-linecap:round;stroke-linejoin:round;stroke-miterlimit:10;}
	.st21{fill:none;stroke:#999999;stroke-linecap:round;stroke-linejoin:round;stroke-miterlimit:10;}
	.st22{fill:url(#SVGID_9_);}
	.st23{fill:url(#SVGID_10_);}
	.st24{fill:url(#SVGID_11_);}
	.st25{fill:url(#SVGID_12_);}
	.st26{fill:url(#SVGID_13_);}
	.st27{fill:url(#SVGID_14_);}
	.st28{fill:none;stroke:#EFEFEF;stroke-miterlimit:10;}
	.st29{fill:#F9DC79;}
	.st30{fill:#F7BD19;}
	.st31{opacity:0.8;}
	.st32{fill:url(#SVGID_15_);}
	.st33{fill:url(#SVGID_16_);}
	.st34{fill:url(#SVGID_17_);}
	.st35{fill:url(#SVGID_18_);}
	.st36{fill:url(#SVGID_19_);}
	.st37{fill:url(#SVGID_20_);}
	.st38{fill:url(#SVGID_21_);}
	.st39{fill:url(#SVGID_22_);}
	.st40{fill:url(#SVGID_25_);}
	.st41{fill:#2F3948;}
	.st42{fill:none;stroke:#F7BD19;stroke-width:6;stroke-linecap:round;stroke-linejoin:round;stroke-miterlimit:10;}
	.st43{fill:url(#SVGID_26_);}
	.st44{fill:#191919;}
	.st45{fill:url(#SVGID_27_);}
	.st46{fill:url(#SVGID_28_);}
	.st47{fill:#4D4D4D;}
	.st48{fill:url(#SVGID_29_);}
	.st49{fill:url(#SVGID_30_);}
	.st50{fill:#CCCCCC;}
	.st51{fill:url(#SVGID_31_);}
	.st52{fill:#FABF14;}
	.st53{fill:url(#SVGID_32_);}
	.st54{fill:url(#SVGID_33_);}
	.st55{fill:url(#SVGID_34_);}
	.st56{fill:url(#SVGID_35_);}
	.st57{fill:url(#SVGID_36_);}
	.st58{fill:url(#SVGID_37_);}
	.st59{fill:url(#SVGID_38_);}
	.st60{fill:url(#SVGID_39_);}
	.st61{fill:url(#SVGID_40_);}
	.st62{fill:url(#SVGID_41_);}
	.st63{fill:url(#SVGID_42_);}
	.st64{fill:#333333;}
	.st65{fill:url(#SVGID_43_);}
	.st66{fill:url(#SVGID_44_);}
	.st67{fill:url(#SVGID_45_);}
	.st68{opacity:0.7;fill:url(#SVGID_46_);}
	.st69{fill:url(#SVGID_47_);}
	.st70{fill:url(#SVGID_48_);}
	.st71{fill:url(#SVGID_49_);}
	.st72{fill:#999999;}
	.st73{fill:url(#SVGID_50_);}
	.st74{opacity:0.8;fill:url(#SVGID_51_);}
	.st75{fill:url(#SVGID_52_);}
	.st76{fill:url(#SVGID_53_);}
	.st77{fill:url(#SVGID_54_);}
	.st78{fill:url(#SVGID_55_);}
	.st79{fill:url(#SVGID_56_);}
	.st80{fill:url(#SVGID_57_);}
	.st81{fill:url(#SVGID_58_);}
	.st82{fill:url(#SVGID_59_);}
	.st83{opacity:0.7;fill:url(#SVGID_60_);}
	.st84{fill:url(#SVGID_61_);}
	.st85{fill:url(#SVGID_62_);}
	.st86{fill:url(#SVGID_63_);}
	.st87{fill:url(#SVGID_64_);}
	.st88{opacity:0.8;fill:url(#SVGID_65_);}
	.st89{fill:url(#SVGID_66_);}
	.st90{fill:url(#SVGID_67_);}
	.st91{fill:url(#SVGID_68_);}
	.st92{fill:url(#SVGID_69_);}
	.st93{fill:url(#SVGID_70_);}
	.st94{fill:url(#SVGID_71_);}
	.st95{fill:url(#SVGID_72_);}
	.st96{fill:url(#SVGID_73_);}
	.st97{fill:#FFFFFF;stroke:#000000;stroke-miterlimit:10;}
	.st98{fill:#C1272D;}
	.st99{fill:url(#SVGID_74_);}
	.st100{fill:url(#SVGID_75_);}
	.st101{fill:url(#SVGID_76_);}
	.st102{fill:url(#SVGID_77_);}
	.st103{fill:url(#SVGID_78_);}
	.st104{fill:url(#SVGID_79_);}
	.st105{fill:url(#SVGID_80_);}
	.st106{fill:url(#SVGID_81_);}
	.st107{fill:url(#SVGID_82_);}
	.st108{fill:url(#SVGID_83_);}
	.st109{fill:url(#SVGID_84_);}
	.st110{fill:url(#SVGID_85_);}
	.st111{fill:url(#SVGID_86_);}
	.st112{fill:url(#SVGID_87_);}
	.st113{fill:url(#SVGID_88_);}
	.st114{fill:url(#SVGID_89_);}
	.st115{fill:url(#SVGID_90_);}
	.st116{fill:url(#SVGID_91_);}
	.st117{fill:url(#SVGID_92_);}
	.st118{fill:url(#SVGID_93_);}
	.st119{fill:url(#SVGID_94_);}
	.st120{fill:url(#SVGID_95_);}
	.st121{fill:url(#SVGID_96_);}
	.st122{fill:url(#SVGID_97_);}
	.st123{fill:url(#SVGID_98_);}
	.st124{fill:url(#SVGID_99_);}
	.st125{fill:url(#SVGID_100_);}
	.st126{fill:url(#SVGID_101_);}
	.st127{fill:url(#SVGID_102_);}
	.st128{fill:url(#SVGID_103_);}
	.st129{fill:url(#SVGID_104_);}
	.st130{fill:url(#SVGID_105_);}
	.st131{fill:url(#SVGID_106_);}
	.st132{fill:url(#SVGID_107_);}
	.st133{fill:url(#SVGID_108_);}
	.st134{fill:url(#SVGID_109_);}
	.st135{fill:#666666;}
	.st136{fill:none;}
	.st137{fill:url(#SVGID_110_);}
	.st138{opacity:0.5;}
	.st139{fill:url(#SVGID_111_);}
	.st140{fill:url(#SVGID_112_);}
	.st141{fill:url(#SVGID_113_);}
	.st142{fill:url(#SVGID_114_);}
	.st143{fill:url(#SVGID_115_);}
	.st144{fill:url(#SVGID_116_);}
	.st145{fill:url(#SVGID_117_);}
	.st146{fill:url(#SVGID_118_);}
	.st147{fill:url(#SVGID_119_);}
	.st148{fill:url(#SVGID_120_);}
	.st149{fill:url(#SVGID_121_);}
	.st150{fill:url(#SVGID_122_);}
	.st151{fill:url(#SVGID_123_);}
	.st152{fill:url(#SVGID_124_);}
	.st153{fill:url(#SVGID_125_);}
	.st154{fill:url(#SVGID_126_);}
	.st155{fill:url(#SVGID_127_);}
	.st156{fill:url(#SVGID_128_);}
	.st157{fill:url(#SVGID_129_);}
	.st158{fill:url(#SVGID_130_);}
	.st159{fill:url(#SVGID_131_);}
	.st160{fill:url(#SVGID_132_);}
	.st161{fill:url(#SVGID_133_);}
	.st162{fill:url(#SVGID_134_);}
	.st163{fill:url(#SVGID_135_);}
	.st164{fill:url(#SVGID_136_);}
	.st165{fill:url(#SVGID_137_);}
	.st166{fill:url(#SVGID_138_);}
	.st167{fill:url(#SVGID_139_);}
	.st168{fill:url(#SVGID_140_);}
	.st169{fill:none;stroke:#2D2D2D;stroke-width:2;stroke-miterlimit:10;}
	.st170{fill:url(#SVGID_147_);}
	.st171{fill:url(#SVGID_148_);}
	.st172{fill:url(#SVGID_149_);}
	.st173{clip-path:url(#SVGID_151_);}
	.st174{fill:#FBDD79;}
	.st175{fill:#736357;}
	.st176{fill:#534741;}
	.st177{fill:url(#SVGID_152_);}
	.st178{fill:#F2F2F2;}
	.st179{fill:#00B5E4;}
</style>
<g id="Layer_2">
</g>
<g id="Layer_6" class="st0">
	<g class="st1">
		<g>
			<g>
				<path class="st2" d="M19.84,77.75c1.93,0,1.93-3,0-3C17.91,74.75,17.91,77.75,19.84,77.75L19.84,77.75z"/>
			</g>
		</g>
		<g>
			<g>
				<path class="st2" d="M177.45,77.75c1.93,0,1.93-3,0-3C175.52,74.75,175.52,77.75,177.45,77.75L177.45,77.75z"/>
			</g>
		</g>
		<g>
			<g>
				<path class="st2" d="M335.06,77.75c1.93,0,1.93-3,0-3C333.12,74.75,333.12,77.75,335.06,77.75L335.06,77.75z"/>
			</g>
		</g>
		<g>
			<g>
				<path class="st2" d="M492.66,77.75c1.93,0,1.93-3,0-3C490.73,74.75,490.73,77.75,492.66,77.75L492.66,77.75z"/>
			</g>
		</g>
		<g>
			<g>
				<path class="st2" d="M650.27,77.75c1.93,0,1.93-3,0-3C648.34,74.75,648.33,77.75,650.27,77.75L650.27,77.75z"/>
			</g>
		</g>
		<g>
			<g>
				<path class="st2" d="M98.65,153.72c1.93,0,1.93-3,0-3C96.72,150.72,96.71,153.72,98.65,153.72L98.65,153.72z"/>
			</g>
		</g>
		<g>
			<g>
				<path class="st2" d="M256.25,153.72c1.93,0,1.93-3,0-3C254.32,150.72,254.32,153.72,256.25,153.72L256.25,153.72z"/>
			</g>
		</g>
		<g>
			<g>
				<path class="st2" d="M413.86,153.72c1.93,0,1.93-3,0-3C411.93,150.72,411.92,153.72,413.86,153.72L413.86,153.72z"/>
			</g>
		</g>
		<g>
			<g>
				<path class="st2" d="M571.46,153.72c1.93,0,1.93-3,0-3C569.53,150.72,569.53,153.72,571.46,153.72L571.46,153.72z"/>
			</g>
		</g>
		<g>
			<g>
				<path class="st2" d="M19.84,235.36c1.93,0,1.93-3,0-3C17.91,232.36,17.91,235.36,19.84,235.36L19.84,235.36z"/>
			</g>
		</g>
		<g>
			<g>
				<path class="st2" d="M177.45,235.36c1.93,0,1.93-3,0-3C175.52,232.36,175.52,235.36,177.45,235.36L177.45,235.36z"/>
			</g>
		</g>
		<g>
			<g>
				<path class="st2" d="M335.06,235.36c1.93,0,1.93-3,0-3C333.12,232.36,333.12,235.36,335.06,235.36L335.06,235.36z"/>
			</g>
		</g>
		<g>
			<g>
				<path class="st2" d="M492.66,235.36c1.93,0,1.93-3,0-3C490.73,232.36,490.73,235.36,492.66,235.36L492.66,235.36z"/>
			</g>
		</g>
		<g>
			<g>
				<path class="st2" d="M650.27,235.36c1.93,0,1.93-3,0-3C648.34,232.36,648.33,235.36,650.27,235.36L650.27,235.36z"/>
			</g>
		</g>
		<g>
			<g>
				<path class="st2" d="M98.65,311.33c1.93,0,1.93-3,0-3C96.72,308.33,96.71,311.33,98.65,311.33L98.65,311.33z"/>
			</g>
		</g>
		<g>
			<g>
				<path class="st2" d="M256.25,311.33c1.93,0,1.93-3,0-3C254.32,308.33,254.32,311.33,256.25,311.33L256.25,311.33z"/>
			</g>
		</g>
		<g>
			<g>
				<path class="st2" d="M413.86,311.33c1.93,0,1.93-3,0-3C411.93,308.33,411.92,311.33,413.86,311.33L413.86,311.33z"/>
			</g>
		</g>
		<g>
			<g>
				<path class="st2" d="M571.46,311.33c1.93,0,1.93-3,0-3C569.53,308.33,569.53,311.33,571.46,311.33L571.46,311.33z"/>
			</g>
		</g>
		<g>
			<g>
				<path class="st2" d="M19.84,392.96c1.93,0,1.93-3,0-3C17.91,389.96,17.91,392.96,19.84,392.96L19.84,392.96z"/>
			</g>
		</g>
		<g>
			<g>
				<path class="st2" d="M177.45,392.96c1.93,0,1.93-3,0-3C175.52,389.96,175.52,392.96,177.45,392.96L177.45,392.96z"/>
			</g>
		</g>
		<g>
			<g>
				<path class="st2" d="M335.06,392.96c1.93,0,1.93-3,0-3C333.12,389.96,333.12,392.96,335.06,392.96L335.06,392.96z"/>
			</g>
		</g>
		<g>
			<g>
				<path class="st2" d="M492.66,392.96c1.93,0,1.93-3,0-3C490.73,389.96,490.73,392.96,492.66,392.96L492.66,392.96z"/>
			</g>
		</g>
		<g>
			<g>
				<path class="st2" d="M650.27,392.96c1.93,0,1.93-3,0-3C648.34,389.96,648.33,392.96,650.27,392.96L650.27,392.96z"/>
			</g>
		</g>
		<g>
			<g>
				<path class="st2" d="M98.65,468.93c1.93,0,1.93-3,0-3C96.72,465.93,96.71,468.93,98.65,468.93L98.65,468.93z"/>
			</g>
		</g>
		<g>
			<g>
				<path class="st2" d="M256.25,468.93c1.93,0,1.93-3,0-3C254.32,465.93,254.32,468.93,256.25,468.93L256.25,468.93z"/>
			</g>
		</g>
		<g>
			<g>
				<path class="st2" d="M413.86,468.93c1.93,0,1.93-3,0-3C411.93,465.93,411.92,468.93,413.86,468.93L413.86,468.93z"/>
			</g>
		</g>
		<g>
			<g>
				<path class="st2" d="M571.46,468.93c1.93,0,1.93-3,0-3C569.53,465.93,569.53,468.93,571.46,468.93L571.46,468.93z"/>
			</g>
		</g>
		<g>
			<g>
				<path class="st2" d="M19.84,550.57c1.93,0,1.93-3,0-3C17.91,547.57,17.91,550.57,19.84,550.57L19.84,550.57z"/>
			</g>
		</g>
		<g>
			<g>
				<path class="st2" d="M177.45,550.57c1.93,0,1.93-3,0-3C175.52,547.57,175.52,550.57,177.45,550.57L177.45,550.57z"/>
			</g>
		</g>
		<g>
			<g>
				<path class="st2" d="M335.06,550.57c1.93,0,1.93-3,0-3C333.12,547.57,333.12,550.57,335.06,550.57L335.06,550.57z"/>
			</g>
		</g>
		<g>
			<g>
				<path class="st2" d="M492.66,550.57c1.93,0,1.93-3,0-3C490.73,547.57,490.73,550.57,492.66,550.57L492.66,550.57z"/>
			</g>
		</g>
		<g>
			<g>
				<path class="st2" d="M650.27,550.57c1.93,0,1.93-3,0-3C648.34,547.57,648.33,550.57,650.27,550.57L650.27,550.57z"/>
			</g>
		</g>
		<g>
			<g>
				<path class="st2" d="M98.65,626.54c1.93,0,1.93-3,0-3C96.72,623.54,96.71,626.54,98.65,626.54L98.65,626.54z"/>
			</g>
		</g>
		<g>
			<g>
				<path class="st2" d="M256.25,626.54c1.93,0,1.93-3,0-3C254.32,623.54,254.32,626.54,256.25,626.54L256.25,626.54z"/>
			</g>
		</g>
		<g>
			<g>
				<path class="st2" d="M413.86,626.54c1.93,0,1.93-3,0-3C411.93,623.54,411.92,626.54,413.86,626.54L413.86,626.54z"/>
			</g>
		</g>
		<g>
			<g>
				<path class="st2" d="M571.46,626.54c1.93,0,1.93-3,0-3C569.53,623.54,569.53,626.54,571.46,626.54L571.46,626.54z"/>
			</g>
		</g>
	</g>
</g>
<g id="Layer_7" class="st0">
	<g class="st1">
		<line class="st3" x1="-57.64" y1="1.37" x2="8.12" y2="69.5"/>
		<line class="st3" x1="-57.64" y1="145.94" x2="8.12" y2="82.54"/>
		<line class="st4" x1="8.12" y1="76.25" x2="-136.45" y2="76.25"/>
	</g>
	<g class="st1">
		<line class="st3" x1="-57.64" y1="158.97" x2="8.12" y2="227.1"/>
		<line class="st3" x1="-57.64" y1="303.54" x2="8.12" y2="240.14"/>
		<line class="st4" x1="8.12" y1="233.86" x2="-136.45" y2="233.86"/>
	</g>
	<g class="st1">
		<line class="st3" x1="-57.64" y1="316.58" x2="8.12" y2="384.71"/>
		<line class="st3" x1="-57.64" y1="461.15" x2="8.12" y2="397.75"/>
		<line class="st4" x1="8.12" y1="391.46" x2="-136.45" y2="391.46"/>
	</g>
	<g class="st1">
		<line class="st3" x1="-57.64" y1="474.19" x2="8.12" y2="542.32"/>
		<line class="st3" x1="-57.64" y1="618.75" x2="8.12" y2="555.36"/>
		<line class="st4" x1="8.12" y1="549.07" x2="-136.45" y2="549.07"/>
	</g>
	<g class="st1">
		<line class="st3" x1="-57.64" y1="631.79" x2="8.12" y2="699.92"/>
	</g>
</g>
<g id="Layer_5">
</g>
<g id="Layer_1">
	
		<radialGradient id="SVGID_2_" cx="393.8071" cy="288.1947" r="184.4735" fx="559.3373" fy="288.06" gradientUnits="userSpaceOnUse">
		<stop  offset="0" style="stop-color:#FBB03B"/>
		<stop  offset="0.3812" style="stop-color:#F9AE3A"/>
		<stop  offset="0.5911" style="stop-color:#F4A636"/>
		<stop  offset="0.7593" style="stop-color:#EC9830"/>
		<stop  offset="0.9046" style="stop-color:#DF8527"/>
		<stop  offset="0.943" style="stop-color:#DB7E24"/>
	</radialGradient>
	<path style="fill:url(#SVGID_2_);" d="M580.87,294.87c0,76.56-45.38,142.54-110.71,172.47l2.58-138.42l-218.75,96.75
		c-32.43-34.02-52.34-80.09-52.34-130.8c0-104.72,84.89-189.61,189.61-189.61S580.87,190.15,580.87,294.87z"/>
	<g>
		<path class="st44" d="M151.73,423.3l4.79,20.21c0,0,20.52,14.71,33.11,17.77l0.07,29.39c0,0-38.15-13.87-44.37-12.51
			c-6.22,1.36-10.7,16.11-10.7,16.11s-8.45-53.11-6.32-59.82s8.24-32.99,15.45-47.26c0,0-0.33,12.68,2.2,21.09
			C148.49,416.69,151.73,423.3,151.73,423.3z"/>
		
			<radialGradient id="SVGID_4_" cx="147.0052" cy="392.5535" r="332.6769" gradientTransform="matrix(1 -2.445428e-03 2.445428e-03 1 4.9402 -0.5847)" gradientUnits="userSpaceOnUse">
			<stop  offset="0.8325" style="stop-color:#191919"/>
			<stop  offset="1" style="stop-color:#191919;stop-opacity:0"/>
		</radialGradient>
		<path style="fill:url(#SVGID_4_);" d="M158.41,358.21c0,0-9.55,9.06-13.6,16.43c-3.74,6.81,0.04,16.29,0.04,16.29l3.53,14.49
			c0,0,52.65,13.92,83,22.12c30.35,8.2,88.6,5.64,90.75,8.06c2.15,2.41,4.87,14.84,0.06,23.53c-4.81,8.69-12.31,15.42-12.31,15.42
			l-1.57,17.18c0,0,16.9-3.8,26.83-4.36c9.93-0.56,43.76-0.11,43.76-0.11l90.63-44.78c0,0,13.32-40.3,27.27-44.63l-0.45-185.32
			c0,0-77.97-11.21-136.33,18.59c-7.3,3.73-13.09,7.53-21.35,13.39c-60.98,43.22-120.74,98.8-120.74,98.8L158.41,358.21z"/>
		
			<linearGradient id="SVGID_5_" gradientUnits="userSpaceOnUse" x1="324.3012" y1="337.7441" x2="401.9617" y2="286.8631" gradientTransform="matrix(1 -2.445428e-03 2.445428e-03 1 4.9402 -0.5847)">
			<stop  offset="0" style="stop-color:#4D4D4D"/>
			<stop  offset="0.5581" style="stop-color:#4D4D4D;stop-opacity:0.4419"/>
			<stop  offset="1" style="stop-color:#4D4D4D;stop-opacity:0"/>
		</linearGradient>
		<path style="fill:url(#SVGID_5_);" d="M496.41,239.74l-137.42-7.11c0,0-23.96,13.15-45.89,33.6s31.13,36.16,31.13,36.16
			l152.36,9.56L496.41,239.74z"/>
		<path class="st72" d="M370.46,419.28c0,0-16.67,7.3-17.47,9.76c-0.8,2.46-9.86,29.14-8.52,30.03c1.34,0.89,1.89,3.04,9.67,1.14
			c7.78-1.9,38.54-10.03,38.54-10.03l-7.97-38.01L370.46,419.28z"/>
		
			<linearGradient id="SVGID_7_" gradientUnits="userSpaceOnUse" x1="369.2246" y1="437.7889" x2="364.1241" y2="503.2894" gradientTransform="matrix(1 -2.445428e-03 2.445428e-03 1 4.9402 -0.5847)">
			<stop  offset="0.3246" style="stop-color:#4D4D4D"/>
			<stop  offset="1" style="stop-color:#4D4D4D;stop-opacity:0"/>
		</linearGradient>
		<path style="fill:url(#SVGID_7_);" d="M382.57,423.36c0,0-4.97,5.47-6.21,10.04c0,0-3.3,54.09-4.14,69.6
			c-0.84,15.51-6.05-3.26-6.05-3.26l-0.04-14.68c0,0-1.15-23.26,1.3-44.74c2.45-21.48,5.26-31.45,5.26-31.45l12.03,3.31
			L382.57,423.36z"/>
		
			<linearGradient id="SVGID_8_" gradientUnits="userSpaceOnUse" x1="421.8028" y1="334.6731" x2="417.3821" y2="499.8986" gradientTransform="matrix(1 -2.445428e-03 2.445428e-03 1 4.9402 -0.5847)">
			<stop  offset="0.7479" style="stop-color:#333333"/>
			<stop  offset="1" style="stop-color:#333333;stop-opacity:0"/>
		</linearGradient>
		<polygon class="st19" points="395.2,331.53 395.18,325.29 455.33,330.81 455.77,512.5 392.83,512.65 		"/>
		
			<linearGradient id="SVGID_9_" gradientUnits="userSpaceOnUse" x1="388.5727" y1="335.3725" x2="387.0454" y2="519.0319" gradientTransform="matrix(1 -2.445428e-03 2.445428e-03 1 4.9402 -0.5847)">
			<stop  offset="0.8788" style="stop-color:#4D4D4D"/>
			<stop  offset="1" style="stop-color:#4D4D4D;stop-opacity:0"/>
		</linearGradient>
		<polygon class="st22" points="391.3,323.2 389.5,521.06 396.38,524.52 398.15,319.53 		"/>
		<polygon class="st44" points="391.25,327.51 398.01,333.04 397.91,343.35 452.71,350.68 452.67,334.14 		"/>
		<polygon class="st47" points="391.25,327.51 454.5,334.33 458.2,165.92 387.87,165.2 387.19,326.26 		"/>
		
			<linearGradient id="SVGID_10_" gradientUnits="userSpaceOnUse" x1="418.6028" y1="332.1656" x2="417.8869" y2="366.6458" gradientTransform="matrix(1 -2.445428e-03 2.445428e-03 1 4.9402 -0.5847)">
			<stop  offset="0.509" style="stop-color:#4D4D4D"/>
			<stop  offset="1" style="stop-color:#4D4D4D;stop-opacity:0"/>
		</linearGradient>
		<path class="st23" d="M421.18,330.68l0.27,34.08c0,0,1.09,2.54,5.44,0.76l0.53-37.7L421.18,330.68z"/>
		
			<linearGradient id="SVGID_11_" gradientUnits="userSpaceOnUse" x1="418.9467" y1="168.2913" x2="412.4789" y2="553.7724" gradientTransform="matrix(1 -2.445428e-03 2.445428e-03 1 4.9402 -0.5847)">
			<stop  offset="0.867" style="stop-color:#333333"/>
			<stop  offset="0.9837" style="stop-color:#333333;stop-opacity:0"/>
		</linearGradient>
		<polygon class="st24" points="389.19,562.86 392.89,170.73 455.18,172.73 450.46,550.09 459.86,552.5 466.69,159.81 
			382.13,158.41 379.08,558.6 		"/>
		
			<linearGradient id="SVGID_12_" gradientUnits="userSpaceOnUse" x1="369.4354" y1="475.5072" x2="360.3335" y2="527.9118" gradientTransform="matrix(1 -2.445428e-03 2.445428e-03 1 4.9402 -0.5847)">
			<stop  offset="0.3484" style="stop-color:#4D4D4D"/>
			<stop  offset="1" style="stop-color:#4D4D4D;stop-opacity:0"/>
		</linearGradient>
		<path class="st25" d="M381.2,436.79l-0.4-0.78l2.68-2.18l5.42,3.97l-0.62,1.57c0,0-14.97,62.66-21.24,85.22
			c-6.27,22.56-7.63,1.93-7.63,1.93S372.65,479.2,381.2,436.79z"/>
		<path class="st97" d="M188.82,344.65c0,0-3.57,5.62-3.32,6.45c0.24,0.83,6.73,21.34,6.74,24.92c0,0,1.4-12.89,0.92-15.15
			c-0.48-2.27-2.04-5.72-2.04-5.72L188.82,344.65z"/>
		<path class="st64" d="M396.15,429.8c-0.77,2.09-3.51,2.57-3.51,2.57s-1.17-1.79-4.3-3.93s-6.36-1.33-6.36-1.33
			c-1.17-1.07,0.59-3.76,0.59-3.76l5.66-1.45L396.15,429.8z"/>
		<path class="st47" d="M436.9,406.32l-63.03-12.97c0,0,4.74-13.25,12.96-19.36c8.22-6.1,17.76-8.63,29.34-3.17
			S436.97,387.83,436.9,406.32z"/>
		<path class="st44" d="M436.9,406.32c0,0,3.61,12.88-7.23,20.18s-40.41-4.58-40.41-4.58l2.79-24.83L436.9,406.32z"/>
		<path class="st64" d="M390.3,427.15l-7.34-1.64l-2.75,10.39l0.99,0.89c-0.54-0.45,0.8-0.89,0.8-0.89
			c5.55,0.53,6.27,2.49,6.27,2.49l0,0.98c0.72,0.09,1.7-0.45,1.7-0.45l2.67-6.54L390.3,427.15z"/>
		<path class="st64" d="M410.24,394.95c0,0,2.44-2.8,2.07-5.39c-0.36-2.59,1.22-3.67,1.1-4.3c-0.12-0.63-1.13-2.41-1.08-3.67
			s2.4-6.54-2.14-8.05c-4.54-1.51-7.22-1.24-8.65,2.17c-1.42,3.4-3.3,4.3-4.28,4.75c-0.98,0.45-2.58,4.57-2.58,4.57l6.83,13.05
			L410.24,394.95z"/>
		
			<ellipse transform="matrix(1 -2.445428e-03 2.445428e-03 1 -0.7655 1.035)" class="st64" cx="422.86" cy="313.53" rx="10.56" ry="11.33"/>
		
			<ellipse transform="matrix(1 -2.445428e-03 2.445428e-03 1 -0.7694 1.0296)" class="st98" cx="420.63" cy="315.16" rx="7.07" ry="7.96"/>
		<circle class="st64" cx="401.38" cy="311.11" r="4.47"/>
		<circle class="st64" cx="442.19" cy="315.11" r="4.31"/>
		
			<linearGradient id="SVGID_13_" gradientUnits="userSpaceOnUse" x1="423.0335" y1="379.0593" x2="422.9244" y2="379.4917" gradientTransform="matrix(1 -2.445428e-03 2.445428e-03 1 4.9402 -0.5847)">
			<stop  offset="0" style="stop-color:#4D4D4D"/>
			<stop  offset="1" style="stop-color:#4D4D4D;stop-opacity:0"/>
		</linearGradient>
		<path class="st26" d="M429.62,378.27c-0.52-0.37-1.05-0.74-1.59-1.09C428.12,377.22,428.7,377.51,429.62,378.27z"/>
		
			<radialGradient id="SVGID_14_" cx="273.9955" cy="232.0283" r="324.7451" gradientTransform="matrix(1 -2.445428e-03 2.445428e-03 1 4.9402 -0.5847)" gradientUnits="userSpaceOnUse">
			<stop  offset="0.6698" style="stop-color:#999999"/>
			<stop  offset="0.9505" style="stop-color:#999999;stop-opacity:0"/>
		</radialGradient>
		<path class="st27" d="M179.26,557.56c0.25-5.64,1.93-90.97,1.92-93.93c-0.01-2.95,2.2-15.35,2.73-20.19s-0.04-14.5-0.04-14.5
			s-10.52-20.91-14.85-33.25c-4.33-12.34-10.29-36.75-11.37-40.24c-1.08-3.49-0.02-9.93,0.51-12s1.81-27.76,1.81-27.76l-3.79-10.96
			c2.14-3.76,8.48-43.78,9.28-48.61c0.79-4.83,6.54-11.36,7.49-12.1c3.33-2.6,8.45-7.33,15.72-11.04s39.21-16.92,39.21-16.92
			l7.72-14.57l8.47-2.17c3.44-6.93,2.58-18.5,2.58-18.5s-2.55-18.37-3.16-22.78c-0.61-4.41-0.38-11.99,3.77-19.46
			c10.57-19,33.61-15.95,41.13-13.34c7.52,2.61,17.15,10.46,20.5,16.89c3.36,6.43,5.06,5.25,5.89,7.23
			c0.64,1.53-3.88,7.08-3.88,7.08s1.84,18.73,1.98,19.92c0.26,2.12-5.02,7.65-5.13,9.68c-0.11,2.03,1.21,7.63,2.17,10.37
			c0.96,2.74,0.73,5.25-0.7,5.37c-1.43,0.12-4.41,0.73-4.41,0.73s-0.47,4.3-0.58,5.73s-2.26,1.68-2.26,1.68l-0.35,4.53l-1.55,1.32
			c0,0-0.34,5.37-0.34,7.28c0,1.91-4.4,4.31-4.4,4.31c10.62,1.41,24.12,7.46,24.12,7.46l2.51,3.33c0,0,1.91,0,4.78,1.54
			c2.87,1.54,5.65,15.62,7.81,21.22c2.16,5.6,2.32,23.5,2.32,23.5s3.24,6.55,5.15,9.65c1.92,3.1,3.38,16.46,4.71,25.28
			c1.33,8.83,8.63,17.16,14.86,24.9c6.22,7.74,11.38,19.9,12.1,22.28c0.72,2.38,11.04,23.95,11.04,23.95s4.05-3.11,6.43-5.5
			c2.38-2.39,6.79-2.76,7.75-3.72c4.41-4.43,5.48-3,7.39-2.52c1.91,0.47,1.21,5.13-0.1,6.32c-1.31,1.2-3.2,9.67-1.76,10.15
			c1.43,0.47,4.23-0.3,4.95-0.31c3.31-0.07,3.81,3.57,4.05,4.64c0.24,1.07-1.7,4.48-2.06,5.67s1.8,4.89,2.04,5.84
			c0.24,0.95-0.59,3.94-1.3,4.89c-0.71,0.96-0.95,3.34-1.06,4.42s-1.07,2.15-2.14,2.75s-4.41,2.99-5,4.9
			c-0.59,1.91-6.8,1.81-7.75,1.81c-0.95,0-16.84-7.12-19.23-10.69s-2.76-6.67-3.24-8.82c-0.48-2.15-13.51-11.84-22.66-20.41
			s-26.38-31.34-27.75-39.39c-1.36-8.05-13.22-26.54-13.22-26.54c-3.99,14.51-0.45,36.51-0.17,40.8c0.28,4.29,1.37,13.15-0.49,18.79
			c-1.87,5.64,0.85,18.52,1.69,31.94c0.84,13.42,6.25,30.59,6.79,33.54c0.54,2.95,4.5,12.08,5.04,13.95s-1.32,7.79-1.35,11.01
			c-0.03,3.22,16.12,83.1,16.12,83.1L179.26,557.56z"/>
		
			<linearGradient id="SVGID_15_" gradientUnits="userSpaceOnUse" x1="435.262" y1="384.185" x2="413.9647" y2="468.5549" gradientTransform="matrix(1 -2.445428e-03 2.445428e-03 1 4.9402 -0.5847)">
			<stop  offset="0" style="stop-color:#4D4D4D"/>
			<stop  offset="1" style="stop-color:#4D4D4D;stop-opacity:0"/>
		</linearGradient>
		<path class="st32" d="M457.5,425.33c-4.55-33.28-11.56-44.89-27.51-53.27c-15.95-8.37-23.8-4.13-23.8-4.13l7.09,12.08
			c0,0,19.17,12.6,24.19,26.79c5.01,14.19,5.99,58.39,4.06,72.89c-1.93,14.5-6.66,22.03-6.66,22.03s7.02,15.82,12.89,3.1
			C453.63,492.09,462.05,458.6,457.5,425.33z M444.87,495.16c0,0,5.52-30.21,2.35-64.07c-3.52-37.57-13.62-49.5-17.57-52.79
			c19.65,14.25,21.77,41.48,22.71,67.09C453.31,471.69,444.87,495.16,444.87,495.16z"/>
		<path class="st72" d="M143.77,387.2c0,0-1.88,11.25-0.56,15.73c1.32,4.47,8.52,20.38,8.52,20.38l-3.44-16.99L143.77,387.2z"/>
		<linearGradient id="SVGID_16_" gradientUnits="userSpaceOnUse" x1="465.9401" y1="428.0324" x2="463.6724" y2="519.308">
			<stop  offset="0" style="stop-color:#191919"/>
			<stop  offset="1" style="stop-color:#191919;stop-opacity:0"/>
		</linearGradient>
		<polygon class="st33" points="466.69,159.81 477.96,159.79 474.35,327.7 472.74,328.92 469.26,515.41 459.79,520.89 		"/>
	</g>
</g>
<g id="Layer_3">
</g>
<g id="Layer_4">
</g>
</svg>
