<?xml version="1.0" encoding="utf-8"?>
<!-- Generator: Adobe Illustrator 23.0.0, SVG Export Plug-In . SVG Version: 6.00 Build 0)  -->
<svg version="1.1" id="Layer_1" xmlns="http://www.w3.org/2000/svg" xmlns:xlink="http://www.w3.org/1999/xlink" x="0px" y="0px"
	 viewBox="0 0 718.9 668.1" style="enable-background:new 0 0 718.9 668.1;" xml:space="preserve">
<style type="text/css">
	.st0{display:none;}
	.st1{display:inline;}
	.st2{fill:#3A3A3A;}
	.st3{fill:none;stroke:#3A3A3A;stroke-miterlimit:10;}
	.st4{fill:none;stroke:#1C1C1C;stroke-miterlimit:10;}
	.st5{fill:url(#SVGID_1_);}
	.st6{fill:url(#SVGID_2_);}
	.st7{fill:#333333;}
	.st8{fill:url(#SVGID_3_);}
	.st9{fill:url(#SVGID_4_);}
	.st10{fill:#191919;}
	.st11{fill:url(#SVGID_5_);}
	.st12{fill:url(#SVGID_6_);}
	.st13{fill:url(#SVGID_7_);}
	.st14{fill:url(#SVGID_8_);}
	.st15{fill:url(#SVGID_9_);}
	.st16{fill:url(#SVGID_10_);}
</style>
<g id="Layer_6" class="st0">
	<g class="st1">
		<g>
			<g>
				<path class="st2" d="M98.7,69.8c1.9,0,1.9-3,0-3S96.7,69.8,98.7,69.8L98.7,69.8z"/>
			</g>
		</g>
		<g>
			<g>
				<path class="st2" d="M256.3,69.8c1.9,0,1.9-3,0-3S254.3,69.8,256.3,69.8L256.3,69.8z"/>
			</g>
		</g>
		<g>
			<g>
				<path class="st2" d="M413.9,69.8c1.9,0,1.9-3,0-3S411.9,69.8,413.9,69.8L413.9,69.8z"/>
			</g>
		</g>
		<g>
			<g>
				<path class="st2" d="M571.5,69.8c1.9,0,1.9-3,0-3S569.5,69.8,571.5,69.8L571.5,69.8z"/>
			</g>
		</g>
		<g>
			<g>
				<path class="st2" d="M19.8,151.4c1.9,0,1.9-3,0-3S17.9,151.4,19.8,151.4L19.8,151.4z"/>
			</g>
		</g>
		<g>
			<g>
				<path class="st2" d="M177.4,151.4c1.9,0,1.9-3,0-3S175.5,151.4,177.4,151.4L177.4,151.4z"/>
			</g>
		</g>
		<g>
			<g>
				<path class="st2" d="M335.1,151.4c1.9,0,1.9-3,0-3C333.1,148.4,333.1,151.4,335.1,151.4L335.1,151.4z"/>
			</g>
		</g>
		<g>
			<g>
				<path class="st2" d="M492.7,151.4c1.9,0,1.9-3,0-3S490.7,151.4,492.7,151.4L492.7,151.4z"/>
			</g>
		</g>
		<g>
			<g>
				<path class="st2" d="M650.3,151.4c1.9,0,1.9-3,0-3S648.3,151.4,650.3,151.4L650.3,151.4z"/>
			</g>
		</g>
		<g>
			<g>
				<path class="st2" d="M98.7,227.4c1.9,0,1.9-3,0-3S96.7,227.4,98.7,227.4L98.7,227.4z"/>
			</g>
		</g>
		<g>
			<g>
				<path class="st2" d="M256.3,227.4c1.9,0,1.9-3,0-3S254.3,227.4,256.3,227.4L256.3,227.4z"/>
			</g>
		</g>
		<g>
			<g>
				<path class="st2" d="M413.9,227.4c1.9,0,1.9-3,0-3S411.9,227.4,413.9,227.4L413.9,227.4z"/>
			</g>
		</g>
		<g>
			<g>
				<path class="st2" d="M571.5,227.4c1.9,0,1.9-3,0-3S569.5,227.4,571.5,227.4L571.5,227.4z"/>
			</g>
		</g>
		<g>
			<g>
				<path class="st2" d="M19.8,309.1c1.9,0,1.9-3,0-3S17.9,309.1,19.8,309.1L19.8,309.1z"/>
			</g>
		</g>
		<g>
			<g>
				<path class="st2" d="M177.4,309.1c1.9,0,1.9-3,0-3S175.5,309.1,177.4,309.1L177.4,309.1z"/>
			</g>
		</g>
		<g>
			<g>
				<path class="st2" d="M335.1,309.1c1.9,0,1.9-3,0-3C333.1,306.1,333.1,309.1,335.1,309.1L335.1,309.1z"/>
			</g>
		</g>
		<g>
			<g>
				<path class="st2" d="M492.7,309.1c1.9,0,1.9-3,0-3S490.7,309.1,492.7,309.1L492.7,309.1z"/>
			</g>
		</g>
		<g>
			<g>
				<path class="st2" d="M650.3,309.1c1.9,0,1.9-3,0-3S648.3,309.1,650.3,309.1L650.3,309.1z"/>
			</g>
		</g>
		<g>
			<g>
				<path class="st2" d="M98.7,385c1.9,0,1.9-3,0-3S96.7,385,98.7,385L98.7,385z"/>
			</g>
		</g>
		<g>
			<g>
				<path class="st2" d="M256.3,385c1.9,0,1.9-3,0-3S254.3,385,256.3,385L256.3,385z"/>
			</g>
		</g>
		<g>
			<g>
				<path class="st2" d="M413.9,385c1.9,0,1.9-3,0-3S411.9,385,413.9,385L413.9,385z"/>
			</g>
		</g>
		<g>
			<g>
				<path class="st2" d="M571.5,385c1.9,0,1.9-3,0-3S569.5,385,571.5,385L571.5,385z"/>
			</g>
		</g>
		<g>
			<g>
				<path class="st2" d="M19.8,466.7c1.9,0,1.9-3,0-3S17.9,466.7,19.8,466.7L19.8,466.7z"/>
			</g>
		</g>
		<g>
			<g>
				<path class="st2" d="M177.4,466.7c1.9,0,1.9-3,0-3S175.5,466.7,177.4,466.7L177.4,466.7z"/>
			</g>
		</g>
		<g>
			<g>
				<path class="st2" d="M335.1,466.7c1.9,0,1.9-3,0-3C333.1,463.7,333.1,466.7,335.1,466.7L335.1,466.7z"/>
			</g>
		</g>
		<g>
			<g>
				<path class="st2" d="M492.7,466.7c1.9,0,1.9-3,0-3S490.7,466.7,492.7,466.7L492.7,466.7z"/>
			</g>
		</g>
		<g>
			<g>
				<path class="st2" d="M650.3,466.7c1.9,0,1.9-3,0-3S648.3,466.7,650.3,466.7L650.3,466.7z"/>
			</g>
		</g>
		<g>
			<g>
				<path class="st2" d="M98.7,542.6c1.9,0,1.9-3,0-3S96.7,542.6,98.7,542.6L98.7,542.6z"/>
			</g>
		</g>
		<g>
			<g>
				<path class="st2" d="M256.3,542.6c1.9,0,1.9-3,0-3S254.3,542.6,256.3,542.6L256.3,542.6z"/>
			</g>
		</g>
		<g>
			<g>
				<path class="st2" d="M413.9,542.6c1.9,0,1.9-3,0-3S411.9,542.6,413.9,542.6L413.9,542.6z"/>
			</g>
		</g>
		<g>
			<g>
				<path class="st2" d="M571.5,542.6c1.9,0,1.9-3,0-3S569.5,542.6,571.5,542.6L571.5,542.6z"/>
			</g>
		</g>
		<g>
			<g>
				<path class="st2" d="M19.8,624.3c1.9,0,1.9-3,0-3S17.9,624.3,19.8,624.3L19.8,624.3z"/>
			</g>
		</g>
		<g>
			<g>
				<path class="st2" d="M177.4,624.3c1.9,0,1.9-3,0-3S175.5,624.3,177.4,624.3L177.4,624.3z"/>
			</g>
		</g>
		<g>
			<g>
				<path class="st2" d="M335.1,624.3c1.9,0,1.9-3,0-3C333.1,621.3,333.1,624.3,335.1,624.3L335.1,624.3z"/>
			</g>
		</g>
		<g>
			<g>
				<path class="st2" d="M492.7,624.3c1.9,0,1.9-3,0-3S490.7,624.3,492.7,624.3L492.7,624.3z"/>
			</g>
		</g>
		<g>
			<g>
				<path class="st2" d="M650.3,624.3c1.9,0,1.9-3,0-3S648.3,624.3,650.3,624.3L650.3,624.3z"/>
			</g>
		</g>
	</g>
</g>
<g id="Layer_7" class="st0">
	<g class="st1">
		<line class="st3" x1="-57.6" y1="62" x2="8.1" y2="-1.4"/>
	</g>
	<g class="st1">
		<line class="st3" x1="-57.6" y1="75.1" x2="8.1" y2="143.2"/>
		<line class="st3" x1="-57.6" y1="219.6" x2="8.1" y2="156.2"/>
		<line class="st4" x1="8.1" y1="149.9" x2="-136.4" y2="149.9"/>
	</g>
	<g class="st1">
		<line class="st3" x1="-57.6" y1="232.7" x2="8.1" y2="300.8"/>
		<line class="st3" x1="-57.6" y1="377.2" x2="8.1" y2="313.8"/>
		<line class="st4" x1="8.1" y1="307.6" x2="-136.4" y2="307.6"/>
	</g>
	<g class="st1">
		<line class="st3" x1="-57.6" y1="390.3" x2="8.1" y2="458.4"/>
		<line class="st3" x1="-57.6" y1="534.8" x2="8.1" y2="471.5"/>
		<line class="st4" x1="8.1" y1="465.2" x2="-136.4" y2="465.2"/>
	</g>
	<g class="st1">
		<line class="st3" x1="-57.6" y1="547.9" x2="8.1" y2="616"/>
		<line class="st3" x1="-57.6" y1="692.5" x2="8.1" y2="629.1"/>
		<line class="st4" x1="8.1" y1="622.8" x2="-136.4" y2="622.8"/>
	</g>
</g>
<g id="Layer_5">
</g>
<g>
	
		<radialGradient id="SVGID_1_" cx="317.1729" cy="393.6174" r="180.0809" fx="464.1378" fy="412.792" gradientTransform="matrix(1 0 0 -1 0 670)" gradientUnits="userSpaceOnUse">
		<stop  offset="0" style="stop-color:#49B574"/>
		<stop  offset="0.3353" style="stop-color:#47B372"/>
		<stop  offset="0.5199" style="stop-color:#3FAB6C"/>
		<stop  offset="0.6678" style="stop-color:#329D61"/>
		<stop  offset="0.7964" style="stop-color:#208951"/>
		<stop  offset="0.9112" style="stop-color:#08703E"/>
		<stop  offset="0.943" style="stop-color:#006837"/>
	</radialGradient>
	<path class="st5" d="M469.2,172.3L469.2,172.3L306.9,470.1c-97.9-6-175.4-87.3-175.4-186.7c0-103.3,83.8-187.1,187.1-187.1
		C380.3,96.3,435.1,126.2,469.2,172.3z"/>
	<g>
		
			<linearGradient id="SVGID_2_" gradientUnits="userSpaceOnUse" x1="219.9225" y1="461.492" x2="672.1025" y2="242.2911" gradientTransform="matrix(1 0 0 -1 0 670)">
			<stop  offset="0.4574" style="stop-color:#333333"/>
			<stop  offset="0.7476" style="stop-color:#333333;stop-opacity:0.1256"/>
			<stop  offset="0.7478" style="stop-color:#333333;stop-opacity:0.125"/>
			<stop  offset="0.802" style="stop-color:#333333;stop-opacity:0"/>
		</linearGradient>
		<path class="st6" d="M225.2,281.6c0,0,13.6-20.2,16.6-27.3s48-71.6,92.7-77.5c134-17.9,344.2,15.4,344.2,15.4L564.6,614
			c0,0-179.2-84.2-232.7-122.5c-30.5-21.8-89.4-84.4-101.9-109.7c-12.5-25.3-42.8-62.9-42.8-62.9L225.2,281.6z"/>
		<path class="st7" d="M263.3,289.2c0,0,0.9-21.1,8.5-26.2s70-46.6,72.4-45.7c2.5,0.9,5.6,3.8,2.2,13.7c-3.4,9.9-5.6,15-5.6,23.5
			c0,8.5,0,106,0,115.7c0,9.6-3.4,21.1-13,18.8c-9.6-2.2-41.5-12.5-46.4-16.4c-4.9-3.8-12.8-17.5-14.6-42.4
			C265.1,305.3,263.3,289.2,263.3,289.2z"/>
		
			<linearGradient id="SVGID_3_" gradientUnits="userSpaceOnUse" x1="319.0181" y1="319.6235" x2="316.0872" y2="400.3568" gradientTransform="matrix(1 0 0 -1 0 670)">
			<stop  offset="0" style="stop-color:#4D4D4D;stop-opacity:0"/>
			<stop  offset="0.5319" style="stop-color:#4D4D4D"/>
		</linearGradient>
		<path class="st8" d="M340.9,295.7v28.6c-3.5,15.3-12.4,26.1-22.8,26.1c-13.4,0-24.3-18.1-24.3-40.4c0-22.3,10.9-40.4,24.3-40.4
			C328.5,269.6,337.4,280.4,340.9,295.7z"/>
		
			<linearGradient id="SVGID_4_" gradientUnits="userSpaceOnUse" x1="306.5475" y1="305.6671" x2="302.6176" y2="413.9154" gradientTransform="matrix(1 0 0 -1 0 670)">
			<stop  offset="0" style="stop-color:#29ABE2;stop-opacity:0"/>
			<stop  offset="1" style="stop-color:#29ABE2"/>
		</linearGradient>
		<path class="st9" d="M316.2,359.3c3.5,0,6.9-1.3,9.9-3.6c-4.5,5.4-9.9,8.5-15.6,8.5c-16,0-29-24.3-29-54.2c0-29.9,13-54.2,29-54.2
			c5.8,0,11.1,3.1,15.6,8.5c-3.1-2.3-6.4-3.6-9.9-3.6c-14.6,0-26.4,22-26.4,49.3C289.8,337.2,301.6,359.3,316.2,359.3z"/>
		<path class="st10" d="M121.1,374.3c0,0,15.4,32.4,18.7,37.1c3.4,4.7,14.8,15.5,28.3,7.7c13.4-7.7,66.3-30.2,72-44.9
			c5.7-14.6,6.4-26-6.1-41.5c-12.4-15.5-62.6-13.7-62.6-13.7L121.1,374.3z"/>
		<g>
			
				<linearGradient id="SVGID_5_" gradientUnits="userSpaceOnUse" x1="250.9733" y1="400.1856" x2="249.8394" y2="360.5005" gradientTransform="matrix(1 0 0 -1 0 670)">
				<stop  offset="8.379889e-03" style="stop-color:#4D4D4D"/>
				<stop  offset="0.5887" style="stop-color:#3F3F3F"/>
				<stop  offset="1" style="stop-color:#333333"/>
			</linearGradient>
			<path class="st11" d="M327.1,272.4c0,0,7.3,2.6,7.3,29.9c0,34.5-7.3,35-7.3,35s-29.9,0-35.9,0c-2.7,0-5.6-1.2-8.7-2.1
				c0,0,0,0,0,0c0,0,0,0,0,0c-0.5-0.3-6.2-4.1-11.9-8.7c-6-4.8-13.5-1.8-19,0c-5.6,1.8-36.3,23.6-39.9,26.6c-3.6,3-6.9,5.7-7.5,10.2
				c-0.6,4.5,3.6,18,3.6,18c-5,6.5-5.4,9.6-7.3,10.3c-3.1,1.2-3.7,2.2-4.4,1l-31.5-33.8c0,0-1.5-2.4,0.3-4.1
				c0.6-0.6,3.7-3.5,8.1-7.6c0,0,8.8,1.6,12.7,1.6c3.9,0,9.3,0,12.9-2.7c3.6-2.7,40.4-28.4,50.2-34.7c9.9-6.3,25.4-8.1,32.3-10.2
				c6.9-2.1,9.9-10.2,8.4-12.6c-1.5-2.4-48-6.5-48-6.5c0.5-1.9,0.9-3.3,1.9-3.7C245.8,277.3,248.8,273.8,327.1,272.4z"/>
			<path class="st7" d="M196.1,392.6l-21.1,13l-3.9-3.7l-18.8-20l-2.5-2.8c0,0,12.4-20.2,13.1-20.3c0.7-0.1,1.8,0.1,1.8,0.1
				L196.1,392.6z"/>
			
				<linearGradient id="SVGID_6_" gradientUnits="userSpaceOnUse" x1="212.6638" y1="325.8213" x2="131.2853" y2="249.8232" gradientTransform="matrix(1 0 0 -1 0 670)">
				<stop  offset="0" style="stop-color:#191919;stop-opacity:0"/>
				<stop  offset="0.3212" style="stop-color:#191919"/>
				<stop  offset="0.7598" style="stop-color:#191919"/>
				<stop  offset="1" style="stop-color:#191919;stop-opacity:0"/>
			</linearGradient>
			<path class="st12" d="M167.8,401.8c0,0-0.9,1.6,0,2.5L132.1,437l-17-17.2l35-34.5l2.5,0.9l-0.3-4.3l18.8,20L167.8,401.8
				L167.8,401.8z"/>
			
				<linearGradient id="SVGID_7_" gradientUnits="userSpaceOnUse" x1="199.4692" y1="314.0626" x2="242.176" y2="361.4773" gradientTransform="matrix(1 0 0 -1 0 670)">
				<stop  offset="0" style="stop-color:#29ABE2;stop-opacity:0"/>
				<stop  offset="1" style="stop-color:#29ABE2"/>
			</linearGradient>
			<path class="st13" d="M281,301.1c-6.9,2.1-22.4,3.9-32.3,10.2c-9.9,6.3-46.6,32-50.2,34.7c-3.6,2.7-9,2.7-12.9,2.7
				c-3.9,0-12.7-1.6-12.7-1.6c0.3-0.3,0.5-0.5,0.8-0.8c0.5-0.5,1.1-1,1.6-1.5c0,0,0,0,0.1,0c2-1.9,4.2-3.9,6.6-6.1
				c0.7-0.6,1.3-1.2,2-1.9c1.5-1.4,3.1-2.8,4.7-4.3c0.5-0.5,1.1-1,1.6-1.4c5-4.4,10-8.9,14.5-12.5c15.5-12.9,29.4-22.9,33.2-28
				c2.1-2.9,2.8-6.1,3.4-8.5l0,0c0,0,46.5,4.1,48,6.5C290.9,290.9,287.9,299,281,301.1z"/>
			
				<linearGradient id="SVGID_8_" gradientUnits="userSpaceOnUse" x1="178.8479" y1="326.1591" x2="178.6823" y2="330.7207" gradientTransform="matrix(1 0 0 -1 0 670)">
				<stop  offset="0" style="stop-color:#4D4D4D;stop-opacity:0"/>
				<stop  offset="0.5319" style="stop-color:#4D4D4D"/>
			</linearGradient>
			<path class="st14" d="M175.5,344.7c2-1.9,4.2-3.9,6.6-6.1C179.7,340.8,177.5,342.9,175.5,344.7z"/>
			
				<linearGradient id="SVGID_9_" gradientUnits="userSpaceOnUse" x1="209.0405" y1="286.6872" x2="265.1985" y2="344.8626" gradientTransform="matrix(1 0 0 -1 0 670)">
				<stop  offset="0" style="stop-color:#29ABE2;stop-opacity:0"/>
				<stop  offset="1" style="stop-color:#29ABE2"/>
			</linearGradient>
			<path class="st15" d="M282.5,335.2c-3.6-1.1-7.4-1.8-11.3,0.3c-7.2,3.9-22.4,9.3-45.4,28.1c-9.2,7.5-14.6,13.4-17.9,17.7l0,0
				c0,0-4.2-13.5-3.6-18c0.6-4.5,3.9-7.2,7.5-10.2c3.6-3,34.3-24.8,39.8-26.6s13.1-4.8,19,0C276.3,331.1,282.1,334.9,282.5,335.2z"
				/>
		</g>
		
			<radialGradient id="SVGID_10_" cx="264.462" cy="273.5096" r="203.5573" gradientTransform="matrix(1 0 0 -1 0 670)" gradientUnits="userSpaceOnUse">
			<stop  offset="0.6883" style="stop-color:#999999"/>
			<stop  offset="1" style="stop-color:#999999;stop-opacity:0"/>
		</radialGradient>
		<path class="st16" d="M72.9,269.6c0,0,60.8,42.7,63.7,46.3c2.9,3.6,10.8,9,17.7,5.2s27.6-18.4,29.1-19.7
			c1.6-1.4,10.1-3.4,12.3-4.9s12.8-12,15.5-12.5c7.8-1.7,27.4-3.8,28.5-3.8s0.4,0.1,0.9,3.1c0.4,3-5.4,10.3-9.2,12.7
			s-15.9,7.5-17.9,9.5s-10.4,11.2-10.4,11.2s12.2,6.7,15.3,7.9s17.9,9.6,20.6,11.2c2.7,1.6,11.9,10.8,12.1,16.6
			c0.2,5.8-0.2,11-4.7,12.3c-4.5,1.4-14.8-3.4-14.8-3.4s4.9,4.7,6.1,7.2s-0.4,10.5-4,12.3s-5.4,1.6-7.4,0c0,0,1.8,6,0,9.4
			c-1.8,3.4-8.1,7.4-14.1,4c0,0,0.4,5.8-2.2,7.9c-2.7,2-9.6,2.9-12.1,3.8s-8.7,2-20.2,0s-25.6-5.4-32.9-13.5S128.5,378,118,372.6
			s-79.2-47.9-79.2-47.9L72.9,269.6z"/>
	</g>
</g>
<g id="Layer_3">
</g>
<g id="Layer_4">
</g>
</svg>
