<?xml version="1.0" encoding="utf-8"?>
<!-- Generator: Adobe Illustrator 23.0.0, SVG Export Plug-In . SVG Version: 6.00 Build 0)  -->
<svg version="1.1" xmlns="http://www.w3.org/2000/svg" xmlns:xlink="http://www.w3.org/1999/xlink" x="0px" y="0px"
	 viewBox="0 0 718.87 668.12" style="enable-background:new 0 0 718.87 668.12;" xml:space="preserve">
<style type="text/css">
	.st0{display:none;}
	.st1{display:inline;}
	.st2{fill:#3A3A3A;}
	.st3{fill:none;stroke:#3A3A3A;stroke-miterlimit:10;}
	.st4{fill:none;stroke:#1C1C1C;stroke-miterlimit:10;}
	.st5{display:inline;fill:none;stroke:#3A3A3A;stroke-miterlimit:10;}
	.st6{display:inline;fill:none;stroke:#1C1C1C;stroke-miterlimit:10;}
	.st7{opacity:0.9;fill:#F7BD19;}
	.st8{fill:#FFFFFF;}
	.st9{fill:#6B6B6B;}
	.st10{fill:#494949;}
	.st11{opacity:0.5;clip-path:url(#SVGID_4_);fill:url(#SVGID_5_);}
	.st12{fill:#565656;}
	.st13{fill:#353535;}
	.st14{fill:#727272;}
	.st15{fill:#282828;}
	.st16{fill:#606060;}
	.st17{fill:#29ABE2;}
	.st18{fill:#848484;}
	.st19{fill:url(#SVGID_8_);}
	.st20{fill:none;stroke:#CCCCCC;stroke-width:0.75;stroke-linecap:round;stroke-linejoin:round;stroke-miterlimit:10;}
	.st21{fill:none;stroke:#999999;stroke-linecap:round;stroke-linejoin:round;stroke-miterlimit:10;}
	.st22{fill:url(#SVGID_9_);}
	.st23{fill:url(#SVGID_10_);}
	.st24{fill:url(#SVGID_11_);}
	.st25{fill:url(#SVGID_12_);}
	.st26{fill:url(#SVGID_13_);}
	.st27{fill:url(#SVGID_14_);}
	.st28{fill:none;stroke:#EFEFEF;stroke-miterlimit:10;}
	.st29{fill:#F9DC79;}
	.st30{fill:#F7BD19;}
	.st31{opacity:0.8;}
	.st32{fill:url(#SVGID_15_);}
	.st33{fill:url(#SVGID_16_);}
	.st34{fill:url(#SVGID_17_);}
	.st35{fill:url(#SVGID_18_);}
	.st36{fill:url(#SVGID_19_);}
	.st37{fill:url(#SVGID_20_);}
	.st38{fill:url(#SVGID_21_);}
	.st39{fill:url(#SVGID_22_);}
	.st40{fill:url(#SVGID_25_);}
	.st41{fill:#2F3948;}
	.st42{fill:none;stroke:#F7BD19;stroke-width:6;stroke-linecap:round;stroke-linejoin:round;stroke-miterlimit:10;}
	.st43{fill:url(#SVGID_26_);}
	.st44{fill:#191919;}
	.st45{fill:url(#SVGID_27_);}
	.st46{fill:url(#SVGID_28_);}
	.st47{fill:#4D4D4D;}
	.st48{fill:url(#SVGID_29_);}
	.st49{fill:url(#SVGID_30_);}
	.st50{fill:#CCCCCC;}
	.st51{fill:url(#SVGID_31_);}
	.st52{fill:#FABF14;}
	.st53{fill:url(#SVGID_32_);}
	.st54{fill:url(#SVGID_33_);}
	.st55{fill:url(#SVGID_34_);}
	.st56{fill:url(#SVGID_35_);}
	.st57{fill:url(#SVGID_36_);}
	.st58{fill:url(#SVGID_37_);}
	.st59{fill:url(#SVGID_38_);}
	.st60{fill:url(#SVGID_39_);}
	.st61{fill:url(#SVGID_40_);}
	.st62{fill:url(#SVGID_41_);}
	.st63{fill:url(#SVGID_42_);}
	.st64{fill:#333333;}
	.st65{fill:url(#SVGID_43_);}
	.st66{fill:url(#SVGID_44_);}
	.st67{fill:url(#SVGID_45_);}
	.st68{opacity:0.7;fill:url(#SVGID_46_);}
	.st69{fill:url(#SVGID_47_);}
	.st70{fill:url(#SVGID_48_);}
	.st71{fill:url(#SVGID_49_);}
	.st72{fill:#999999;}
	.st73{fill:url(#SVGID_50_);}
	.st74{opacity:0.8;fill:url(#SVGID_51_);}
	.st75{fill:url(#SVGID_52_);}
	.st76{fill:url(#SVGID_53_);}
	.st77{fill:url(#SVGID_54_);}
	.st78{fill:url(#SVGID_55_);}
	.st79{fill:url(#SVGID_56_);}
	.st80{fill:url(#SVGID_57_);}
	.st81{fill:url(#SVGID_58_);}
	.st82{fill:url(#SVGID_59_);}
	.st83{opacity:0.7;fill:url(#SVGID_60_);}
	.st84{fill:url(#SVGID_61_);}
	.st85{fill:url(#SVGID_62_);}
	.st86{fill:url(#SVGID_63_);}
	.st87{fill:url(#SVGID_64_);}
	.st88{opacity:0.8;fill:url(#SVGID_65_);}
	.st89{fill:url(#SVGID_66_);}
	.st90{fill:url(#SVGID_67_);}
	.st91{fill:url(#SVGID_68_);}
	.st92{fill:url(#SVGID_69_);}
	.st93{fill:url(#SVGID_70_);}
	.st94{fill:url(#SVGID_71_);}
	.st95{fill:url(#SVGID_72_);}
	.st96{fill:url(#SVGID_73_);}
	.st97{fill:#FFFFFF;stroke:#000000;stroke-miterlimit:10;}
	.st98{fill:#C1272D;}
	.st99{fill:url(#SVGID_74_);}
	.st100{fill:url(#SVGID_75_);}
	.st101{fill:url(#SVGID_76_);}
	.st102{fill:url(#SVGID_77_);}
	.st103{fill:url(#SVGID_78_);}
	.st104{fill:url(#SVGID_79_);}
	.st105{fill:url(#SVGID_80_);}
	.st106{fill:url(#SVGID_81_);}
	.st107{fill:url(#SVGID_82_);}
	.st108{fill:url(#SVGID_83_);}
	.st109{fill:url(#SVGID_84_);}
	.st110{fill:url(#SVGID_85_);}
	.st111{fill:url(#SVGID_86_);}
	.st112{fill:url(#SVGID_87_);}
	.st113{fill:url(#SVGID_88_);}
	.st114{fill:url(#SVGID_89_);}
	.st115{fill:url(#SVGID_90_);}
	.st116{fill:url(#SVGID_91_);}
	.st117{fill:url(#SVGID_92_);}
	.st118{fill:url(#SVGID_93_);}
	.st119{fill:url(#SVGID_94_);}
	.st120{fill:url(#SVGID_95_);}
	.st121{fill:url(#SVGID_96_);}
	.st122{fill:url(#SVGID_97_);}
	.st123{fill:url(#SVGID_98_);}
	.st124{fill:url(#SVGID_99_);}
	.st125{fill:url(#SVGID_100_);}
	.st126{fill:url(#SVGID_101_);}
	.st127{fill:url(#SVGID_102_);}
	.st128{fill:url(#SVGID_103_);}
	.st129{fill:url(#SVGID_104_);}
	.st130{fill:url(#SVGID_105_);}
	.st131{fill:url(#SVGID_106_);}
	.st132{fill:url(#SVGID_107_);}
	.st133{fill:url(#SVGID_108_);}
	.st134{fill:url(#SVGID_109_);}
	.st135{fill:#666666;}
	.st136{fill:none;}
	.st137{fill:url(#SVGID_110_);}
	.st138{opacity:0.5;}
	.st139{fill:url(#SVGID_111_);}
	.st140{fill:url(#SVGID_112_);}
	.st141{fill:url(#SVGID_113_);}
	.st142{fill:url(#SVGID_114_);}
	.st143{fill:url(#SVGID_115_);}
	.st144{fill:url(#SVGID_116_);}
	.st145{fill:url(#SVGID_117_);}
	.st146{fill:url(#SVGID_118_);}
	.st147{fill:url(#SVGID_119_);}
	.st148{fill:url(#SVGID_120_);}
	.st149{fill:url(#SVGID_121_);}
	.st150{fill:url(#SVGID_122_);}
	.st151{fill:url(#SVGID_123_);}
	.st152{fill:url(#SVGID_124_);}
	.st153{fill:url(#SVGID_125_);}
	.st154{fill:url(#SVGID_126_);}
	.st155{fill:url(#SVGID_127_);}
	.st156{fill:url(#SVGID_128_);}
	.st157{fill:url(#SVGID_129_);}
	.st158{fill:url(#SVGID_130_);}
	.st159{fill:url(#SVGID_131_);}
	.st160{fill:url(#SVGID_132_);}
	.st161{fill:url(#SVGID_133_);}
	.st162{fill:url(#SVGID_134_);}
	.st163{fill:url(#SVGID_135_);}
	.st164{fill:url(#SVGID_136_);}
	.st165{fill:url(#SVGID_137_);}
	.st166{fill:url(#SVGID_138_);}
	.st167{fill:url(#SVGID_139_);}
	.st168{fill:url(#SVGID_140_);}
	.st169{fill:none;stroke:#2D2D2D;stroke-width:2;stroke-miterlimit:10;}
	.st170{fill:url(#SVGID_147_);}
	.st171{fill:url(#SVGID_148_);}
	.st172{fill:url(#SVGID_149_);}
	.st173{clip-path:url(#SVGID_151_);}
	.st174{fill:#FBDD79;}
	.st175{fill:#736357;}
	.st176{fill:#534741;}
	.st177{fill:url(#SVGID_152_);}
	.st178{fill:#F2F2F2;}
	.st179{fill:#00B5E4;}
</style>
<g id="Layer_2">
</g>
<g id="Layer_6" class="st0">
	<g class="st1">
		<g>
			<g>
				<path class="st2" d="M98.65,73.22c1.93,0,1.93-3,0-3C96.72,70.22,96.71,73.22,98.65,73.22L98.65,73.22z"/>
			</g>
		</g>
		<g>
			<g>
				<path class="st2" d="M256.25,73.22c1.93,0,1.93-3,0-3C254.32,70.22,254.32,73.22,256.25,73.22L256.25,73.22z"/>
			</g>
		</g>
		<g>
			<g>
				<path class="st2" d="M413.86,73.22c1.93,0,1.93-3,0-3C411.93,70.22,411.92,73.22,413.86,73.22L413.86,73.22z"/>
			</g>
		</g>
		<g>
			<g>
				<path class="st2" d="M571.46,73.22c1.93,0,1.93-3,0-3C569.53,70.22,569.53,73.22,571.46,73.22L571.46,73.22z"/>
			</g>
		</g>
		<g>
			<g>
				<path class="st2" d="M19.84,154.85c1.93,0,1.93-3,0-3C17.91,151.85,17.91,154.85,19.84,154.85L19.84,154.85z"/>
			</g>
		</g>
		<g>
			<g>
				<path class="st2" d="M177.45,154.85c1.93,0,1.93-3,0-3C175.52,151.85,175.52,154.85,177.45,154.85L177.45,154.85z"/>
			</g>
		</g>
		<g>
			<g>
				<path class="st2" d="M335.06,154.85c1.93,0,1.93-3,0-3C333.12,151.85,333.12,154.85,335.06,154.85L335.06,154.85z"/>
			</g>
		</g>
		<g>
			<g>
				<path class="st2" d="M492.66,154.85c1.93,0,1.93-3,0-3C490.73,151.85,490.73,154.85,492.66,154.85L492.66,154.85z"/>
			</g>
		</g>
		<g>
			<g>
				<path class="st2" d="M650.27,154.85c1.93,0,1.93-3,0-3C648.34,151.85,648.33,154.85,650.27,154.85L650.27,154.85z"/>
			</g>
		</g>
		<g>
			<g>
				<path class="st2" d="M98.65,230.82c1.93,0,1.93-3,0-3C96.72,227.82,96.71,230.82,98.65,230.82L98.65,230.82z"/>
			</g>
		</g>
		<g>
			<g>
				<path class="st2" d="M256.25,230.82c1.93,0,1.93-3,0-3C254.32,227.82,254.32,230.82,256.25,230.82L256.25,230.82z"/>
			</g>
		</g>
		<g>
			<g>
				<path class="st2" d="M413.86,230.82c1.93,0,1.93-3,0-3C411.93,227.82,411.92,230.82,413.86,230.82L413.86,230.82z"/>
			</g>
		</g>
		<g>
			<g>
				<path class="st2" d="M571.46,230.82c1.93,0,1.93-3,0-3C569.53,227.82,569.53,230.82,571.46,230.82L571.46,230.82z"/>
			</g>
		</g>
		<g>
			<g>
				<path class="st2" d="M19.84,312.46c1.93,0,1.93-3,0-3C17.91,309.46,17.91,312.46,19.84,312.46L19.84,312.46z"/>
			</g>
		</g>
		<g>
			<g>
				<path class="st2" d="M177.45,312.46c1.93,0,1.93-3,0-3C175.52,309.46,175.52,312.46,177.45,312.46L177.45,312.46z"/>
			</g>
		</g>
		<g>
			<g>
				<path class="st2" d="M335.06,312.46c1.93,0,1.93-3,0-3C333.12,309.46,333.12,312.46,335.06,312.46L335.06,312.46z"/>
			</g>
		</g>
		<g>
			<g>
				<path class="st2" d="M492.66,312.46c1.93,0,1.93-3,0-3C490.73,309.46,490.73,312.46,492.66,312.46L492.66,312.46z"/>
			</g>
		</g>
		<g>
			<g>
				<path class="st2" d="M650.27,312.46c1.93,0,1.93-3,0-3C648.34,309.46,648.33,312.46,650.27,312.46L650.27,312.46z"/>
			</g>
		</g>
		<g>
			<g>
				<path class="st2" d="M98.65,388.43c1.93,0,1.93-3,0-3C96.72,385.43,96.71,388.43,98.65,388.43L98.65,388.43z"/>
			</g>
		</g>
		<g>
			<g>
				<path class="st2" d="M256.25,388.43c1.93,0,1.93-3,0-3C254.32,385.43,254.32,388.43,256.25,388.43L256.25,388.43z"/>
			</g>
		</g>
		<g>
			<g>
				<path class="st2" d="M413.86,388.43c1.93,0,1.93-3,0-3C411.93,385.43,411.92,388.43,413.86,388.43L413.86,388.43z"/>
			</g>
		</g>
		<g>
			<g>
				<path class="st2" d="M571.46,388.43c1.93,0,1.93-3,0-3C569.53,385.43,569.53,388.43,571.46,388.43L571.46,388.43z"/>
			</g>
		</g>
		<g>
			<g>
				<path class="st2" d="M19.84,470.07c1.93,0,1.93-3,0-3C17.91,467.07,17.91,470.07,19.84,470.07L19.84,470.07z"/>
			</g>
		</g>
		<g>
			<g>
				<path class="st2" d="M177.45,470.07c1.93,0,1.93-3,0-3C175.52,467.07,175.52,470.07,177.45,470.07L177.45,470.07z"/>
			</g>
		</g>
		<g>
			<g>
				<path class="st2" d="M335.06,470.07c1.93,0,1.93-3,0-3C333.12,467.07,333.12,470.07,335.06,470.07L335.06,470.07z"/>
			</g>
		</g>
		<g>
			<g>
				<path class="st2" d="M492.66,470.07c1.93,0,1.93-3,0-3C490.73,467.07,490.73,470.07,492.66,470.07L492.66,470.07z"/>
			</g>
		</g>
		<g>
			<g>
				<path class="st2" d="M650.27,470.07c1.93,0,1.93-3,0-3C648.34,467.07,648.33,470.07,650.27,470.07L650.27,470.07z"/>
			</g>
		</g>
		<g>
			<g>
				<path class="st2" d="M98.65,546.04c1.93,0,1.93-3,0-3C96.72,543.04,96.71,546.04,98.65,546.04L98.65,546.04z"/>
			</g>
		</g>
		<g>
			<g>
				<path class="st2" d="M256.25,546.04c1.93,0,1.93-3,0-3C254.32,543.04,254.32,546.04,256.25,546.04L256.25,546.04z"/>
			</g>
		</g>
		<g>
			<g>
				<path class="st2" d="M413.86,546.04c1.93,0,1.93-3,0-3C411.93,543.04,411.92,546.04,413.86,546.04L413.86,546.04z"/>
			</g>
		</g>
		<g>
			<g>
				<path class="st2" d="M571.46,546.04c1.93,0,1.93-3,0-3C569.53,543.04,569.53,546.04,571.46,546.04L571.46,546.04z"/>
			</g>
		</g>
		<g>
			<g>
				<path class="st2" d="M19.84,627.67c1.93,0,1.93-3,0-3C17.91,624.67,17.91,627.67,19.84,627.67L19.84,627.67z"/>
			</g>
		</g>
		<g>
			<g>
				<path class="st2" d="M177.45,627.67c1.93,0,1.93-3,0-3C175.52,624.67,175.52,627.67,177.45,627.67L177.45,627.67z"/>
			</g>
		</g>
		<g>
			<g>
				<path class="st2" d="M335.06,627.67c1.93,0,1.93-3,0-3C333.12,624.67,333.12,627.67,335.06,627.67L335.06,627.67z"/>
			</g>
		</g>
		<g>
			<g>
				<path class="st2" d="M492.66,627.67c1.93,0,1.93-3,0-3C490.73,624.67,490.73,627.67,492.66,627.67L492.66,627.67z"/>
			</g>
		</g>
		<g>
			<g>
				<path class="st2" d="M650.27,627.67c1.93,0,1.93-3,0-3C648.34,624.67,648.33,627.67,650.27,627.67L650.27,627.67z"/>
			</g>
		</g>
	</g>
</g>
<g id="Layer_7" class="st0">
	<g class="st1">
		<line class="st3" x1="-57.64" y1="65.43" x2="8.12" y2="2.03"/>
	</g>
	<g class="st1">
		<line class="st3" x1="-57.64" y1="78.47" x2="8.12" y2="146.6"/>
		<line class="st3" x1="-57.64" y1="223.04" x2="8.12" y2="159.64"/>
		<line class="st4" x1="8.12" y1="153.35" x2="-136.45" y2="153.35"/>
	</g>
	<g class="st1">
		<line class="st3" x1="-57.64" y1="236.08" x2="8.12" y2="304.21"/>
		<line class="st3" x1="-57.64" y1="380.64" x2="8.12" y2="317.25"/>
		<line class="st4" x1="8.12" y1="310.96" x2="-136.45" y2="310.96"/>
	</g>
	<g class="st1">
		<line class="st3" x1="-57.64" y1="393.68" x2="8.12" y2="461.81"/>
		<line class="st3" x1="-57.64" y1="538.25" x2="8.12" y2="474.85"/>
		<line class="st4" x1="8.12" y1="468.57" x2="-136.45" y2="468.57"/>
	</g>
	<g class="st1">
		<line class="st3" x1="-57.64" y1="551.29" x2="8.12" y2="619.42"/>
		<line class="st3" x1="-57.64" y1="695.86" x2="8.12" y2="632.46"/>
		<line class="st4" x1="8.12" y1="626.17" x2="-136.45" y2="626.17"/>
	</g>
</g>
<g id="Layer_5">
</g>
<g id="Layer_1">
	
		<radialGradient id="SVGID_2_" cx="236.0935" cy="236.9538" r="168.8536" fx="344.3498" fy="234.2042" gradientUnits="userSpaceOnUse">
		<stop  offset="0" style="stop-color:#29ABE2"/>
		<stop  offset="0.1591" style="stop-color:#29A7DF"/>
		<stop  offset="0.333" style="stop-color:#2A99D6"/>
		<stop  offset="0.5139" style="stop-color:#2B84C8"/>
		<stop  offset="0.6997" style="stop-color:#2C65B4"/>
		<stop  offset="0.8875" style="stop-color:#2D3E9B"/>
		<stop  offset="0.943" style="stop-color:#2E3192"/>
	</radialGradient>
	<path style="fill:url(#SVGID_2_);" d="M401.3,246.51c0,23.56-4.93,45.95-13.81,66.22l-244.16,70.5
		c-43.73-29.71-72.45-79.87-72.45-136.72c0-91.25,73.96-165.21,165.2-165.21C327.34,81.3,401.3,155.27,401.3,246.51z"/>
	<g>
		<radialGradient id="SVGID_4_" cx="412.3871" cy="371.0594" r="158.6311" gradientUnits="userSpaceOnUse">
			<stop  offset="0" style="stop-color:#141414"/>
			<stop  offset="1" style="stop-color:#141414;stop-opacity:0"/>
		</radialGradient>
		<path style="fill:url(#SVGID_4_);" d="M572.95,290.88c0,0-13.76,5.19,41.05,11.2l-3.87,6.43c0,0-33.14-9.66-53.09-6.24
			c-53.95,9.25-126.39,42.42-126.39,42.42l-12.47-38.97l35.02,7.87L572.95,290.88z"/>
		<linearGradient id="SVGID_5_" gradientUnits="userSpaceOnUse" x1="401.3618" y1="403.0505" x2="551.907" y2="393.744">
			<stop  offset="0" style="stop-color:#191919"/>
			<stop  offset="1" style="stop-color:#191919;stop-opacity:0"/>
		</linearGradient>
		<path style="fill:url(#SVGID_5_);" d="M560.4,377.7l-3.46,8.37l-3.33,120.42c0,0-1.51-3.12-33.21-20.33
			c-31.7-17.21-100.7-49.11-101.64-49.39c-0.93-0.29-2.79-5.63-2.79-5.63s-0.21-5.41-0.49-25.08c-0.28-19.67-8.93-35.58-8.93-35.58
			l2.11-30.73l9.6-50.59l13.62,1.58l16.26,39.98l5.07,5.88c0,0,11.47-12.36,22.01-12.92c10.54-0.55,108.48,33.84,108.48,33.84
			L560.4,377.7z"/>
		<radialGradient id="SVGID_7_" cx="316.2468" cy="399.0497" r="270.7934" gradientUnits="userSpaceOnUse">
			<stop  offset="0.3433" style="stop-color:#141414"/>
			<stop  offset="1" style="stop-color:#141414;stop-opacity:0"/>
		</radialGradient>
		<path style="fill:url(#SVGID_7_);" d="M335.35,389.91c0,0-14.96,0.93-12.38,5.98s322.85,174,322.85,174l-23.54-33.75
			l-196.68-94.59l-3.97-35.05l-32.89-83.23l-42.2,4.15l-13.68,44.27L335.35,389.91z"/>
		<linearGradient id="SVGID_8_" gradientUnits="userSpaceOnUse" x1="390.8729" y1="449.7433" x2="497.2718" y2="543.8902">
			<stop  offset="0" style="stop-color:#111111"/>
			<stop  offset="1" style="stop-color:#111111;stop-opacity:0"/>
		</linearGradient>
		<path class="st19" d="M369.99,449.08l93.98,48.59c0,0,27.51,7.31,38.26,12.04c10.75,4.73,15.91,6.02,21.06,12.04
			c5.16,6.02,0.86,5.59,14.19,12.47c13.33,6.88,43.42,18.49,44.71,21.06c1.29,2.58,7.74,20.21,3.44,22.35s-95.76,2.58-96.89,2.15
			c-1.13-0.43-5.44-1.07-5.44-1.07s-3.95-3.87-10.4-11.61s-11.08-15.15-16.67-17.73s-34.82-25.15-34.82-25.15l-23.54-10.41
			l-16.77-8.84l25.44,0.01l31.63-2.58l-79.46-48.72L369.99,449.08z"/>
		<path class="st64" d="M399.32,385.57c0,0,4.36,7.11,3.18,26.18c-1.18,19.07-8.28,20.25-8.28,20.25l10.53,12.35l5.76-1.83
			l1.76-2.16l1.07,0.54l12.25-4.18l-8.49-64.59l-12.57-8.17L399.32,385.57z"/>
		<polygon class="st64" points="354.42,405.99 370.9,395.13 369.54,401.92 355.89,409.37 		"/>
		<path class="st64" d="M352.99,364.87c0,0-3.51,4.96-2.37,15.78l20.28,12.27h-5.66c0,0-10.12-6.02-11.73-6.85
			c-1.6-0.83-3.38-2.52-4.28,0.05c-0.9,2.57-2.69-0.09-2.69-0.09l1.72-21.16l2.94-2.77l1.65-1.72L352.99,364.87z"/>
		<path class="st64" d="M351.43,350.25c0,0-14.03,18.16-4.96,47.53s18.1,34.22,18.1,34.22l2.08-7.17c0,0-14.87-12.18-17.88-42.7
			s17.18-25.26,17.18-25.26L351.43,350.25z"/>
		
			<radialGradient id="SVGID_9_" cx="202.3793" cy="367.8945" r="107.291" gradientTransform="matrix(-0.9918 0.1276 -0.0584 -0.4537 424.5818 508.9648)" gradientUnits="userSpaceOnUse">
			<stop  offset="0" style="stop-color:#111111"/>
			<stop  offset="1" style="stop-color:#111111;stop-opacity:0"/>
		</radialGradient>
		<polygon class="st22" points="183.84,371.7 85.92,329.52 133.4,317.03 219.58,361.38 		"/>
		<polygon class="st64" points="171.93,114.56 207.97,108.6 215.93,111.61 215.93,114.56 215.93,209.84 219.58,361.38 183.84,371.7 
			178.95,367.83 		"/>
		<polygon class="st44" points="171.93,114.56 177.13,117.31 183.84,371.7 178.95,367.83 		"/>
		<polygon class="st44" points="179.31,200.1 190.24,197.74 215.93,204.47 215.93,209.84 		"/>
		<polygon class="st47" points="171.93,114.56 177.13,117.31 188.09,118.7 215.6,114.09 215.93,111.61 207.97,108.6 		"/>
		<radialGradient id="SVGID_10_" cx="331.7819" cy="353.6487" r="261.0335" gradientUnits="userSpaceOnUse">
			<stop  offset="0" style="stop-color:#4D4D4D"/>
			<stop  offset="1" style="stop-color:#4D4D4D;stop-opacity:0"/>
		</radialGradient>
		<path class="st23" d="M64.85,425.99l260.57-74.67c0,0-0.08,7.44,0.14,10.44L84.94,432L64.85,425.99z"/>
		<radialGradient id="SVGID_11_" cx="376.9071" cy="334.6647" r="265.2307" gradientUnits="userSpaceOnUse">
			<stop  offset="0.6695" style="stop-color:#191919"/>
			<stop  offset="1" style="stop-color:#191919;stop-opacity:0"/>
		</radialGradient>
		<path class="st24" d="M67.61,437.06l16.44,16.61l244.25-72.57c0,0-2.59-13.52-2.74-19.34L67.61,437.06z"/>
		
			<radialGradient id="SVGID_12_" cx="207.583" cy="361.9389" r="97.3672" gradientTransform="matrix(0.9668 -0.2554 0.1685 0.6376 -54.0863 184.1932)" gradientUnits="userSpaceOnUse">
			<stop  offset="0" style="stop-color:#CCCCCC"/>
			<stop  offset="1" style="stop-color:#CCCCCC;stop-opacity:0"/>
		</radialGradient>
		<polygon style="opacity:0.7;fill:url(#SVGID_12_);" points="100.66,395.71 302.76,337.36 325.42,349.7 322.67,352.1 
			105.18,414.43 		"/>
		<path class="st44" d="M327.9,336.2c0,0-6.77,22.19,1.74,50.35l15.84,9.35c0,0-3.6-0.48-4.68-13.06
			c-1.07-12.57,1.51-36.25,9.24-42.82c0,0,12.32-16.6,12.11-16.74c-0.21-0.14-3.94-31.74-3.94-31.74l-22.35,8.74l-8.02,33.17
			L327.9,336.2z"/>
		<path class="st44" d="M453.21,313.59c0,0,14.38-2.81,19.74-3.43c0,0-5.7-0.84,3.31-6.09c9-5.25,56.07-28.03,122.71-38.34
			l41.37-2.64c0,0-101.13-20.52-172.58-10.59c-16.71,2.32-28.75,4.62-28.75,4.62l-15.87,9.49L453.21,313.59z"/>
		<linearGradient id="SVGID_13_" gradientUnits="userSpaceOnUse" x1="458.7569" y1="303.4425" x2="586.1795" y2="331.4022">
			<stop  offset="0" style="stop-color:#4D4D4D"/>
			<stop  offset="1" style="stop-color:#4D4D4D;stop-opacity:0"/>
		</linearGradient>
		<path class="st26" d="M583.7,357.52l-95.87-29.46v-6.02c0,0,44.49-18.27,69.21-19.78c24.72-1.5,72.88,13.43,72.88,13.43
			L583.7,357.52z"/>
		<radialGradient id="SVGID_14_" cx="412.3871" cy="371.0594" r="158.6311" gradientUnits="userSpaceOnUse">
			<stop  offset="0" style="stop-color:#141414"/>
			<stop  offset="1" style="stop-color:#141414;stop-opacity:0"/>
		</radialGradient>
		<path class="st27" d="M485.47,339.67c-0.14-1.29,0.14-1.72-3.15,2.58c-1.84,2.4-3.01,2.75-3.69,2.23
			c-0.53-0.41-0.76-1.35-0.76-2.23v-11.32c0-3.58,4.58-12.18,7.59-14.76c0.33-0.28,0.61-0.43,0.86-0.47
			c0.09-0.01,0.14-0.02,0.14-0.02c1.85-0.02,1.36,6.36,1.36,6.36v6.02c0,0-0.07,4.87,0.79,7.94
			C489.48,339.07,485.61,340.96,485.47,339.67z"/>
		<radialGradient id="SVGID_15_" cx="412.3871" cy="371.0594" r="158.6311" gradientUnits="userSpaceOnUse">
			<stop  offset="0" style="stop-color:#141414"/>
			<stop  offset="1" style="stop-color:#141414;stop-opacity:0"/>
		</radialGradient>
		<path class="st32" d="M486.33,315.7c-0.25,0.04-0.53,0.19-0.86,0.47c-3.01,2.58-7.59,11.18-7.59,14.76v11.32
			c0,0.89,0.22,1.83,0.76,2.23c-6.69-2.21-7.51-5.73-7.53-9.4c-0.03-6.45,1.87-8.97,6.2-14.55
			C480.42,316.51,485.42,315.79,486.33,315.7z"/>
		<path class="st72" d="M463.24,359.44c-1.13,3.01-4.83,1.86-5.96,2.87c-1.13,1-0.16,2.58-2.58,1.43c-2.42-1.15-0.81,0.57-2.42-1.15
			c-1.61-1.72-4.35-2.87-2.74-6.45c1.61-3.58-0.16-10.32-0.48-11.47c-0.32-1.15-0.8-2.58-0.97-5.16
			c-0.16-2.58-11.7-14.29-13.05-30.38c-0.32-3.87-0.97-3.87-1.77-5.88c-0.65-1.62-2.57-6.8-3.36-10.54
			c-0.09-0.89-0.2-1.68-0.34-2.35c0.03,0.66,0.16,1.47,0.34,2.35c1.04,9.93-0.63,32.05-1.96,36.19c-1.45,4.52,0,17.2,0,17.2
			l-7.49,1.72c0,0-13.77,21.5-16.67,27.73c-2.9,6.23-9.9,37.83-9.9,37.83c0.97,6.88,21.5,56.96,24.16,60.83
			c2.66,3.87-0.97,3.44,1.21,9.67c2.18,6.23,0.97,10.32,0.49,11.61c-0.49,1.29,0.48,3.23,1.21,3.65c0.73,0.43,2.18,5.38,2.18,9.46
			c0,4.08,0,3.01-2.18,4.51c-2.17,1.51-13.29,0-13.29,0s-1.21-4.3-2.9-3.65c-1.69,0.65,2.9,3.65-7.73,1.72
			c-10.63-1.93-14.49-5.8-15.94-6.23c-1.45-0.43-1.45-2.37,0-3.01c1.45-0.64,4.35-0.22,8.45,0c4.11,0.22,9.42-7.52,9.42-7.52
			s1.21-1.93-0.24-4.94c-1.45-3.01,2.18,0.64-3.62-12.47c-5.8-13.11-17.63-39.76-17.63-39.76s-6.76,10.74-7.49,11.82
			c-0.73,1.07-1.69,6.23-3.87,5.8c-2.17-0.43-5.8,3.23-9.42-1.5c-3.62-4.73-2.17-6.45-3.62-8.82c-1.45-2.36-5.8-5.8-6.04-9.89
			c-0.24-4.08-0.72-15.03,2.9-14.82c3.62,0.2,3.86,2.35,6.52,7.62c2.66,5.27,6.53,5.69,7.25,3.98c0.72-1.72,6.04-18.27,6.04-19.78
			s-3.87-18.27-6.28-24.29c-2.42-6.02-10.21-19.63-10.69-23.5c-0.49-3.87,0.1-5.52-0.14-10.46c-0.24-4.94-2.45-2.15-2.93-4.73
			c-0.48-2.58,0.49-9.05,0.72-12.69c0.24-3.64,3.14-30.73,4.11-35.45c0.96-4.73-2.18-2.15-2.9-0.86c-0.72,1.29-5.07,6.67-6.76,10.75
			c-1.69,4.08-5.07,9.67-11.6,17.84c-6.52,8.17-3.72,2.6-1.21,5.16c1.69,1.72-5.32,3.01-5.32,3.01s-7.25-0.86-6.53-3.65
			c0.73-2.79,0.38-4.08-0.05-5.16c-0.43-1.07-0.53-1.72,0-3.87c0.53-2.15,5.36-14.62,8.02-17.63c2.66-3.01,1.69-6.1,2.66-8.32
			c0.97-2.21,6.52-16.19,9.18-21.35c0,0-2.17-2.36-2.17-3.22s3.62-13.54,5.55-18.27c1.93-4.73,4.83-11.39,13.53-13.54
			c8.7-2.15,16.47-5.59,17.54-5.59c1.07,0,2.03-6.98,2.03-6.98s0.89-0.2,2.37-0.5l0.64-5.11c0,0-8.09,0.66-9.48-1.66
			c-1.39-2.32-0.58-3.89-0.43-6.52c0.15-2.63-0.14-9.29-2.31-10.38c-2.16-1.08-0.93-1.24,0-2.44c0.93-1.2,0.93-4.21,1.55-4.83
			c0.62-0.62,1.47-9.44,3.09-10.83c1.62-1.39-0.23-3.48,0-4.41c0.23-0.93,5.33-3.01,14.62-4.17c9.28-1.16,16.24,3.71,18.56,6.49
			c2.32,2.79,0.93,1.63,1.4,3.48c0.46,1.86,0.69,7.89,0.93,12.99c0.24,5.1-5.65,18.26-6.34,20.58c-0.7,2.32-0.2,3.79,0.5,5.12
			c1.52,0.22,2.08,0.58,3.18,1.1l4.71,6.45c0,0,20.89,8.49,23.43,11.29c2.54,2.79,7.77,14.62,8.9,19.92c0,0-2.09,0.43-2.09,1.15
			c0,0.72,3.52,16.94,4.99,21.5c0.64,1.99-0.54,2.13,1.07,4.14c1.61,2.01,4.53,7.36,5.01,9.94c0.48,2.58,6.32,29.63,7.77,36.79
			c1.45,7.17,3.87,9.74,4.67,12.11C464.05,353.42,464.37,356.43,463.24,359.44z"/>
		<linearGradient id="SVGID_16_" gradientUnits="userSpaceOnUse" x1="245.2562" y1="334.7224" x2="622.7559" y2="274.0345">
			<stop  offset="0" style="stop-color:#4D4D4D"/>
			<stop  offset="0.5581" style="stop-color:#4D4D4D;stop-opacity:0.4419"/>
			<stop  offset="1" style="stop-color:#4D4D4D;stop-opacity:0"/>
		</linearGradient>
		<path class="st33" d="M478.79,309.46c0,0-14.64,2.38-4.63-4.09c10.02-6.47,59.88-31.13,124.8-39.65l34.02-4.03l21.04,4.6
			c0,0-45.6,6.53-52.04,7.97s-24.36,11.3-29.02,16.61L478.79,309.46z"/>
		<radialGradient id="SVGID_17_" cx="198.2997" cy="207.9144" r="106.1387" gradientUnits="userSpaceOnUse">
			<stop  offset="0" style="stop-color:#CCCCCC"/>
			<stop  offset="1" style="stop-color:#CCCCCC;stop-opacity:0"/>
		</radialGradient>
		<polygon style="opacity:0.8;fill:url(#SVGID_17_);" points="179.41,203.79 215.93,213.07 218.82,329.79 182.87,334.72 		"/>
		<path class="st17" d="M194.86,119.35c-2.55,0-4.62,2.6-4.62,5.81c0,3.21,2.07,5.8,4.62,5.8c2.55,0,4.62-2.6,4.62-5.8
			C199.48,121.95,197.41,119.35,194.86,119.35z M194.86,129.57c-1.94,0-3.51-1.98-3.51-4.41c0-2.44,1.57-4.41,3.51-4.41
			c1.94,0,3.51,1.98,3.51,4.41C198.37,127.59,196.8,129.57,194.86,129.57z"/>
	</g>
</g>
<g id="Layer_3">
</g>
<g id="Layer_4">
</g>
</svg>
