<svg xmlns="http://www.w3.org/2000/svg" xmlns:xlink="http://www.w3.org/1999/xlink" viewBox="0 0 111.8 111.6"><defs><style>.cls-1{fill:url(#linear-gradient);}.cls-2{fill:url(#linear-gradient-2);}.cls-3{fill:url(#linear-gradient-3);}.cls-4{fill:url(#linear-gradient-4);}.cls-5{fill:url(#linear-gradient-5);}.cls-6{fill:url(#linear-gradient-6);}</style><linearGradient id="linear-gradient" x1="26.51" y1="-43.88" x2="120.62" y2="271.9" gradientTransform="matrix(1, 0, 0, -1, 0, 110.49)" gradientUnits="userSpaceOnUse"><stop offset="0" stop-color="#00a99d"/><stop offset="0.14" stop-color="#0fac87"/><stop offset="0.34" stop-color="#22b06c"/><stop offset="0.55" stop-color="#2fb359"/><stop offset="0.77" stop-color="#36b44e"/><stop offset="1" stop-color="#39b54a"/></linearGradient><linearGradient id="linear-gradient-2" x1="26.49" y1="-43.87" x2="120.6" y2="271.91" xlink:href="#linear-gradient"/><linearGradient id="linear-gradient-3" x1="27.49" y1="-44.17" x2="121.6" y2="271.61" xlink:href="#linear-gradient"/><linearGradient id="linear-gradient-4" x1="0.92" y1="-36.25" x2="95.03" y2="279.53" xlink:href="#linear-gradient"/><linearGradient id="linear-gradient-5" x1="20.41" y1="-42.06" x2="114.52" y2="273.72" xlink:href="#linear-gradient"/><linearGradient id="linear-gradient-6" x1="23.46" y1="-42.97" x2="117.57" y2="272.81" xlink:href="#linear-gradient"/></defs><title>Asset 1</title><g id="Layer_2" data-name="Layer 2"><g id="Layer_1-2" data-name="Layer 1"><path class="cls-1" d="M55.8,111.6C25.3,111.7-.4,86.4,0,54.5.4,24.7,25.6-.1,56.3,0c30.4,0,55.5,25.2,55.5,55.8S86.7,111.6,55.8,111.6Zm.2-4.7c28,0,51.1-22.9,51.1-50.8A51.2,51.2,0,1,0,56,106.9Z"/><path class="cls-2" d="M100.3,55.9a44.3,44.3,0,0,1-44.7,44.4c-24.2,0-44.2-20.1-44.2-44.5a44.45,44.45,0,1,1,88.9.1Zm-44.5-40a39.85,39.85,0,1,0,40,39.8C96,33.7,77.8,15.9,55.8,15.9Z"/><path class="cls-3" d="M57.5,35.7c9.4.1,18.3,2.5,26.9,6.1,2.5,1,2.8,2.4,1.2,4.5C79.7,54.2,73.7,62,67,69.4c-8,8.8-18.9,10-28.4,2.9-1.2-.9-1.7-.8-2.4.4-.4.9-1,1.7-1.4,2.5a2.21,2.21,0,0,1-3.1,1.1c-1.3-.6-1.5-1.8-1-3.2,2.3-6.2,2.3-6.2,1-12.4-2-9.5,3.3-19.1,12.9-22.9a38.23,38.23,0,0,1,4.8-1.5A36,36,0,0,1,57.5,35.7Zm18,7.9a53.93,53.93,0,0,0-12.9-2.9c-6.5-.7-12.9-.7-18.8,2.8-5.6,3.4-8.4,8.4-7.8,15,.6,6.3,4,10.6,9.9,12.8,6.3,2.3,11.8.7,16.5-3.9a69.1,69.1,0,0,0,5.1-5.7c3.5-4.3,6.9-8.6,10.5-13a6,6,0,0,0-3.3.1,108.13,108.13,0,0,0-12.6,3.9c-1.5.6-3.2,1.4-4.1-.5-1-2.2.6-3.2,2.4-3.8,1.2-.4,2.3-.9,3.5-1.3C67.6,45.9,71.2,44.8,75.5,43.6Z"/><path class="cls-4" d="M19,53.9c.6-15.1,11.3-29,25.3-33.3,1.7-.5,3.5-.9,4.1,1.3s-1.2,2.6-2.7,3.1c-13,4.5-21.4,15.6-22.1,29.1a11,11,0,0,1-.2,1.8,2.11,2.11,0,0,1-2.4,2,2.16,2.16,0,0,1-2.1-2.3A10.9,10.9,0,0,0,19,53.9Z"/><path class="cls-5" d="M57.6,18.8c1.7.2,3.5.4,5.2.7,1.5.3,2.7,1,2.4,2.8s-1.7,2-3.2,1.8-2.9-.4-4.4-.5c-1.8-.1-3.9,0-3.9-2.4C53.7,18.6,55.8,18.7,57.6,18.8Z"/><path class="cls-6" d="M56.3,54.2c0,1.8-3.8,4.8-5.5,4.3a2.1,2.1,0,0,1-1.6-2.6c.3-1.5,3.7-4.2,5.1-4A2.21,2.21,0,0,1,56.3,54.2Z"/></g></g></svg>