<?xml version="1.0" encoding="utf-8"?>
<!-- Generator: Adobe Illustrator 23.0.0, SVG Export Plug-In . SVG Version: 6.00 Build 0)  -->
<svg version="1.1" xmlns="http://www.w3.org/2000/svg" xmlns:xlink="http://www.w3.org/1999/xlink" x="0px" y="0px"
	 viewBox="0 0 1231.37 759.69" style="enable-background:new 0 0 1231.37 759.69;" xml:space="preserve">
<style type="text/css">
	.st0{display:none;}
	.st1{display:inline;}
	.st2{fill:#3A3A3A;}
	.st3{fill:none;stroke:#3A3A3A;stroke-miterlimit:10;}
	.st4{fill:none;stroke:#1C1C1C;stroke-miterlimit:10;}
	.st5{display:inline;fill:none;stroke:#3A3A3A;stroke-miterlimit:10;}
	.st6{display:inline;fill:none;stroke:#1C1C1C;stroke-miterlimit:10;}
	.st7{opacity:0.9;fill:#F7BD19;}
	.st8{fill:#FFFFFF;}
	.st9{fill:#6B6B6B;}
	.st10{fill:#494949;}
	.st11{opacity:0.5;clip-path:url(#SVGID_4_);fill:url(#SVGID_5_);}
	.st12{fill:#565656;}
	.st13{fill:#353535;}
	.st14{fill:#727272;}
	.st15{fill:#282828;}
	.st16{fill:#606060;}
	.st17{fill:#29ABE2;}
	.st18{fill:#848484;}
	.st19{fill:url(#SVGID_8_);}
	.st20{fill:none;stroke:#CCCCCC;stroke-width:0.75;stroke-linecap:round;stroke-linejoin:round;stroke-miterlimit:10;}
	.st21{fill:none;stroke:#999999;stroke-linecap:round;stroke-linejoin:round;stroke-miterlimit:10;}
	.st22{opacity:0.5;clip-path:url(#SVGID_12_);fill:url(#SVGID_13_);}
	.st23{fill:url(#SVGID_16_);}
	.st24{fill:#999999;}
	.st25{fill:url(#SVGID_17_);}
	.st26{fill:url(#SVGID_18_);}
	.st27{fill:url(#SVGID_19_);}
	.st28{fill:url(#SVGID_20_);}
	.st29{fill:url(#SVGID_21_);}
	.st30{fill:url(#SVGID_22_);}
	.st31{fill:none;stroke:#EFEFEF;stroke-miterlimit:10;}
	.st32{fill:#F9DC79;}
	.st33{fill:#F7BD19;}
	.st34{opacity:0.8;}
	.st35{fill:url(#SVGID_23_);}
	.st36{fill:url(#SVGID_24_);}
	.st37{fill:url(#SVGID_25_);}
	.st38{fill:url(#SVGID_26_);}
	.st39{fill:url(#SVGID_27_);}
	.st40{fill:url(#SVGID_28_);}
	.st41{fill:url(#SVGID_29_);}
	.st42{fill:url(#SVGID_30_);}
	.st43{fill:url(#SVGID_33_);}
	.st44{fill:#2F3948;}
	.st45{fill:none;stroke:#F7BD19;stroke-width:6;stroke-linecap:round;stroke-linejoin:round;stroke-miterlimit:10;}
	.st46{fill:url(#SVGID_34_);}
	.st47{fill:#191919;}
	.st48{fill:url(#SVGID_35_);}
	.st49{fill:url(#SVGID_36_);}
	.st50{fill:#4D4D4D;}
	.st51{fill:url(#SVGID_37_);}
	.st52{fill:url(#SVGID_38_);}
	.st53{fill:#CCCCCC;}
	.st54{fill:url(#SVGID_39_);}
	.st55{fill:#FABF14;}
	.st56{fill:url(#SVGID_40_);}
	.st57{fill:url(#SVGID_41_);}
	.st58{fill:url(#SVGID_42_);}
	.st59{fill:url(#SVGID_43_);}
	.st60{fill:url(#SVGID_44_);}
	.st61{fill:url(#SVGID_45_);}
	.st62{fill:url(#SVGID_46_);}
	.st63{fill:url(#SVGID_47_);}
	.st64{fill:url(#SVGID_48_);}
	.st65{fill:url(#SVGID_49_);}
	.st66{fill:url(#SVGID_50_);}
	.st67{fill:#333333;}
	.st68{fill:url(#SVGID_51_);}
	.st69{fill:url(#SVGID_52_);}
	.st70{fill:url(#SVGID_53_);}
	.st71{opacity:0.7;fill:url(#SVGID_54_);}
	.st72{fill:url(#SVGID_55_);}
	.st73{fill:url(#SVGID_56_);}
	.st74{fill:url(#SVGID_57_);}
	.st75{fill:url(#SVGID_58_);}
	.st76{opacity:0.8;fill:url(#SVGID_59_);}
	.st77{fill:url(#SVGID_60_);}
	.st78{fill:url(#SVGID_61_);}
	.st79{fill:url(#SVGID_62_);}
	.st80{fill:url(#SVGID_63_);}
	.st81{fill:url(#SVGID_64_);}
	.st82{fill:url(#SVGID_65_);}
	.st83{fill:url(#SVGID_66_);}
	.st84{fill:url(#SVGID_67_);}
	.st85{opacity:0.7;fill:url(#SVGID_68_);}
	.st86{fill:url(#SVGID_69_);}
	.st87{fill:url(#SVGID_70_);}
	.st88{fill:url(#SVGID_71_);}
	.st89{fill:url(#SVGID_72_);}
	.st90{opacity:0.8;fill:url(#SVGID_73_);}
	.st91{fill:url(#SVGID_74_);}
	.st92{fill:url(#SVGID_75_);}
	.st93{fill:url(#SVGID_76_);}
	.st94{fill:url(#SVGID_77_);}
	.st95{fill:url(#SVGID_78_);}
	.st96{fill:url(#SVGID_79_);}
	.st97{fill:url(#SVGID_80_);}
	.st98{fill:url(#SVGID_81_);}
	.st99{fill:#FFFFFF;stroke:#000000;stroke-miterlimit:10;}
	.st100{fill:#C1272D;}
	.st101{fill:url(#SVGID_82_);}
	.st102{fill:url(#SVGID_83_);}
	.st103{fill:url(#SVGID_84_);}
	.st104{fill:url(#SVGID_85_);}
	.st105{fill:url(#SVGID_86_);}
	.st106{fill:url(#SVGID_87_);}
	.st107{fill:url(#SVGID_88_);}
	.st108{fill:url(#SVGID_89_);}
	.st109{fill:url(#SVGID_90_);}
	.st110{fill:url(#SVGID_91_);}
	.st111{fill:url(#SVGID_92_);}
	.st112{fill:url(#SVGID_93_);}
	.st113{fill:url(#SVGID_94_);}
	.st114{fill:url(#SVGID_95_);}
	.st115{fill:url(#SVGID_96_);}
	.st116{fill:url(#SVGID_97_);}
	.st117{fill:url(#SVGID_98_);}
	.st118{fill:url(#SVGID_99_);}
	.st119{fill:url(#SVGID_100_);}
	.st120{fill:url(#SVGID_101_);}
	.st121{fill:url(#SVGID_102_);}
	.st122{fill:url(#SVGID_103_);}
	.st123{fill:url(#SVGID_104_);}
	.st124{fill:url(#SVGID_105_);}
	.st125{fill:url(#SVGID_106_);}
	.st126{fill:url(#SVGID_107_);}
	.st127{fill:url(#SVGID_108_);}
	.st128{fill:url(#SVGID_109_);}
	.st129{fill:url(#SVGID_110_);}
	.st130{fill:url(#SVGID_111_);}
	.st131{fill:url(#SVGID_112_);}
	.st132{fill:url(#SVGID_113_);}
	.st133{fill:url(#SVGID_114_);}
	.st134{fill:url(#SVGID_115_);}
	.st135{fill:url(#SVGID_116_);}
	.st136{fill:url(#SVGID_117_);}
	.st137{fill:#666666;}
	.st138{fill:none;}
	.st139{fill:url(#SVGID_118_);}
	.st140{opacity:0.5;}
	.st141{fill:url(#SVGID_119_);}
	.st142{fill:url(#SVGID_120_);}
	.st143{fill:url(#SVGID_121_);}
	.st144{fill:url(#SVGID_122_);}
	.st145{fill:url(#SVGID_123_);}
	.st146{fill:url(#SVGID_124_);}
	.st147{fill:url(#SVGID_125_);}
	.st148{fill:url(#SVGID_126_);}
	.st149{fill:url(#SVGID_127_);}
	.st150{fill:url(#SVGID_128_);}
	.st151{fill:url(#SVGID_129_);}
	.st152{fill:url(#SVGID_130_);}
	.st153{fill:url(#SVGID_131_);}
	.st154{fill:url(#SVGID_132_);}
	.st155{fill:url(#SVGID_133_);}
	.st156{fill:url(#SVGID_134_);}
	.st157{fill:url(#SVGID_135_);}
	.st158{fill:url(#SVGID_136_);}
	.st159{fill:url(#SVGID_137_);}
	.st160{fill:url(#SVGID_138_);}
	.st161{fill:url(#SVGID_139_);}
	.st162{fill:url(#SVGID_140_);}
	.st163{fill:url(#SVGID_141_);}
	.st164{fill:url(#SVGID_142_);}
	.st165{fill:url(#SVGID_143_);}
	.st166{fill:url(#SVGID_144_);}
	.st167{fill:url(#SVGID_145_);}
	.st168{fill:url(#SVGID_146_);}
	.st169{fill:url(#SVGID_147_);}
	.st170{fill:url(#SVGID_148_);}
	.st171{fill:none;stroke:#2D2D2D;stroke-width:2;stroke-miterlimit:10;}
	.st172{fill:url(#SVGID_155_);}
	.st173{fill:url(#SVGID_156_);}
	.st174{fill:url(#SVGID_157_);}
	.st175{clip-path:url(#SVGID_159_);}
	.st176{fill:#FBDD79;}
	.st177{fill:#736357;}
	.st178{fill:#534741;}
	.st179{fill:url(#SVGID_160_);}
	.st180{fill:#F2F2F2;}
	.st181{fill:#00B5E4;}
</style>
<g id="Layer_2">
</g>
<g id="Layer_6" class="st0">
	<g class="st1">
		<g>
			<g>
				<path class="st2" d="M1232.5,32.4c1.93,0,1.93-3,0-3C1230.57,29.4,1230.57,32.4,1232.5,32.4L1232.5,32.4z"/>
			</g>
		</g>
		<g>
			<g>
				<path class="st2" d="M1153.7,114.04c1.93,0,1.93-3,0-3C1151.77,111.04,1151.77,114.04,1153.7,114.04L1153.7,114.04z"/>
			</g>
		</g>
		<g>
			<g>
				<path class="st2" d="M1232.5,190c1.93,0,1.93-3,0-3C1230.57,187,1230.57,190,1232.5,190L1232.5,190z"/>
			</g>
		</g>
		<g>
			<g>
				<path class="st2" d="M1153.7,271.64c1.93,0,1.93-3,0-3C1151.77,268.64,1151.77,271.64,1153.7,271.64L1153.7,271.64z"/>
			</g>
		</g>
		<g>
			<g>
				<path class="st2" d="M1232.5,347.61c1.93,0,1.93-3,0-3C1230.57,344.61,1230.57,347.61,1232.5,347.61L1232.5,347.61z"/>
			</g>
		</g>
		<g>
			<g>
				<path class="st2" d="M1153.7,429.25c1.93,0,1.93-3,0-3C1151.77,426.25,1151.77,429.25,1153.7,429.25L1153.7,429.25z"/>
			</g>
		</g>
		<g>
			<g>
				<path class="st2" d="M1232.5,505.22c1.93,0,1.93-3,0-3C1230.57,502.22,1230.57,505.22,1232.5,505.22L1232.5,505.22z"/>
			</g>
		</g>
		<g>
			<g>
				<path class="st2" d="M1153.7,586.85c1.93,0,1.93-3,0-3C1151.77,583.85,1151.77,586.85,1153.7,586.85L1153.7,586.85z"/>
			</g>
		</g>
		<g>
			<g>
				<path class="st2" d="M1232.5,662.82c1.93,0,1.93-3,0-3C1230.57,659.82,1230.57,662.82,1232.5,662.82L1232.5,662.82z"/>
			</g>
		</g>
		<g>
			<g>
				<path class="st2" d="M1153.7,744.46c1.93,0,1.93-3,0-3C1151.77,741.46,1151.77,744.46,1153.7,744.46L1153.7,744.46z"/>
			</g>
		</g>
	</g>
</g>
<g id="Layer_7" class="st0">
</g>
<g id="Layer_5">
	<g>
		<g>
			<g>
				<defs>
					<path id="SVGID_9_" d="M601.19,312.28v374.38l105.93-39.1V351.38L601.19,312.28z M619.19,398.77
						c-1.66,1.27-3.57,1.49-5.55,1.38c-1.26-0.07-2.48-0.38-3.59-1.02c-0.58-0.34-1.09-0.75-1.53-1.24
						c-0.37-0.41-0.32-0.66,0.17-0.93c0.13-0.07,0.25-0.14,0.39-0.21c0.28-0.13,0.52-0.1,0.75,0.14c1.02,1.07,2.26,1.66,3.73,1.71
						c0.97,0.03,1.96,0.06,2.91-0.2c0.58-0.15,1.08-0.44,1.49-0.85c0.78-0.75,0.59-1.78-0.41-2.21c-0.66-0.29-1.38-0.42-2.09-0.61
						c-1.48-0.39-2.98-0.72-4.44-1.18c-0.48-0.15-0.92-0.38-1.33-0.66c-1.54-0.97-1.46-3.26,0-4.17c1.04-0.66,2.36-1.05,4.33-1.04
						c1.38,0.02,3.04,0.38,4.5,1.43c0.3,0.21,0.57,0.44,0.31,0.85c-0.3,0.46-0.85,0.61-1.22,0.37c-1.98-1.26-4.09-1.37-6.28-0.71
						c-0.38,0.1-0.64,0.41-0.82,0.75c-0.25,0.46-0.19,0.83,0.24,1.18c0.45,0.37,1.01,0.54,1.56,0.71c1.95,0.52,3.93,0.89,5.83,1.59
						c0.97,0.36,1.81,0.92,2.02,2.05C620.4,397.04,620.16,398.04,619.19,398.77z M634.48,388.41v6.62c0,2.42-1.17,4.13-3.49,4.82
						c-2.18,0.65-4.37,0.61-6.41-0.48c-1.52-0.81-2.34-2.13-2.36-3.86c-0.05-2.35-0.02-4.7-0.03-7.06c0-0.45,0.19-0.61,0.63-0.6
						c1.07,0.01,1.07-0.01,1.07,1.05c0,2.11-0.01,4.21,0,6.32c0,1.39,0.63,2.41,1.94,2.94c1.66,0.67,3.33,0.67,4.98,0.02
						c1.33-0.53,1.97-1.54,1.97-2.97c0.01-2.14,0-4.28,0.01-6.41c0-0.31-0.12-0.72,0.2-0.87c0.41-0.2,0.88-0.13,1.31-0.05
						C634.52,387.94,634.48,388.22,634.48,388.41z M638.81,399.23c0,0.74-0.06,0.79-0.79,0.79c-0.12,0-0.23,0-0.35,0.01
						c-0.48,0.06-0.64-0.17-0.64-0.64c0.02-1.11,0.01-2.21,0.01-3.33c0-1.09,0.01-2.19-0.01-3.28c0-0.45,0.14-0.66,0.63-0.66
						c1.15,0,1.15-0.01,1.15,1.15V399.23z M657.61,394.61c-1.83,0.01-3.66,0-5.49,0c-0.54,0-0.6-0.13-0.61-0.82
						c-0.01-0.46,0.16-0.66,0.64-0.65c0.89,0.01,1.78,0,2.68,0c0.93,0,1.85,0.01,2.77,0c0.45-0.01,0.63,0.19,0.63,0.63
						C658.2,394.45,658.12,394.61,657.61,394.61z M658.66,389.29c-2.56,0.01-5.13,0.01-7.69-0.01c-0.5,0-0.66,0.09-0.66,0.64
						c0.03,3.05,0.02,6.08,0.01,9.13c0,0.19-0.01,0.37-0.05,0.54c-0.03,0.3-0.2,0.44-0.53,0.45c-1.75,0.05-1.74,0.03-2.95-1.23
						c-3.14-3.27-6.3-6.52-9.44-9.78c-0.1-0.1-0.22-0.21-0.3-0.32c-0.28-0.39-0.12-0.79,0.35-0.85c0.73-0.07,1.34,0,1.95,0.64
						c2.95,3.16,5.99,6.26,9,9.39c0.05,0.05,0.09,0.08,0.22,0.19v-9.28c0-0.14-0.01-0.3,0.02-0.44c0.06-0.3,0.23-0.5,0.57-0.5
						c3.2,0,6.4,0,9.59,0.01c0.44,0,0.65,0.28,0.65,0.75C659.38,389.08,659.17,389.29,658.66,389.29z M674.2,391.95v3.08
						c0,2.38-1.16,4.04-3.42,4.77c-1.97,0.64-3.95,0.6-5.89-0.14c-1.89-0.72-3-2.39-3.01-4.41c-0.01-2.24,0-4.47,0-6.71
						c0-0.59,0.1-0.68,0.7-0.7c0.98,0,0.98,0,0.98,0.96c0,1.92,0.05,3.85-0.01,5.76c-0.08,2.69,1.25,3.58,3.31,3.97
						c1.16,0.23,2.29,0.12,3.41-0.28c1.48-0.52,2.21-1.55,2.22-3.16c0.01-2.1,0-4.21,0-6.3c0-0.95,0-0.95,0.97-0.95
						c0.05,0,0.1,0.01,0.15,0c0.43-0.05,0.59,0.14,0.58,0.58C674.19,389.6,674.2,390.77,674.2,391.95z M683.47,389.29
						c-1.53,0-3.05,0.01-4.57,0c-0.32-0.01-0.43,0.07-0.43,0.41c0.02,2.78,0.02,5.56,0,8.34c0,0.37,0.15,0.38,0.44,0.38h7.69
						c0.7,0,0.97,0.29,0.92,0.96c-0.03,0.42-0.24,0.65-0.71,0.65h-9.22c-0.59,0-0.83-0.25-0.83-0.86v-10.52c0-0.68,0.1-0.8,0.76-0.8
						h9.19c0.65,0,0.85,0.2,0.82,0.81c-0.01,0.46-0.25,0.64-0.7,0.64C685.72,389.29,684.59,389.29,683.47,389.29z M686.53,393.83
						c0,0.66-0.09,0.78-0.71,0.78h-2.63c-0.92,0-1.82,0.01-2.72,0c-0.58-0.01-0.61-0.09-0.64-0.85c-0.02-0.49,0.19-0.64,0.65-0.63
						c1.78,0.01,3.57,0,5.35,0C686.43,393.13,686.53,393.24,686.53,393.83z M699.79,400.03h-8.74c-0.61-0.01-0.87-0.27-0.87-0.88
						v-10.53c0-0.63,0.15-0.75,0.81-0.75c0.83-0.01,0.93,0.06,0.93,0.72v4.72c0,1.56,0.01,3.12-0.01,4.67
						c0,0.39,0.12,0.46,0.48,0.46c2.42-0.02,4.83-0.01,7.25-0.01c0.64,0,0.96,0.32,0.92,0.89
						C700.52,399.8,700.28,400.03,699.79,400.03z"/>
				</defs>
				<clipPath id="SVGID_2_">
					<use xlink:href="#SVGID_9_"  style="overflow:visible;"/>
				</clipPath>
			</g>
		</g>
		<g>
			<polygon class="st9" points="707.12,351.39 707.12,647.57 601.19,686.66 601.19,312.28 			"/>
			<path class="st10" d="M707.12,351.39v23.15c-15.62-16.49-33.85-25.94-53.3-25.94c-19.18,0-37.16,9.19-52.63,25.24v-61.55
				L707.12,351.39z"/>
			<polygon class="st9" points="707.12,376.95 707.12,647.57 601.19,686.66 601.19,374.1 			"/>
			<g>
				<defs>
					<path id="SVGID_11_" d="M601.19,312.28v374.38l105.93-39.1V351.38L601.19,312.28z M619.19,398.77
						c-1.66,1.27-3.57,1.49-5.55,1.38c-1.26-0.07-2.48-0.38-3.59-1.02c-0.58-0.34-1.09-0.75-1.53-1.24
						c-0.37-0.41-0.32-0.66,0.17-0.93c0.13-0.07,0.25-0.14,0.39-0.21c0.28-0.13,0.52-0.1,0.75,0.14c1.02,1.07,2.26,1.66,3.73,1.71
						c0.97,0.03,1.96,0.06,2.91-0.2c0.58-0.15,1.08-0.44,1.49-0.85c0.78-0.75,0.59-1.78-0.41-2.21c-0.66-0.29-1.38-0.42-2.09-0.61
						c-1.48-0.39-2.98-0.72-4.44-1.18c-0.48-0.15-0.92-0.38-1.33-0.66c-1.54-0.97-1.46-3.26,0-4.17c1.04-0.66,2.36-1.05,4.33-1.04
						c1.38,0.02,3.04,0.38,4.5,1.43c0.3,0.21,0.57,0.44,0.31,0.85c-0.3,0.46-0.85,0.61-1.22,0.37c-1.98-1.26-4.09-1.37-6.28-0.71
						c-0.38,0.1-0.64,0.41-0.82,0.75c-0.25,0.46-0.19,0.83,0.24,1.18c0.45,0.37,1.01,0.54,1.56,0.71c1.95,0.52,3.93,0.89,5.83,1.59
						c0.97,0.36,1.81,0.92,2.02,2.05C620.4,397.04,620.16,398.04,619.19,398.77z M634.48,388.41v6.62c0,2.42-1.17,4.13-3.49,4.82
						c-2.18,0.65-4.37,0.61-6.41-0.48c-1.52-0.81-2.34-2.13-2.36-3.86c-0.05-2.35-0.02-4.7-0.03-7.06c0-0.45,0.19-0.61,0.63-0.6
						c1.07,0.01,1.07-0.01,1.07,1.05c0,2.11-0.01,4.21,0,6.32c0,1.39,0.63,2.41,1.94,2.94c1.66,0.67,3.33,0.67,4.98,0.02
						c1.33-0.53,1.97-1.54,1.97-2.97c0.01-2.14,0-4.28,0.01-6.41c0-0.31-0.12-0.72,0.2-0.87c0.41-0.2,0.88-0.13,1.31-0.05
						C634.52,387.94,634.48,388.22,634.48,388.41z M638.81,399.23c0,0.74-0.06,0.79-0.79,0.79c-0.12,0-0.23,0-0.35,0.01
						c-0.48,0.06-0.64-0.17-0.64-0.64c0.02-1.11,0.01-2.21,0.01-3.33c0-1.09,0.01-2.19-0.01-3.28c0-0.45,0.14-0.66,0.63-0.66
						c1.15,0,1.15-0.01,1.15,1.15V399.23z M657.61,394.61c-1.83,0.01-3.66,0-5.49,0c-0.54,0-0.6-0.13-0.61-0.82
						c-0.01-0.46,0.16-0.66,0.64-0.65c0.89,0.01,1.78,0,2.68,0c0.93,0,1.85,0.01,2.77,0c0.45-0.01,0.63,0.19,0.63,0.63
						C658.2,394.45,658.12,394.61,657.61,394.61z M658.66,389.29c-2.56,0.01-5.13,0.01-7.69-0.01c-0.5,0-0.66,0.09-0.66,0.64
						c0.03,3.05,0.02,6.08,0.01,9.13c0,0.19-0.01,0.37-0.05,0.54c-0.03,0.3-0.2,0.44-0.53,0.45c-1.75,0.05-1.74,0.03-2.95-1.23
						c-3.14-3.27-6.3-6.52-9.44-9.78c-0.1-0.1-0.22-0.21-0.3-0.32c-0.28-0.39-0.12-0.79,0.35-0.85c0.73-0.07,1.34,0,1.95,0.64
						c2.95,3.16,5.99,6.26,9,9.39c0.05,0.05,0.09,0.08,0.22,0.19v-9.28c0-0.14-0.01-0.3,0.02-0.44c0.06-0.3,0.23-0.5,0.57-0.5
						c3.2,0,6.4,0,9.59,0.01c0.44,0,0.65,0.28,0.65,0.75C659.38,389.08,659.17,389.29,658.66,389.29z M674.2,391.95v3.08
						c0,2.38-1.16,4.04-3.42,4.77c-1.97,0.64-3.95,0.6-5.89-0.14c-1.89-0.72-3-2.39-3.01-4.41c-0.01-2.24,0-4.47,0-6.71
						c0-0.59,0.1-0.68,0.7-0.7c0.98,0,0.98,0,0.98,0.96c0,1.92,0.05,3.85-0.01,5.76c-0.08,2.69,1.25,3.58,3.31,3.97
						c1.16,0.23,2.29,0.12,3.41-0.28c1.48-0.52,2.21-1.55,2.22-3.16c0.01-2.1,0-4.21,0-6.3c0-0.95,0-0.95,0.97-0.95
						c0.05,0,0.1,0.01,0.15,0c0.43-0.05,0.59,0.14,0.58,0.58C674.19,389.6,674.2,390.77,674.2,391.95z M683.47,389.29
						c-1.53,0-3.05,0.01-4.57,0c-0.32-0.01-0.43,0.07-0.43,0.41c0.02,2.78,0.02,5.56,0,8.34c0,0.37,0.15,0.38,0.44,0.38h7.69
						c0.7,0,0.97,0.29,0.92,0.96c-0.03,0.42-0.24,0.65-0.71,0.65h-9.22c-0.59,0-0.83-0.25-0.83-0.86v-10.52c0-0.68,0.1-0.8,0.76-0.8
						h9.19c0.65,0,0.85,0.2,0.82,0.81c-0.01,0.46-0.25,0.64-0.7,0.64C685.72,389.29,684.59,389.29,683.47,389.29z M686.53,393.83
						c0,0.66-0.09,0.78-0.71,0.78h-2.63c-0.92,0-1.82,0.01-2.72,0c-0.58-0.01-0.61-0.09-0.64-0.85c-0.02-0.49,0.19-0.64,0.65-0.63
						c1.78,0.01,3.57,0,5.35,0C686.43,393.13,686.53,393.24,686.53,393.83z M699.79,400.03h-8.74c-0.61-0.01-0.87-0.27-0.87-0.88
						v-10.53c0-0.63,0.15-0.75,0.81-0.75c0.83-0.01,0.93,0.06,0.93,0.72v4.72c0,1.56,0.01,3.12-0.01,4.67
						c0,0.39,0.12,0.46,0.48,0.46c2.42-0.02,4.83-0.01,7.25-0.01c0.64,0,0.96,0.32,0.92,0.89
						C700.52,399.8,700.28,400.03,699.79,400.03z"/>
				</defs>
				<clipPath id="SVGID_4_">
					<use xlink:href="#SVGID_11_"  style="overflow:visible;"/>
				</clipPath>
				<radialGradient id="SVGID_5_" cx="656.2298" cy="395.9407" r="211.1162" gradientUnits="userSpaceOnUse">
					<stop  offset="0" style="stop-color:#FFFFFF"/>
					<stop  offset="1" style="stop-color:#FFFFFF;stop-opacity:0"/>
				</radialGradient>
				<ellipse class="st11" cx="653.82" cy="536.66" rx="105.11" ry="188.07"/>
			</g>
			<g>
				<path class="st10" d="M659.39,388.61c-0.01,0.46-0.22,0.67-0.73,0.67c-2.56,0.01-5.13,0.01-7.69-0.01
					c-0.5,0-0.66,0.09-0.66,0.64c0.03,3.05,0.02,6.08,0.01,9.13c0,0.19-0.01,0.37-0.05,0.54c-0.03,0.3-0.2,0.44-0.53,0.45
					c-1.75,0.05-1.74,0.03-2.95-1.23c-3.14-3.27-6.3-6.52-9.44-9.78c-0.1-0.1-0.22-0.21-0.3-0.32c-0.28-0.39-0.12-0.79,0.35-0.85
					c0.73-0.07,1.34,0,1.95,0.64c2.95,3.16,5.99,6.26,9,9.39c0.05,0.05,0.09,0.08,0.22,0.19v-9.28c0-0.14-0.01-0.3,0.02-0.44
					c0.06-0.3,0.23-0.5,0.57-0.5c3.2,0,6.4,0,9.59,0.01C659.18,387.86,659.39,388.14,659.39,388.61z"/>
				<path class="st10" d="M619.19,398.77c-1.66,1.27-3.57,1.49-5.55,1.38c-1.26-0.07-2.48-0.38-3.59-1.02
					c-0.58-0.34-1.09-0.75-1.53-1.24c-0.37-0.41-0.32-0.66,0.17-0.93c0.13-0.07,0.25-0.14,0.39-0.21c0.28-0.13,0.52-0.1,0.75,0.14
					c1.02,1.07,2.26,1.66,3.73,1.71c0.97,0.03,1.96,0.06,2.91-0.2c0.58-0.15,1.08-0.44,1.49-0.85c0.78-0.75,0.59-1.78-0.41-2.21
					c-0.66-0.29-1.38-0.42-2.09-0.61c-1.48-0.39-2.98-0.72-4.44-1.18c-0.48-0.15-0.92-0.38-1.33-0.66c-1.54-0.97-1.46-3.26,0-4.17
					c1.04-0.66,2.36-1.05,4.33-1.04c1.38,0.02,3.04,0.38,4.5,1.43c0.3,0.21,0.57,0.44,0.31,0.85c-0.3,0.46-0.85,0.61-1.22,0.37
					c-1.98-1.26-4.09-1.37-6.28-0.71c-0.38,0.1-0.64,0.41-0.82,0.75c-0.25,0.46-0.19,0.83,0.24,1.18c0.45,0.37,1.01,0.54,1.56,0.71
					c1.95,0.52,3.93,0.89,5.83,1.59c0.97,0.36,1.81,0.92,2.02,2.05C620.4,397.04,620.16,398.04,619.19,398.77z"/>
				<path class="st10" d="M634.48,388.41v6.62c0,2.42-1.17,4.13-3.49,4.82c-2.18,0.65-4.37,0.61-6.41-0.48
					c-1.52-0.81-2.34-2.13-2.36-3.86c-0.05-2.35-0.02-4.7-0.03-7.06c0-0.45,0.19-0.61,0.63-0.6c1.07,0.01,1.07-0.01,1.07,1.05
					c0,2.11-0.01,4.21,0,6.32c0,1.39,0.63,2.41,1.94,2.94c1.66,0.67,3.33,0.67,4.98,0.02c1.33-0.53,1.97-1.54,1.97-2.97
					c0.01-2.14,0-4.28,0.01-6.41c0-0.31-0.12-0.72,0.2-0.87c0.41-0.2,0.88-0.13,1.31-0.05
					C634.52,387.94,634.48,388.22,634.48,388.41z"/>
				<path class="st10" d="M674.2,388.43c-0.01,1.17,0,2.34,0,3.52v3.08c0,2.38-1.16,4.04-3.42,4.77c-1.97,0.64-3.95,0.6-5.89-0.14
					c-1.89-0.72-3-2.39-3.01-4.41c-0.01-2.24,0-4.47,0-6.71c0-0.59,0.1-0.68,0.7-0.7c0.98,0,0.98,0,0.98,0.96
					c0,1.92,0.05,3.85-0.01,5.76c-0.08,2.69,1.25,3.58,3.31,3.97c1.16,0.23,2.29,0.12,3.41-0.28c1.48-0.52,2.21-1.55,2.22-3.16
					c0.01-2.1,0-4.21,0-6.3c0-0.95,0-0.95,0.97-0.95c0.05,0,0.1,0.01,0.15,0C674.05,387.8,674.21,387.99,674.2,388.43z"/>
				<path class="st10" d="M687.53,399.38c-0.03,0.42-0.24,0.65-0.71,0.65h-9.22c-0.59,0-0.83-0.25-0.83-0.86v-10.52
					c0-0.68,0.1-0.8,0.76-0.8h9.19c0.65,0,0.85,0.2,0.82,0.81c-0.01,0.46-0.25,0.64-0.7,0.64c-1.12-0.01-2.25-0.01-3.37-0.01
					c-1.53,0-3.05,0.01-4.57,0c-0.32-0.01-0.43,0.07-0.43,0.41c0.02,2.78,0.02,5.56,0,8.34c0,0.37,0.15,0.38,0.44,0.38h7.69
					C687.31,398.42,687.58,398.71,687.53,399.38z"/>
				<path class="st10" d="M700.55,399.31c-0.03,0.49-0.27,0.72-0.76,0.72h-8.74c-0.61-0.01-0.87-0.27-0.87-0.88v-10.53
					c0-0.63,0.15-0.75,0.81-0.75c0.83-0.01,0.93,0.06,0.93,0.72v4.72c0,1.56,0.01,3.12-0.01,4.67c0,0.39,0.12,0.46,0.48,0.46
					c2.42-0.02,4.83-0.01,7.25-0.01C700.27,398.42,700.6,398.74,700.55,399.31z"/>
				<path class="st10" d="M638.81,393.27v5.96c0,0.74-0.06,0.79-0.79,0.79c-0.12,0-0.23,0-0.35,0.01c-0.48,0.06-0.64-0.17-0.64-0.64
					c0.02-1.11,0.01-2.21,0.01-3.33c0-1.09,0.01-2.19-0.01-3.28c0-0.45,0.14-0.66,0.63-0.66
					C638.81,392.13,638.81,392.11,638.81,393.27z"/>
				<path class="st10" d="M686.53,393.83c0,0.66-0.09,0.78-0.71,0.78h-2.63c-0.92,0-1.82,0.01-2.72,0
					c-0.58-0.01-0.61-0.09-0.64-0.85c-0.02-0.49,0.19-0.64,0.65-0.63c1.78,0.01,3.57,0,5.35,0
					C686.43,393.13,686.53,393.24,686.53,393.83z"/>
				<path class="st10" d="M658.21,393.76c-0.01,0.7-0.09,0.85-0.6,0.85c-1.83,0.01-3.66,0-5.49,0c-0.54,0-0.6-0.13-0.61-0.82
					c-0.01-0.46,0.16-0.66,0.64-0.65c0.89,0.01,1.78,0,2.68,0c0.93,0,1.85,0.01,2.77,0C658.04,393.12,658.21,393.32,658.21,393.76z"
					/>
			</g>
			<path class="st12" d="M615.63,96.19v44.84l76.38-28.19V96.19H615.63z M634.68,127.37c-7.11,0-12.9-5.78-12.9-12.9
				c0-7.13,5.78-12.9,12.9-12.9c6.27,0,11.49,4.47,12.65,10.39c0.02,0.14-0.01,0.27-0.1,0.37l-1.74,1.77
				c-0.14,0.13-0.03,0.36,0.15,0.36h1.62c0.17,0,0.31,0.14,0.3,0.31C647.4,121.77,641.7,127.37,634.68,127.37z"/>
			<polygon class="st10" points="707.12,107.27 707.12,351.38 692.01,331.84 692.01,112.84 			"/>
			<polygon class="st13" points="707.12,96.19 707.12,107.27 692.01,112.84 692.01,96.19 			"/>
			<polygon class="st13" points="615.63,96.19 615.63,141.04 601.19,146.37 601.19,96.19 			"/>
			<path class="st10" d="M601.19,146.37v165.91l14.44-8.4V141.04L601.19,146.37z M613.44,292.54l-10.42,5.85v-46.05l10.42-6.04
				V292.54z"/>
			<path class="st10" d="M637.04,399.39c0.02-1.11,0.01-2.21,0.01-3.33c0-1.09,0.01-2.19-0.01-3.28c0-0.45,0.14-0.66,0.63-0.66
				c1.15,0,1.15-0.01,1.15,1.15v5.96c0,0.74-0.06,0.79-0.79,0.79c-0.12,0-0.23,0-0.35,0.01
				C637.2,400.09,637.04,399.85,637.04,399.39z"/>
			<path class="st10" d="M657.58,393.13c0.45-0.01,0.63,0.19,0.63,0.63c-0.01,0.7-0.09,0.85-0.6,0.85c-1.83,0.01-3.66,0-5.49,0
				c-0.54,0-0.6-0.13-0.61-0.82c-0.01-0.46,0.16-0.66,0.64-0.65c0.89,0.01,1.78,0,2.68,0C655.74,393.13,656.67,393.15,657.58,393.13
				z"/>
			<path class="st10" d="M637.04,388.71c-0.28-0.39-0.12-0.79,0.35-0.85c0.73-0.07,1.34,0,1.95,0.64c2.95,3.16,5.99,6.26,9,9.39
				c0.05,0.05,0.09,0.08,0.22,0.19v-9.28c0-0.14-0.01-0.3,0.02-0.44c0.06-0.3,0.23-0.5,0.57-0.5c3.2,0,6.4,0,9.59,0.01
				c0.44,0,0.65,0.28,0.65,0.75c-0.01,0.46-0.22,0.67-0.73,0.67c-2.56,0.01-5.13,0.01-7.69-0.01c-0.5,0-0.66,0.09-0.66,0.64
				c0.03,3.05,0.02,6.08,0.01,9.13c0,0.19-0.01,0.37-0.05,0.54c-0.03,0.3-0.2,0.44-0.53,0.45c-1.75,0.05-1.74,0.03-2.95-1.23
				c-3.14-3.27-6.3-6.52-9.44-9.78C637.24,388.93,637.12,388.82,637.04,388.71z"/>
			<path class="st10" d="M661.88,395.25c-0.01-2.24,0-4.47,0-6.71c0-0.59,0.1-0.68,0.7-0.7c0.98,0,0.98,0,0.98,0.96
				c0,1.92,0.05,3.85-0.01,5.76c-0.08,2.69,1.25,3.58,3.31,3.97c1.16,0.23,2.29,0.12,3.41-0.28c1.48-0.52,2.21-1.55,2.22-3.16
				c0.01-2.1,0-4.21,0-6.3c0-0.95,0-0.95,0.97-0.95c0.05,0,0.1,0.01,0.15,0c0.43-0.05,0.59,0.14,0.58,0.58c-0.01,1.17,0,2.34,0,3.52
				v3.08c0,2.38-1.16,4.04-3.42,4.77c-1.97,0.64-3.95,0.6-5.89-0.14C663.01,398.95,661.89,397.28,661.88,395.25z"/>
			<path class="st10" d="M685.83,393.13c0.59,0,0.7,0.1,0.7,0.7c0,0.66-0.09,0.78-0.71,0.78h-2.63c-0.92,0-1.82,0.01-2.72,0
				c-0.58-0.01-0.61-0.09-0.64-0.85c-0.02-0.49,0.19-0.64,0.65-0.63C682.27,393.15,684.05,393.13,685.83,393.13z"/>
			<path class="st10" d="M676.76,399.17v-10.52c0-0.68,0.1-0.8,0.76-0.8h9.19c0.65,0,0.85,0.2,0.82,0.81
				c-0.01,0.46-0.25,0.64-0.7,0.64c-1.12-0.01-2.25-0.01-3.37-0.01c-1.53,0-3.05,0.01-4.57,0c-0.32-0.01-0.43,0.07-0.43,0.41
				c0.02,2.78,0.02,5.56,0,8.34c0,0.37,0.15,0.38,0.44,0.38h7.69c0.7,0,0.97,0.29,0.92,0.96c-0.03,0.42-0.24,0.65-0.71,0.65h-9.22
				C677,400.03,676.76,399.77,676.76,399.17z"/>
			<path class="st10" d="M690.18,399.15v-10.53c0-0.63,0.15-0.75,0.81-0.75c0.83-0.01,0.93,0.06,0.93,0.72v4.72
				c0,1.56,0.01,3.12-0.01,4.67c0,0.39,0.12,0.46,0.48,0.46c2.42-0.02,4.83-0.01,7.25-0.01c0.64,0,0.96,0.32,0.92,0.89
				c-0.03,0.49-0.27,0.72-0.76,0.72h-8.74C690.43,400.02,690.18,399.76,690.18,399.15z"/>
			<polygon class="st12" points="707.12,647.56 707.12,708.81 601.19,708.81 601.19,686.66 			"/>
			<rect x="590.17" y="708.81" class="st14" width="127.67" height="3.17"/>
			<polygon class="st15" points="707.12,351.38 601.19,312.28 615.63,303.88 692.01,331.84 			"/>
			<polygon class="st9" points="692.01,112.84 692.01,331.84 615.63,303.88 615.63,141.04 			"/>
			<polygon class="st16" points="613.44,246.31 613.44,292.54 603.02,298.39 603.02,252.35 			"/>
			<g>
				<g>
					<path class="st17" d="M647.26,114.48h-1.62c-0.19,0-0.29-0.23-0.15-0.36l1.74-1.77c0.09-0.1,0.13-0.23,0.1-0.37
						c-1.16-5.92-6.38-10.39-12.65-10.39c-7.11,0-12.9,5.77-12.9,12.9c0,7.11,5.78,12.9,12.9,12.9c7.02,0,12.72-5.61,12.89-12.58
						C647.57,114.62,647.43,114.48,647.26,114.48z M634.68,123.4c-4.92,0-8.92-4-8.92-8.92c0-4.92,4-8.92,8.92-8.92
						c4.94,0,8.92,4,8.92,8.92C643.6,119.4,639.61,123.4,634.68,123.4z"/>
					<circle class="st12" cx="634.68" cy="114.48" r="8.92"/>
				</g>
			</g>
		</g>
		<g>
			<g>
				<defs>
					<path id="SVGID_14_" d="M601.19,312.28v374.38l105.93-39.1V351.38L601.19,312.28z M619.19,398.77
						c-1.66,1.27-3.57,1.49-5.55,1.38c-1.26-0.07-2.48-0.38-3.59-1.02c-0.58-0.34-1.09-0.75-1.53-1.24
						c-0.37-0.41-0.32-0.66,0.17-0.93c0.13-0.07,0.25-0.14,0.39-0.21c0.28-0.13,0.52-0.1,0.75,0.14c1.02,1.07,2.26,1.66,3.73,1.71
						c0.97,0.03,1.96,0.06,2.91-0.2c0.58-0.15,1.08-0.44,1.49-0.85c0.78-0.75,0.59-1.78-0.41-2.21c-0.66-0.29-1.38-0.42-2.09-0.61
						c-1.48-0.39-2.98-0.72-4.44-1.18c-0.48-0.15-0.92-0.38-1.33-0.66c-1.54-0.97-1.46-3.26,0-4.17c1.04-0.66,2.36-1.05,4.33-1.04
						c1.38,0.02,3.04,0.38,4.5,1.43c0.3,0.21,0.57,0.44,0.31,0.85c-0.3,0.46-0.85,0.61-1.22,0.37c-1.98-1.26-4.09-1.37-6.28-0.71
						c-0.38,0.1-0.64,0.41-0.82,0.75c-0.25,0.46-0.19,0.83,0.24,1.18c0.45,0.37,1.01,0.54,1.56,0.71c1.95,0.52,3.93,0.89,5.83,1.59
						c0.97,0.36,1.81,0.92,2.02,2.05C620.4,397.04,620.16,398.04,619.19,398.77z M634.48,388.41v6.62c0,2.42-1.17,4.13-3.49,4.82
						c-2.18,0.65-4.37,0.61-6.41-0.48c-1.52-0.81-2.34-2.13-2.36-3.86c-0.05-2.35-0.02-4.7-0.03-7.06c0-0.45,0.19-0.61,0.63-0.6
						c1.07,0.01,1.07-0.01,1.07,1.05c0,2.11-0.01,4.21,0,6.32c0,1.39,0.63,2.41,1.94,2.94c1.66,0.67,3.33,0.67,4.98,0.02
						c1.33-0.53,1.97-1.54,1.97-2.97c0.01-2.14,0-4.28,0.01-6.41c0-0.31-0.12-0.72,0.2-0.87c0.41-0.2,0.88-0.13,1.31-0.05
						C634.52,387.94,634.48,388.22,634.48,388.41z M638.81,399.23c0,0.74-0.06,0.79-0.79,0.79c-0.12,0-0.23,0-0.35,0.01
						c-0.48,0.06-0.64-0.17-0.64-0.64c0.02-1.11,0.01-2.21,0.01-3.33c0-1.09,0.01-2.19-0.01-3.28c0-0.45,0.14-0.66,0.63-0.66
						c1.15,0,1.15-0.01,1.15,1.15V399.23z M657.61,394.61c-1.83,0.01-3.66,0-5.49,0c-0.54,0-0.6-0.13-0.61-0.82
						c-0.01-0.46,0.16-0.66,0.64-0.65c0.89,0.01,1.78,0,2.68,0c0.93,0,1.85,0.01,2.77,0c0.45-0.01,0.63,0.19,0.63,0.63
						C658.2,394.45,658.12,394.61,657.61,394.61z M658.66,389.29c-2.56,0.01-5.13,0.01-7.69-0.01c-0.5,0-0.66,0.09-0.66,0.64
						c0.03,3.05,0.02,6.08,0.01,9.13c0,0.19-0.01,0.37-0.05,0.54c-0.03,0.3-0.2,0.44-0.53,0.45c-1.75,0.05-1.74,0.03-2.95-1.23
						c-3.14-3.27-6.3-6.52-9.44-9.78c-0.1-0.1-0.22-0.21-0.3-0.32c-0.28-0.39-0.12-0.79,0.35-0.85c0.73-0.07,1.34,0,1.95,0.64
						c2.95,3.16,5.99,6.26,9,9.39c0.05,0.05,0.09,0.08,0.22,0.19v-9.28c0-0.14-0.01-0.3,0.02-0.44c0.06-0.3,0.23-0.5,0.57-0.5
						c3.2,0,6.4,0,9.59,0.01c0.44,0,0.65,0.28,0.65,0.75C659.38,389.08,659.17,389.29,658.66,389.29z M674.2,391.95v3.08
						c0,2.38-1.16,4.04-3.42,4.77c-1.97,0.64-3.95,0.6-5.89-0.14c-1.89-0.72-3-2.39-3.01-4.41c-0.01-2.24,0-4.47,0-6.71
						c0-0.59,0.1-0.68,0.7-0.7c0.98,0,0.98,0,0.98,0.96c0,1.92,0.05,3.85-0.01,5.76c-0.08,2.69,1.25,3.58,3.31,3.97
						c1.16,0.23,2.29,0.12,3.41-0.28c1.48-0.52,2.21-1.55,2.22-3.16c0.01-2.1,0-4.21,0-6.3c0-0.95,0-0.95,0.97-0.95
						c0.05,0,0.1,0.01,0.15,0c0.43-0.05,0.59,0.14,0.58,0.58C674.19,389.6,674.2,390.77,674.2,391.95z M683.47,389.29
						c-1.53,0-3.05,0.01-4.57,0c-0.32-0.01-0.43,0.07-0.43,0.41c0.02,2.78,0.02,5.56,0,8.34c0,0.37,0.15,0.38,0.44,0.38h7.69
						c0.7,0,0.97,0.29,0.92,0.96c-0.03,0.42-0.24,0.65-0.71,0.65h-9.22c-0.59,0-0.83-0.25-0.83-0.86v-10.52c0-0.68,0.1-0.8,0.76-0.8
						h9.19c0.65,0,0.85,0.2,0.82,0.81c-0.01,0.46-0.25,0.64-0.7,0.64C685.72,389.29,684.59,389.29,683.47,389.29z M686.53,393.83
						c0,0.66-0.09,0.78-0.71,0.78h-2.63c-0.92,0-1.82,0.01-2.72,0c-0.58-0.01-0.61-0.09-0.64-0.85c-0.02-0.49,0.19-0.64,0.65-0.63
						c1.78,0.01,3.57,0,5.35,0C686.43,393.13,686.53,393.24,686.53,393.83z M699.79,400.03h-8.74c-0.61-0.01-0.87-0.27-0.87-0.88
						v-10.53c0-0.63,0.15-0.75,0.81-0.75c0.83-0.01,0.93,0.06,0.93,0.72v4.72c0,1.56,0.01,3.12-0.01,4.67
						c0,0.39,0.12,0.46,0.48,0.46c2.42-0.02,4.83-0.01,7.25-0.01c0.64,0,0.96,0.32,0.92,0.89
						C700.52,399.8,700.28,400.03,699.79,400.03z"/>
				</defs>
				<clipPath id="SVGID_7_">
					<use xlink:href="#SVGID_14_"  style="overflow:visible;"/>
				</clipPath>
			</g>
		</g>
	</g>
	<g>
		<g>
			<g id="LINE_143_">
				<rect x="837.77" y="709.4" class="st18" width="74.39" height="2.6"/>
			</g>
			<g id="LINE_142_">
				<linearGradient id="SVGID_8_" gradientUnits="userSpaceOnUse" x1="898.6405" y1="380.8596" x2="899.9543" y2="353.7065">
					<stop  offset="0" style="stop-color:#494949"/>
					<stop  offset="1" style="stop-color:#6B6B6B"/>
				</linearGradient>
				<rect x="886.29" y="353.45" class="st19" width="25.87" height="30.73"/>
			</g>
			<g id="LINE_141_">
				<rect x="886.29" y="614.22" class="st10" width="1.62" height="8.9"/>
			</g>
			<g id="LINE_140_">
				<rect x="886.29" y="311.56" class="st10" width="1.62" height="8.89"/>
			</g>
			<g id="LINE_139_">
				<rect x="912.16" y="348.59" class="st9" width="0.97" height="38.49"/>
			</g>
			<g id="LWPOLYLINE_28_">
				<polygon class="st9" points="913.03,387.71 912.36,389.66 911.7,391.58 911.04,393.48 910.4,395.36 909.76,397.19 
					909.15,398.99 908.55,400.72 907.97,402.42 907.41,404.04 906.87,405.6 906.36,407.09 905.87,408.5 905.42,409.83 
					904.99,411.08 904.58,412.23 904.22,413.3 903.89,414.26 903.59,415.13 903.33,415.88 903.1,416.54 902.18,416.22 
					902.42,415.57 902.67,414.8 902.97,413.94 903.31,412.98 903.67,411.92 904.06,410.76 904.49,409.52 904.95,408.19 
					905.44,406.77 905.95,405.28 906.49,403.72 907.05,402.09 907.63,400.41 908.23,398.66 908.85,396.88 909.48,395.03 
					910.12,393.17 910.78,391.27 911.44,389.34 912.11,387.4 				"/>
			</g>
			<g id="LINE_135_">
				<polygon class="st10" points="904.1,471.2 886.29,482.75 886.29,426.52 				"/>
			</g>
			<g id="SPLINE_10_">
				<path class="st20" d="M857.74,352.87c0.01,0.01,0.02,0.01,0.03,0.02c0.03,0.02,0.08,0.03,0.12,0.03c0.02,0,0.04,0,0.05,0"/>
			</g>
			<g id="LINE_134_">
				<path class="st9" d="M848.88,96.2v256.32h8.3V709.4h29.11V96.2H848.88z M857.95,352.93c-0.07-0.01-0.14-0.01-0.22-0.01
					c-0.08-0.01-0.16-0.01-0.22-0.05h0.44V352.93z"/>
			</g>
			<g id="LINE_133_">
				<polygon class="st10" points="848.88,96.19 848.88,352.51 848.68,352.51 828.38,333.72 828.38,96.19 				"/>
			</g>
		</g>
	</g>
	<line class="st21" x1="707.04" y1="66.93" x2="707.04" y2="42.58"/>
	<line class="st21" x1="601.19" y1="66.93" x2="601.19" y2="42.58"/>
	<line class="st21" x1="707.04" y1="54.19" x2="601.19" y2="54.19"/>
	<g>
		<path class="st24" d="M640.91,36.52c2.58,0.22,4.34,1.72,4.34,4.14c0,2.88-2.18,4.89-5.61,4.89c-1.89,0-3.88-0.66-5.2-1.67
			l1.08-2.11c1.1,1.04,2.53,1.61,3.94,1.61c2.05,0,3.24-1.06,3.24-2.64c0-1.67-1.21-2.53-3.26-2.53h-2.14v-1.52l4.01-4.32h-6.17
			v-2.31h9.38v1.63l-4.4,4.76L640.91,36.52z"/>
		<path class="st24" d="M652.77,36.52c2.58,0.22,4.34,1.72,4.34,4.14c0,2.88-2.18,4.89-5.61,4.89c-1.89,0-3.88-0.66-5.2-1.67
			l1.08-2.11c1.1,1.04,2.53,1.61,3.94,1.61c2.05,0,3.24-1.06,3.24-2.64c0-1.67-1.21-2.53-3.26-2.53h-2.14v-1.52l4.01-4.32H647v-2.31
			h9.38v1.63l-4.4,4.76L652.77,36.52z"/>
		<path class="st24" d="M672.24,37.73c0,5-2.33,7.77-6.54,7.77c-4.23,0-6.56-2.77-6.56-7.77s2.33-7.77,6.56-7.77
			C669.9,29.96,672.24,32.73,672.24,37.73z M661.8,37.73c0,3.9,1.3,5.73,3.9,5.73c2.58,0,3.88-1.83,3.88-5.73
			c0-3.92-1.3-5.72-3.88-5.72C663.1,32.01,661.8,33.81,661.8,37.73z"/>
	</g>
	<line class="st21" x1="572.68" y1="96.19" x2="548.33" y2="96.19"/>
	<line class="st21" x1="559.94" y1="96.19" x2="559.94" y2="711.99"/>
	<g>
		<path class="st24" d="M499.06,404.09v-13.1h-3.02v-2.31h5.61v15.41H499.06z"/>
		<path class="st24" d="M505.64,403.04l1.01-1.96c0.95,0.62,2.25,0.97,3.41,0.97c2.99,0,4.38-2.25,4.29-5.57
			c-0.81,1.43-2.27,2.18-4.21,2.18c-3.08,0-4.95-1.92-4.95-4.91c0-3.19,2.14-5.17,5.42-5.17c3.9,0,6.28,2.77,6.28,7.51
			c0,4.91-2.58,8.13-6.65,8.13C508.73,404.2,506.9,403.74,505.64,403.04z M513.95,393.68c0.02-1.34-0.97-2.86-3.19-2.86
			c-1.87,0-3.13,1.08-3.13,2.95c0,1.76,1.15,2.84,3.02,2.84C512.73,396.61,513.97,395.26,513.95,393.68z"/>
		<path class="st24" d="M531.98,396.39c0,5-2.33,7.77-6.54,7.77c-4.23,0-6.56-2.77-6.56-7.77c0-5,2.33-7.77,6.56-7.77
			C529.64,388.61,531.98,391.39,531.98,396.39z M521.54,396.39c0,3.9,1.3,5.72,3.9,5.72c2.58,0,3.88-1.83,3.88-5.72
			c0-3.92-1.3-5.73-3.88-5.73C522.84,390.66,521.54,392.47,521.54,396.39z"/>
		<path class="st24" d="M547.19,396.39c0,5-2.33,7.77-6.54,7.77c-4.23,0-6.56-2.77-6.56-7.77c0-5,2.33-7.77,6.56-7.77
			C544.86,388.61,547.19,391.39,547.19,396.39z M536.75,396.39c0,3.9,1.3,5.72,3.9,5.72c2.58,0,3.88-1.83,3.88-5.72
			c0-3.92-1.3-5.73-3.88-5.73C538.05,390.66,536.75,392.47,536.75,396.39z"/>
	</g>
	<line class="st21" x1="913.13" y1="320.45" x2="913.13" y2="42.58"/>
	<line class="st21" x1="828.38" y1="66.93" x2="828.38" y2="42.58"/>
	<line class="st21" x1="913.13" y1="54.19" x2="828.38" y2="54.19"/>
	<g>
		<path class="st24" d="M862.84,33.79c0,1.56-1.19,3.3-2.82,5.06l-4.01,4.25h7.53v2.33h-10.97v-1.89l5.68-6.1
			c1.12-1.15,1.87-2.4,1.87-3.28c0-1.23-0.97-1.98-2.58-1.98c-1.34,0-2.91,0.75-4.21,1.94l-1.03-2c1.67-1.37,3.63-2.2,5.61-2.2
			C860.83,29.91,862.84,31.43,862.84,33.79z"/>
		<path class="st24" d="M876.84,31.08l-1.01,1.96c-0.95-0.62-2.25-0.97-3.41-0.97c-2.99,0-4.38,2.25-4.29,5.57
			c0.81-1.43,2.27-2.18,4.21-2.18c3.08,0,4.95,1.92,4.95,4.91c0,3.19-2.14,5.17-5.42,5.17c-3.9,0-6.27-2.77-6.27-7.51
			c0-4.91,2.58-8.12,6.65-8.12C873.75,29.91,875.58,30.38,876.84,31.08z M868.54,40.44c-0.02,1.34,0.97,2.86,3.19,2.86
			c1.87,0,3.13-1.08,3.13-2.95c0-1.76-1.15-2.84-3.02-2.84C869.75,37.51,868.51,38.85,868.54,40.44z"/>
		<path class="st24" d="M884.63,36.52c2.58,0.22,4.34,1.72,4.34,4.14c0,2.88-2.18,4.89-5.61,4.89c-1.89,0-3.88-0.66-5.2-1.67
			l1.08-2.11c1.1,1.04,2.53,1.61,3.94,1.61c2.05,0,3.24-1.06,3.24-2.64c0-1.67-1.21-2.53-3.26-2.53h-2.14v-1.52l4.01-4.32h-6.17
			v-2.31h9.38v1.63l-4.4,4.76L884.63,36.52z"/>
	</g>
</g>
<g id="Layer_1">
</g>
<g id="Layer_3">
</g>
<g id="Layer_4">
	<g>
		<path class="st50" d="M365.89,603.53c-15.01-13.68-29.64-27.11-44.39-40.41c-4.06-3.67-8.52-6.9-12.71-10.42
			c-4.22-3.54-5.79-8.16-5.36-13.61c1.04-13.05,0.22-26.01-2.12-38.89c-0.47-2.56-0.49-5.22-0.6-7.83
			c-0.45-10.09-0.87-20.17-1.27-30.26c-0.04-1.09,0.14-2.2,0.24-3.55c-1.23,0.03-2.46,0.24-3.63,0.07
			c-3.99-0.55-7.42-2.36-10.18-5.25c-0.89-0.93-1.58-2.22-1.91-3.47c-0.8-3.06-1.63-6.16-1.9-9.29c-0.28-3.1-0.33-6.34,0.3-9.36
			c0.93-4.48,2.55-8.81,3.93-13.39c-3.86-0.74-2.52-3.84-2.5-6.08c0.04-4.18,0.51-8.36,0.9-12.52c0.88-9.37,1.89-18.73,2.73-28.1
			c0.5-5.6,0.66-11.23,1.22-16.83c0.78-7.7,1.47-15.44,2.79-23.06c1.8-10.37,4.22-20.64,6.26-30.97c2.9-14.75,5.69-29.52,8.53-44.28
			c0.81-4.2,1.71-8.39,2.38-12.61c0.98-6.16,4.76-9.84,10.08-12.63c7.44-3.91,14.71-8.15,21.98-12.39c0.92-0.54,1.78-1.83,1.95-2.9
			c0.72-4.37,2.52-8.18,5.5-11.38c1.97-2.11,1.16-4.54,0.95-6.8c-0.43-4.65-1.17-9.26-1.82-13.89c-0.08-0.6-0.3-1.23-0.63-1.74
			c-2.07-3.19-4.22-6.32-6.28-9.51c-2.14-3.3-1.82-7.85,0.18-11.27c0.66-1.12,0.31-2.9,0.21-4.37c-0.14-2.21-0.3-4.45-0.72-6.62
			c-1.05-5.31,1.89-9.27,4.36-13.37c0.93-1.55,2.1-3.01,3.39-4.27c0.87-0.85,2.22-1.18,3.21-1.92c0.74-0.56,1.51-1.31,1.83-2.15
			c1.12-2.92,2.97-4.91,6.06-5.76c9.19-2.54,18.03-1.66,26.49,2.72c5.49,2.84,10.94,5.77,16.41,8.66c1.78,0.94,2.76,2.38,2.49,4.41
			c-0.08,0.63-0.66,1.19-1,1.78c-0.55-0.37-1.09-0.74-1.66-1.13c-0.27,1.82-0.11,4.26-2.3,5.87c-0.27,0.2,0.14,1.61,0.49,2.34
			c1.35,2.77,1.87,5.8,0.85,8.55c-2.14,5.79-2.38,11.73-2.65,17.77c-0.33,7.28-1.4,14.51-4.09,21.37c-1.08,2.76-0.27,4.69,1.33,7.14
			c3.4,5.18,8.47,7.45,13.8,9.58c8.6,3.44,17.03,7.42,25.85,10.16c7.31,2.27,10.52,7.11,11.68,13.91
			c1.15,6.79,1.81,13.67,2.85,20.48c1.56,10.26,3.42,20.48,4.88,30.76c1.55,10.98,3.18,21.97,4.02,33.01
			c0.72,9.45,0.3,18.98-5.51,27.22c-3.53,5-7.26,9.85-10.84,14.81c-4.59,6.36-9.2,12.71-13.66,19.17c-2.76,4.01-3.21,8.55-2.2,13.25
			c1.82,8.44,3.73,16.86,5.5,25.3c1,4.74,0.91,4.73-3.7,5.73c-5.03,1.08-10.05,2.21-14.79,3.25c-0.82,2-1.42,3.88-2.32,5.61
			c-2.48,4.77-1.78,9.9-1.98,14.95c-0.31,7.92-0.64,15.84-1.04,23.76c-0.29,5.86-0.73,11.71-1.04,17.57
			c-0.63,11.78-1.04,23.58-1.93,35.35c-0.32,4.2-0.2,8.2,1.04,12.2c0.23,0.75,0.32,1.56,0.35,2.35c0.46,10.48,1.04,20.96,1.29,31.45
			c0.1,4.1-0.61,8.21-0.73,12.32c-0.03,0.87,0.69,2.11,1.43,2.57c2.07,1.3,4.25,2.5,6.54,3.32c2.35,0.84,4.85,1.4,7.33,1.66
			c3.61,0.38,7.29,0.22,10.9,0.6c3.08,0.33,5.04,2.09,6.05,5.25c1.39,4.33,1.57,8.69,1.31,13.14c-0.17,3.01-0.35,6.01-0.53,9.12
			c-0.61,0.17-1.29,0.36-2.13,0.6c0.06,6.58,2.01,12.78,4.36,18.81c4.3,11.02,3.61,21.97-0.57,32.68
			c-1.55,3.97-4.39,7.53-7.03,10.97c-2.42,3.15-6.08,3.02-8.89,0.15c-3.35-3.42-4.16-7.93-5.12-12.34
			c-1.37-6.35-2.45-12.77-4.05-19.06c-0.51-1.99-2.28-3.67-3.52-5.45c-0.85-1.23-1.92-2.34-2.66-3.63
			c-2.28-3.97-4.46-8.01-6.98-12.59c-0.35,1.28-0.46,1.99-0.73,2.64c-3.65,8.86-7.32,17.71-11,26.56c-0.49,1.17-0.93,2.41-1.67,3.42
			c-3.4,4.69-3.6,9.98-3.23,15.46c0.24,3.49,0.41,7,0.24,10.49c-0.06,1.34-0.95,2.78-1.83,3.89c-0.76,0.95-2,1.55-3.1,2.18
			c-3.9,2.23-7.19,5.01-10,8.63c-4.14,5.32-10.5,7.29-16.75,8.09c-7.29,0.93-14.74,0.74-22.12,0.72c-2.67-0.01-5.42-0.8-6.61-3.79
			c-0.19-0.47-0.36-1.1-0.2-1.53c1.63-4.5,4.09-8.46,7.62-11.74c1.04-0.97,1.95-2.09,2.91-3.15c7.26-7.88,12.87-16.7,15.43-27.22
			c0.6-2.45,0.81-5,1.14-7.51c0.18-1.37,0.15-2.77,2.24-2.49c0.4,0.05,1.13-0.62,1.32-1.11c1.43-3.75,3.53-7.44,3.97-11.32
			c0.97-8.49,1.21-17.08,1.52-25.63C362.46,611.9,361.09,607.02,365.89,603.53z M356.67,491.85c-0.19-0.05-0.38-0.1-0.57-0.15
			c-1.39,3.49-2.81,6.97-4.15,10.48c-0.64,1.67-1.77,3.5-1.54,5.1c0.84,5.86,0.28,11.33-2.72,16.52c-0.42,0.72-0.35,1.94-0.08,2.79
			c1.11,3.52,1.97,7.22,5.1,9.7c0.29,0.23,0.56,0.64,0.62,1c0.49,2.95,2.29,3.92,5.16,4.46c2.48,0.47,4.73,2.17,7.29,3.42
			c-0.16-1.84-0.1-3.68-0.51-5.41c-1.75-7.53-3.64-15.02-5.46-22.53c-0.65-2.69-1.48-5.37-1.77-8.1
			C357.42,503.38,357.11,497.61,356.67,491.85z M414.44,340.71c2.17-2.99,3.96-5.41,5.69-7.86c1.46-2.06,1.96-4.32,1.09-6.77
			c-0.72-2.01-1.72-3.96-2.16-6.03c-0.94-4.48-1.59-9.02-2.37-13.54c-0.52-2.97-1.06-5.93-1.59-8.9c-0.28,0.02-0.56,0.04-0.85,0.06
			C411.45,311.82,413.94,325.98,414.44,340.71z"/>
	</g>
</g>
</svg>
