<svg xmlns="http://www.w3.org/2000/svg" xmlns:xlink="http://www.w3.org/1999/xlink" viewBox="0 0 171.56 222.63"><defs><style>.cls-1{fill:none;}.cls-2{fill:#fabf14;}.cls-3{clip-path:url(#clip-path);}.cls-4{fill:#fbdd79;}.cls-5{fill:#736357;}.cls-6{fill:#534741;}.cls-7{fill:url(#linear-gradient);}.cls-8{fill:#f2f2f2;}.cls-9{fill:#00b5e4;}</style><clipPath id="clip-path" transform="translate(-11.7 -5.24)"><rect class="cls-1" width="195.23" height="109.03"/></clipPath><linearGradient id="linear-gradient" x1="96.6" y1="136.46" x2="98.95" y2="25.08" gradientTransform="matrix(1, 0, 0, -1, -11.7, 222.68)" gradientUnits="userSpaceOnUse"><stop offset="0" stop-color="#32c5f1"/><stop offset="1" stop-color="#0b6096"/></linearGradient></defs><title>Asset 1</title><g id="Layer_2" data-name="Layer 2"><g id="Layer_1-2" data-name="Layer 1"><g id="Layer_4" data-name="Layer 4"><path class="cls-2" d="M36.29,109.31,85.05,179.4a14.58,14.58,0,0,0,24,0l48.52-70.07H36.29Z" transform="translate(-11.7 -5.24)"/><g class="cls-3"><path class="cls-4" d="M138.64,35a56.44,56.44,0,1,0,0,79.82A56.44,56.44,0,0,0,138.64,35Zm-74,74a48.19,48.19,0,1,1,68.15,0A48.19,48.19,0,0,1,64.65,108.93Z" transform="translate(-11.7 -5.24)"/><path class="cls-2" d="M146.77,122.89l-6.2-6.2a1.15,1.15,0,0,1,.8-2l13.41-.15a2.18,2.18,0,0,0,1.79-1,69.63,69.63,0,1,0-9.82,11.65A1.67,1.67,0,0,0,146.77,122.89Zm-88-8.12a56.45,56.45,0,1,1,79.83,0A56.46,56.46,0,0,1,58.82,114.77Z" transform="translate(-11.7 -5.24)"/></g><polygon class="cls-5" points="70.08 105.22 112.28 57.1 154.49 105.22 70.08 105.22"/><polygon class="cls-6" points="19.64 105.22 68.71 50.24 117.77 105.22 19.64 105.22"/><polygon class="cls-7" points="70.99 138.97 82.6 109.92 65.82 109.92 93.68 78.39 84.87 100.42 104.78 100.42 70.99 138.97"/><path class="cls-8" d="M55.65,227.53a1,1,0,0,1-1-1V206H46.74a1,1,0,0,1-1-1v-.82a1,1,0,0,1,1-1h19a1,1,0,0,1,1,1V205a1,1,0,0,1-1,1H57.84v20.57a1,1,0,0,1-1,1Z" transform="translate(-11.7 -5.24)"/><path class="cls-8" d="M46,204.16V205a.74.74,0,0,0,.74.74H54.9v20.82a.74.74,0,0,0,.74.74h1.2a.74.74,0,0,0,.74-.74V205.72h8.13a.74.74,0,0,0,.74-.74v-.82a.74.74,0,0,0-.74-.74h-19A.74.74,0,0,0,46,204.16Z" transform="translate(-11.7 -5.24)"/><path class="cls-8" d="M128.75,227.53a1,1,0,0,1-1-1V204.16a1,1,0,0,1,1-1H130a1,1,0,0,1,1,1v22.38a1,1,0,0,1-1,1Z" transform="translate(-11.7 -5.24)"/><path class="cls-8" d="M128,204.16v22.38a.74.74,0,0,0,.74.74H130a.74.74,0,0,0,.74-.74V204.16a.74.74,0,0,0-.74-.74h-1.24A.73.73,0,0,0,128,204.16Z" transform="translate(-11.7 -5.24)"/><path class="cls-8" d="M140.58,227.53a1,1,0,0,1-1-1V204.16a1,1,0,0,1,1-1h1.24a1,1,0,0,1,1,1V224.7h13.73a1,1,0,0,1,1,1v.85a1,1,0,0,1-1,1Z" transform="translate(-11.7 -5.24)"/><path class="cls-8" d="M142.57,224.94V204.16a.74.74,0,0,0-.74-.74h-1.24a.74.74,0,0,0-.74.74v22.38a.74.74,0,0,0,.74.74h16a.74.74,0,0,0,.74-.74v-.85a.74.74,0,0,0-.74-.74h-14Z" transform="translate(-11.7 -5.24)"/><path class="cls-8" d="M172.45,227.87a20.64,20.64,0,0,1-11.2-3.11.75.75,0,0,1-.23-1l.75-1.27a.74.74,0,0,1,.64-.37.76.76,0,0,1,.43.14l.06,0a17.37,17.37,0,0,0,9.67,2.76c4.54,0,7.47-1.74,7.47-4.44s-3.5-3.45-8.08-4c-3.79-.49-10.13-1.32-10.13-6.83,0-4.37,3.87-7,10.35-7a23.52,23.52,0,0,1,9.51,1.95.74.74,0,0,1,.36,1l-.66,1.22a.74.74,0,0,1-.65.39.72.72,0,0,1-.29-.06l-.06,0a20.4,20.4,0,0,0-8-1.71c-4.7,0-7.28,1.46-7.28,4.1s2.94,3.5,7.69,4.11c4.44.57,10.51,1.35,10.51,6.79C183.26,225.15,179.22,227.87,172.45,227.87Z" transform="translate(-11.7 -5.24)"/><path class="cls-8" d="M172.71,214.05c-4.88-.62-7.91-1.57-7.91-4.35s2.67-4.35,7.53-4.35a20.59,20.59,0,0,1,8.15,1.73l.06,0a.49.49,0,0,0,.63-.22l.66-1.22a.49.49,0,0,0-.24-.69h0a23.2,23.2,0,0,0-9.41-1.93c-6.33,0-10.1,2.51-10.1,6.72,0,5.29,6.2,6.1,9.91,6.58,4.7.6,8.29,1.3,8.29,4.28s-3,4.69-7.72,4.69a17.67,17.67,0,0,1-9.81-2.8l-.06,0a.49.49,0,0,0-.71.15l-.75,1.27a.49.49,0,0,0,.15.66h0a20.39,20.39,0,0,0,11.06,3.07c6.61,0,10.56-2.63,10.56-7C183,215.37,177.06,214.61,172.71,214.05Z" transform="translate(-11.7 -5.24)"/><path class="cls-8" d="M119.82,227.53a1.24,1.24,0,0,1-1.12-.71l-2.88-6.06h-8.69V218h7.44l-5-10.72-5.32,11.07-.72,1.7v.24h-.09l-.15.36-3,6.21a1.24,1.24,0,0,1-1.12.71H97.65a.75.75,0,0,1-.67-1.07l11-22.74a1,1,0,0,1,.89-.56h1.33a1,1,0,0,1,.89.56L122,226.46a.75.75,0,0,1-.67,1.07Z" transform="translate(-11.7 -5.24)"/><path class="cls-8" d="M110.21,203.41h-1.33a.73.73,0,0,0-.67.42l-11,22.74a.49.49,0,0,0,.45.71H99.2a1,1,0,0,0,.9-.57l2.94-6.2.21-.5h0a.13.13,0,0,1,0-.06l.74-1.75,5.55-11.54L115,218.2h-7.59v2.31H116l2.94,6.2a1,1,0,0,0,.9.57h1.53a.5.5,0,0,0,.45-.71l-10.92-22.74A.77.77,0,0,0,110.21,203.41Z" transform="translate(-11.7 -5.24)"/><path class="cls-8" d="M90.61,227.53a.89.89,0,0,1-.67-.3l-7.43-8.3h0a.32.32,0,0,0-.27-.14H79.09v-2.55h4.4c4.05,0,6.67-2,6.67-5.09S87.59,206,83.91,206H75.67v20.57a1,1,0,0,1-1,1H73.44a1,1,0,0,1-1-1V204.17a1,1,0,0,1,1-1H84c5.42,0,9.36,3.33,9.36,7.93,0,3.87-2.77,6.83-7.11,7.64l7,7.73a.63.63,0,0,1,.11.69.64.64,0,0,1-.58.38H90.61Z" transform="translate(-11.7 -5.24)"/><path class="cls-8" d="M85.79,218.56c4.44-.66,7.35-3.56,7.35-7.47,0-4.45-3.83-7.68-9.11-7.68H73.45a.74.74,0,0,0-.74.74v9.7h0v7.29h0v5.39a.74.74,0,0,0,.74.74h1.24a.74.74,0,0,0,.74-.74v-5.39h0V205.7h8.49c3.83,0,6.5,2.22,6.5,5.41s-2.71,5.34-6.91,5.34H79.35v2.05h2.89a.58.58,0,0,1,.48.25h0l.28.32,7.13,8a.64.64,0,0,0,.48.22h2.24a.39.39,0,0,0,.29-.65Z" transform="translate(-11.7 -5.24)"/><path class="cls-9" d="M11.7,215.18V204.75c0-1.37.21-1.59,1.53-1.59H31.6c1.32,0,1.7.39,1.66,1.62,0,.93-.51,1.27-1.4,1.26-2.25,0-4.5,0-6.75,0-3.05,0-6.09,0-9.14,0-.63,0-.85.14-.84.82q0,8.34,0,16.69c0,.75.3.77.87.77H31.4c1.4,0,2,.57,1.83,1.93a1.24,1.24,0,0,1-1.4,1.3c-6.16,0-12.32,0-18.47,0-1.17,0-1.65-.51-1.65-1.71Q11.69,220.51,11.7,215.18Z" transform="translate(-11.7 -5.24)"/><path class="cls-9" d="M24.57,216.68H19.11c-1.15,0-1.22-.19-1.27-1.69,0-1,.39-1.27,1.3-1.26,3.57,0,7.14,0,10.71,0,1.18,0,1.38.21,1.39,1.38,0,1.34-.18,1.55-1.42,1.56Z" transform="translate(-11.7 -5.24)"/><circle class="cls-8" cx="28.06" cy="210.04" r="2.49"/></g></g></g></svg>