<?xml version="1.0" encoding="utf-8"?>
<!-- Generator: Adobe Illustrator 23.0.0, SVG Export Plug-In . SVG Version: 6.00 Build 0)  -->
<svg version="1.1" xmlns="http://www.w3.org/2000/svg" xmlns:xlink="http://www.w3.org/1999/xlink" x="0px" y="0px"
	 viewBox="0 0 1458 306" style="enable-background:new 0 0 1458 306;" xml:space="preserve">
<style type="text/css">
	.st0{fill:none;stroke:#EFEFEF;stroke-miterlimit:10;}
	.st1{fill:#F9DC79;}
	.st2{fill:#F7BD19;}
	.st3{opacity:0.8;}
	.st4{fill:url(#SVGID_1_);}
	.st5{fill:url(#SVGID_2_);}
	.st6{fill:url(#SVGID_3_);}
	.st7{fill:url(#SVGID_4_);}
	.st8{fill:url(#SVGID_5_);}
	.st9{fill:url(#SVGID_6_);}
	.st10{fill:url(#SVGID_7_);}
	.st11{fill:url(#SVGID_8_);}
	.st12{fill:url(#SVGID_9_);}
	.st13{fill:url(#SVGID_10_);}
	.st14{fill:url(#SVGID_11_);}
	.st15{fill:url(#SVGID_12_);}
	.st16{fill:url(#SVGID_13_);}
	.st17{fill:url(#SVGID_14_);}
	.st18{fill:url(#SVGID_15_);}
	.st19{fill:url(#SVGID_16_);}
	.st20{fill:url(#SVGID_17_);}
	.st21{fill:url(#SVGID_18_);}
	.st22{fill:#00A99D;}
	.st23{fill:#FBB03B;}
	.st24{fill:none;stroke:#29ABE2;stroke-width:4.5;stroke-miterlimit:10;}
	.st25{fill:none;stroke:#998675;stroke-width:4.5;stroke-miterlimit:10;}
	.st26{fill:url(#SVGID_21_);}
	.st27{fill:url(#SVGID_22_);}
	.st28{fill:url(#SVGID_23_);}
	.st29{fill:#FABF14;}
	.st30{fill:none;stroke:#FFF200;stroke-width:6;stroke-miterlimit:10;}
	.st31{fill:#E6E6E6;}
	.st32{fill:#CCCCCC;}
</style>
<g id="Layer_2">
</g>
<g id="Layer_1">
	<g class="st3">
		<linearGradient id="SVGID_1_" gradientUnits="userSpaceOnUse" x1="123.3426" y1="29.7412" x2="121.6418" y2="275.505">
			<stop  offset="0" style="stop-color:#FFFFFF"/>
			<stop  offset="0.9188" style="stop-color:#000000"/>
		</linearGradient>
		<path class="st4" d="M196.6,245.37l-0.26-152.72l-67.49,133.13h-12.7L48.91,92.65v152.72H28.8V60.1H55l67.76,133.4l67.49-133.4
			h25.94v185.28H196.6z"/>
		<linearGradient id="SVGID_2_" gradientUnits="userSpaceOnUse" x1="352.9385" y1="31.3301" x2="351.2378" y2="277.0939">
			<stop  offset="0" style="stop-color:#FFFFFF"/>
			<stop  offset="0.9188" style="stop-color:#000000"/>
		</linearGradient>
		<path class="st5" d="M449.1,152.74c0,52.14-42.88,93.7-96.87,93.7c-54.26,0-97.14-41.55-97.14-93.7
			c0-52.41,42.88-93.17,97.14-93.17C406.23,59.57,449.1,100.59,449.1,152.74z M276.53,152.74c0,40.76,34.41,73.32,75.7,73.32
			c41.29,0,75.17-32.56,75.17-73.32s-33.88-73.05-75.17-73.05C310.94,79.68,276.53,111.97,276.53,152.74z"/>
		<linearGradient id="SVGID_3_" gradientUnits="userSpaceOnUse" x1="565.5959" y1="32.8018" x2="563.8951" y2="278.5656">
			<stop  offset="0" style="stop-color:#FFFFFF"/>
			<stop  offset="0.9188" style="stop-color:#000000"/>
		</linearGradient>
		<path class="st6" d="M620.08,245.37L508.92,96.62v148.75h-21.17V60.1h21.97l111.17,149.01V60.1h20.91v185.28H620.08z"/>
		<linearGradient id="SVGID_4_" gradientUnits="userSpaceOnUse" x1="778.5207" y1="34.2753" x2="776.8199" y2="280.0391">
			<stop  offset="0" style="stop-color:#FFFFFF"/>
			<stop  offset="0.9188" style="stop-color:#000000"/>
		</linearGradient>
		<path class="st7" d="M874.71,152.74c0,52.14-42.88,93.7-96.87,93.7c-54.26,0-97.14-41.55-97.14-93.7
			c0-52.41,42.88-93.17,97.14-93.17C831.83,59.57,874.71,100.59,874.71,152.74z M702.14,152.74c0,40.76,34.41,73.32,75.7,73.32
			S853,193.5,853,152.74s-33.88-73.05-75.17-73.05S702.14,111.97,702.14,152.74z"/>
		<linearGradient id="SVGID_5_" gradientUnits="userSpaceOnUse" x1="965.3726" y1="35.5684" x2="963.6718" y2="281.3322">
			<stop  offset="0" style="stop-color:#FFFFFF"/>
			<stop  offset="0.9188" style="stop-color:#000000"/>
		</linearGradient>
		<path class="st8" d="M1015.78,225.26v20.12H913.35V60.1h21.17v165.16H1015.78z"/>
		<linearGradient id="SVGID_6_" gradientUnits="userSpaceOnUse" x1="1061.579" y1="36.2342" x2="1059.8782" y2="281.998">
			<stop  offset="0" style="stop-color:#FFFFFF"/>
			<stop  offset="0.9188" style="stop-color:#000000"/>
		</linearGradient>
		<path class="st9" d="M1050.19,245.37V60.1h21.17v185.28H1050.19z"/>
		<linearGradient id="SVGID_7_" gradientUnits="userSpaceOnUse" x1="1173.6217" y1="37.0096" x2="1171.9209" y2="282.7733">
			<stop  offset="0" style="stop-color:#FFFFFF"/>
			<stop  offset="0.9188" style="stop-color:#000000"/>
		</linearGradient>
		<path class="st10" d="M1183.85,80.48v164.9h-21.17V80.48h-60.35V60.1h142.13v20.38H1183.85z"/>
		<linearGradient id="SVGID_8_" gradientUnits="userSpaceOnUse" x1="1352.9751" y1="38.2508" x2="1351.2744" y2="284.0146">
			<stop  offset="0" style="stop-color:#FFFFFF"/>
			<stop  offset="0.9188" style="stop-color:#000000"/>
		</linearGradient>
		<path class="st11" d="M1408.03,245.37v-81.52h-111.69v81.52h-21.17V60.1h21.17v83.64h111.69V60.1h21.17v185.28H1408.03z"/>
	</g>
</g>
<g id="Layer_3">
</g>
<g id="Layer_4">
</g>
</svg>
