<svg id="Layer_1" data-name="Layer 1" xmlns="http://www.w3.org/2000/svg" viewBox="0 0 714.4 210.11"><defs><style>.cls-1{fill:#f7bd19;opacity:0.9;isolation:isolate;}.cls-2{fill:#fff;}</style></defs><title>layer2</title><g id="Layer_5" data-name="Layer 5"><polygon class="cls-1" points="3.8 -0.23 74.67 208.97 714.73 208.97 714.73 -0.23 3.8 -0.23"/><path class="cls-2" d="M419.63,64.4l-.06-30.54L406.66,60.14h-4.5l-12.9-26.28V64.4h-6.48V23.53H391l13.49,27.15,13.43-27.15H426V64.41h-6.37Z"/><path class="cls-2" d="M476.74,44c0,11.68-9.46,20.73-21.66,20.73s-21.66-9-21.66-20.73,9.46-20.61,21.66-20.61S476.74,32.29,476.74,44Zm-36.32,0A14.66,14.66,0,0,0,455.14,58.5,14.48,14.48,0,1,0,440.42,44Z"/><path class="cls-2" d="M512.78,64.4,491,35.09V64.4h-6.89V23.53h6.77l21.9,29.37V23.53h6.77V64.41h-6.77Z"/><path class="cls-2" d="M570.3,44c0,11.68-9.46,20.73-21.66,20.73S527,55.64,527,44s9.46-20.61,21.66-20.61S570.3,32.29,570.3,44ZM534,44A14.66,14.66,0,0,0,548.7,58.5,14.48,14.48,0,1,0,534,44Z"/><path class="cls-2" d="M602.25,58.15V64.4H577.67V23.53h6.89V58.16h17.69Z"/><path class="cls-2" d="M608.85,64.4V23.53h6.89V64.41h-6.89Z"/><path class="cls-2" d="M641.44,29.72V64.41h-6.89V29.72H621.64V23.53H654.4v6.19Z"/><path class="cls-2" d="M688.86,64.4V47.47H667.2V64.4h-6.89V23.53h6.89V41.28h21.66V23.53h6.89V64.41h-6.89Z"/></g></svg>